<?xml version="1.0" encoding="UTF-8"?>
<!DOCTYPE svg PUBLIC "-//W3C//DTD SVG 1.1//EN" "http://www.w3.org/Graphics/SVG/1.1/DTD/svg11.dtd">
<svg xmlns="http://www.w3.org/2000/svg" version="1.1" width="900px" height="900px" style="shape-rendering:geometricPrecision; text-rendering:geometricPrecision; image-rendering:optimizeQuality; fill-rule:evenodd; clip-rule:evenodd" xmlns:xlink="http://www.w3.org/1999/xlink">
<g><path style="opacity:1" fill="#949494" d="M 454.5,93.5 C 459.973,94.9911 465.64,96.6577 471.5,98.5C 472.298,98.0431 472.631,97.3764 472.5,96.5C 475.245,98.1752 477.912,99.8419 480.5,101.5C 481.191,105.536 483.524,108.036 487.5,109C 489.662,110.645 490.995,112.812 491.5,115.5C 492.325,116.386 493.325,116.719 494.5,116.5C 500.785,128.612 506.785,140.946 512.5,153.5C 514.317,154.767 515.984,156.1 517.5,157.5C 518.167,157.5 518.5,157.833 518.5,158.5C 516.961,162.853 518.128,166.52 522,169.5C 523.951,174.689 526.284,179.689 529,184.5C 529.77,185.598 530.603,185.598 531.5,184.5C 532.167,185.167 532.833,185.833 533.5,186.5C 532.733,187.172 532.066,188.005 531.5,189C 534.81,196.602 538.31,204.102 542,211.5C 542.876,213.635 544.376,214.969 546.5,215.5C 551.818,225.744 557.151,236.077 562.5,246.5C 561.624,246.369 560.957,246.702 560.5,247.5C 565.742,258.983 571.242,270.316 577,281.5C 577.464,280.906 577.631,280.239 577.5,279.5C 579.161,280.797 580.828,282.13 582.5,283.5C 581.127,283.343 579.793,283.51 578.5,284C 581.205,286.792 584.538,288.126 588.5,288C 607.886,290.12 627.053,292.953 646,296.5C 648.008,296.693 649.508,296.026 650.5,294.5C 657.417,295.593 664.417,296.426 671.5,297C 672.056,297.383 672.389,297.883 672.5,298.5C 673.694,299.777 675.36,300.444 677.5,300.5C 695.073,302.715 712.573,305.381 730,308.5C 732.221,308.607 734.054,307.94 735.5,306.5C 736.167,306.5 736.5,306.833 736.5,307.5C 736.577,308.75 737.244,309.583 738.5,310C 746.674,310.829 754.674,311.829 762.5,313C 763.252,312.329 763.586,311.496 763.5,310.5C 774.942,314.24 784.609,320.573 792.5,329.5C 791.957,329.56 791.624,329.893 791.5,330.5C 794.069,335.3 796.902,339.967 800,344.5C 804.829,362.022 803.996,379.189 797.5,396C 798.094,396.464 798.761,396.631 799.5,396.5C 799.672,397.492 799.338,398.158 798.5,398.5C 797.85,398.196 797.183,397.863 796.5,397.5C 791.363,404.803 785.363,411.303 778.5,417C 779.793,417.49 781.127,417.657 782.5,417.5C 775.165,424.834 767.498,431.834 759.5,438.5C 758.687,437.347 757.687,437.347 756.5,438.5C 753.5,441.5 750.5,444.5 747.5,447.5C 747.957,448.298 748.624,448.631 749.5,448.5C 746.599,452.34 743.265,455.673 739.5,458.5C 739.44,457.957 739.107,457.624 738.5,457.5C 735.351,459.486 732.517,461.819 730,464.5C 729.26,465.749 729.427,466.749 730.5,467.5C 724.779,473.887 718.779,479.887 712.5,485.5C 712.33,484.178 712.663,483.011 713.5,482C 712.833,481.333 712.167,481.333 711.5,482C 697.239,496.429 682.905,510.596 668.5,524.5C 667.218,525.958 667.218,527.292 668.5,528.5C 665.67,530.987 663.67,533.987 662.5,537.5C 664.268,544.705 665.435,552.038 666,559.5C 666.717,560.044 667.217,560.711 667.5,561.5C 666.5,561.5 665.5,561.5 664.5,561.5C 666.403,575.192 668.57,588.859 671,602.5C 671.66,607.034 672.827,610.7 674.5,613.5C 675.167,613.5 675.5,613.833 675.5,614.5C 674.649,619.777 674.816,625.11 676,630.5C 677.954,635.971 678.954,641.638 679,647.5C 679.417,648.756 680.25,649.423 681.5,649.5C 682.167,649.5 682.5,649.833 682.5,650.5C 681.414,650.62 680.747,651.287 680.5,652.5C 681.308,660.162 682.141,667.829 683,675.5C 684.1,681.306 685.933,686.64 688.5,691.5C 688.433,692.959 688.766,694.292 689.5,695.5C 688.414,695.62 687.747,696.287 687.5,697.5C 690.828,709.935 691.162,722.435 688.5,735C 688.836,736.03 689.503,736.53 690.5,736.5C 688.602,740.68 686.602,744.847 684.5,749C 682.662,752.329 680.329,755.162 677.5,757.5C 677.649,756.448 677.483,755.448 677,754.5C 674.473,758.361 671.306,761.527 667.5,764C 668.448,764.483 669.448,764.649 670.5,764.5C 670.631,765.376 670.298,766.043 669.5,766.5C 665.757,768.512 662.09,770.512 658.5,772.5C 657.726,771.853 656.726,771.52 655.5,771.5C 642.593,775.932 629.426,776.599 616,773.5C 614.97,773.836 614.47,774.503 614.5,775.5C 602.883,769.78 591.217,763.947 579.5,758C 577.253,756.723 575.253,755.223 573.5,753.5C 573.631,752.624 573.298,751.957 572.5,751.5C 567.491,748.663 562.491,745.829 557.5,743C 555.613,742.22 553.946,742.387 552.5,743.5C 548.327,741.916 544.66,739.583 541.5,736.5C 541.586,735.504 541.252,734.671 540.5,734C 535.657,731.815 530.824,729.649 526,727.5C 525.235,727.57 524.735,727.903 524.5,728.5C 521.013,727.592 518.013,725.926 515.5,723.5C 516.478,723.189 517.145,722.522 517.5,721.5C 506.188,715.298 494.855,709.298 483.5,703.5C 482.081,704.005 481.415,705.005 481.5,706.5C 471.16,700.395 460.494,694.728 449.5,689.5C 443.822,692.177 438.155,694.844 432.5,697.5C 432.189,696.522 431.522,695.855 430.5,695.5C 426.12,697.92 421.787,700.42 417.5,703C 418.056,703.383 418.389,703.883 418.5,704.5C 416.295,706.346 413.961,708.013 411.5,709.5C 411.585,708.005 410.919,707.005 409.5,706.5C 402.636,710.618 395.636,714.451 388.5,718C 389.448,718.483 390.448,718.649 391.5,718.5C 385.826,722.524 379.826,726.191 373.5,729.5C 373.631,728.624 373.298,727.957 372.5,727.5C 359.988,732.986 347.655,739.153 335.5,746C 336.056,746.383 336.389,746.883 336.5,747.5C 328.979,751.458 321.646,755.791 314.5,760.5C 314.585,759.005 313.919,758.005 312.5,757.5C 307.793,760.854 302.793,763.687 297.5,766C 296.177,766.816 295.511,767.983 295.5,769.5C 292.193,771.724 288.527,773.391 284.5,774.5C 283.688,773.007 282.355,772.34 280.5,772.5C 268.957,776.157 257.291,776.491 245.5,773.5C 242.083,773.977 239.416,772.977 237.5,770.5C 237.5,769.167 237.5,767.833 237.5,766.5C 235.345,766.628 233.345,766.128 231.5,765C 227.418,760.808 223.251,756.642 219,752.5C 216.315,749.292 214.482,745.626 213.5,741.5C 212.478,741.855 211.811,742.522 211.5,743.5C 210.5,743.167 209.833,742.5 209.5,741.5C 210.995,741.585 211.995,740.919 212.5,739.5C 207.817,728.992 206.484,717.992 208.5,706.5C 208.253,705.287 207.586,704.62 206.5,704.5C 206.842,703.662 207.508,703.328 208.5,703.5C 210.003,696.858 211.836,690.191 214,683.5C 215.165,670.343 217.165,657.343 220,644.5C 220.812,640.311 220.645,636.311 219.5,632.5C 222.081,618.841 224.414,605.008 226.5,591C 226.569,589.014 227.235,587.514 228.5,586.5C 232.152,573.361 234.818,559.861 236.5,546C 236.316,544.624 235.649,543.791 234.5,543.5C 234.328,542.508 234.662,541.842 235.5,541.5C 236.189,542.774 237.023,542.774 238,541.5C 238.817,538.036 238.483,534.702 237,531.5C 224.774,520.028 212.774,508.362 201,496.5C 200.617,497.056 200.117,497.389 199.5,497.5C 191.32,490.484 183.32,483.317 175.5,476C 173.79,474.349 172.456,472.516 171.5,470.5C 171.649,469.448 171.483,468.448 171,467.5C 167.667,464.167 164.333,460.833 161,457.5C 160.536,458.094 160.369,458.761 160.5,459.5C 159.508,459.672 158.842,459.338 158.5,458.5C 159.303,457.577 159.47,456.577 159,455.5C 157.061,453.806 155.228,451.973 153.5,450C 152.251,449.26 151.251,449.427 150.5,450.5C 149.094,450.027 148.427,449.027 148.5,447.5C 148.649,446.448 148.483,445.448 148,444.5C 145.167,443 143,440.833 141.5,438C 139.545,437.047 137.878,435.713 136.5,434C 135.563,433.308 134.897,433.475 134.5,434.5C 120.073,423.074 107.74,409.741 97.5,394.5C 98.675,394.719 99.675,394.386 100.5,393.5C 93.3798,378.718 92.7132,363.551 98.5,348C 101.917,338.608 107.251,330.608 114.5,324C 116.596,322.234 118.929,320.901 121.5,320C 122.337,318.989 122.67,317.822 122.5,316.5C 126.129,314.065 130.129,312.398 134.5,311.5C 140.416,312.237 146.416,311.737 152.5,310C 151.944,309.617 151.611,309.117 151.5,308.5C 152.167,308.167 152.833,307.833 153.5,307.5C 153.791,308.649 154.624,309.316 156,309.5C 164.887,308.748 173.721,307.582 182.5,306C 183.056,305.617 183.389,305.117 183.5,304.5C 183.5,303.833 183.833,303.5 184.5,303.5C 185.334,304.748 186.667,305.415 188.5,305.5C 210.993,301.227 233.66,298.06 256.5,296C 258.544,295.502 259.878,294.335 260.5,292.5C 260.5,291.833 260.833,291.5 261.5,291.5C 261.5,292.5 261.5,293.5 261.5,294.5C 275.027,293.052 288.36,290.885 301.5,288C 301.272,287.601 300.938,287.435 300.5,287.5C 300.833,286.5 301.5,285.833 302.5,285.5C 303.148,287.586 304.648,288.586 307,288.5C 310.865,288.015 314.698,287.348 318.5,286.5C 322.301,280.564 325.301,274.231 327.5,267.5C 327.457,266.584 327.124,265.917 326.5,265.5C 330.51,257.479 334.51,249.479 338.5,241.5C 339.077,243.652 340.244,243.985 342,242.5C 348.67,225.477 356.67,209.144 366,193.5C 367.462,189.352 368.962,185.186 370.5,181C 370.43,180.235 370.097,179.735 369.5,179.5C 369.263,178.209 369.596,177.209 370.5,176.5C 370.369,177.376 370.702,178.043 371.5,178.5C 374.447,176.218 376.113,173.218 376.5,169.5C 381.292,163.75 384.625,157.25 386.5,150C 386.164,148.97 385.497,148.47 384.5,148.5C 385.095,145.683 386.428,143.35 388.5,141.5C 389.575,142.562 390.575,142.562 391.5,141.5C 395.773,128.706 402.773,117.539 412.5,108C 411.956,107.283 411.289,106.783 410.5,106.5C 410.833,105.5 411.5,104.833 412.5,104.5C 412.369,105.376 412.702,106.043 413.5,106.5C 423.124,101.014 433.124,96.6811 443.5,93.5C 445.228,92.621 447.061,91.9543 449,91.5C 450.939,91.9543 452.772,92.621 454.5,93.5 Z"/></g>
<g><path style="opacity:0.106" fill="#bdbdbd" d="M 454.5,93.5 C 460.755,93.219 466.755,94.219 472.5,96.5C 472.631,97.3764 472.298,98.0431 471.5,98.5C 465.64,96.6577 459.973,94.9911 454.5,93.5 Z"/></g>
<g><path style="opacity:0.365" fill="#b8b8b8" d="M 443.5,93.5 C 433.124,96.6811 423.124,101.014 413.5,106.5C 412.702,106.043 412.369,105.376 412.5,104.5C 421.572,97.4746 431.906,93.8079 443.5,93.5 Z"/></g>
<g><path style="opacity:0.524" fill="#a8a8a8" d="M 480.5,101.5 C 488.373,105.202 494.539,110.868 499,118.5C 504.368,130.211 510.201,141.711 516.5,153C 517.148,154.44 517.481,155.94 517.5,157.5C 515.984,156.1 514.317,154.767 512.5,153.5C 506.785,140.946 500.785,128.612 494.5,116.5C 493.325,116.719 492.325,116.386 491.5,115.5C 490.995,112.812 489.662,110.645 487.5,109C 483.524,108.036 481.191,105.536 480.5,101.5 Z"/></g>
<g><path style="opacity:0.25" fill="#aeaeae" d="M 410.5,106.5 C 411.289,106.783 411.956,107.283 412.5,108C 402.773,117.539 395.773,128.706 391.5,141.5C 390.575,142.562 389.575,142.562 388.5,141.5C 391.655,133.216 395.488,125.216 400,117.5C 402.751,113.057 406.251,109.391 410.5,106.5 Z"/></g>
<g><path style="opacity:0.549" fill="#b4b4b4" d="M 384.5,148.5 C 385.497,148.47 386.164,148.97 386.5,150C 384.625,157.25 381.292,163.75 376.5,169.5C 376.113,173.218 374.447,176.218 371.5,178.5C 370.702,178.043 370.369,177.376 370.5,176.5C 375.503,167.33 380.169,157.997 384.5,148.5 Z"/></g>
<g><path style="opacity:0.173" fill="#b1b1b1" d="M 518.5,158.5 C 522.967,167.045 527.301,175.712 531.5,184.5C 530.603,185.598 529.77,185.598 529,184.5C 526.284,179.689 523.951,174.689 522,169.5C 518.128,166.52 516.961,162.853 518.5,158.5 Z"/></g>
<g><path style="opacity:0.286" fill="#bbbbbb" d="M 533.5,186.5 C 537.637,196.24 541.97,205.906 546.5,215.5C 544.376,214.969 542.876,213.635 542,211.5C 538.31,204.102 534.81,196.602 531.5,189C 532.066,188.005 532.733,187.172 533.5,186.5 Z"/></g>
<g><path style="opacity:0.351" fill="#b6b6b6" d="M 369.5,179.5 C 370.097,179.735 370.43,180.235 370.5,181C 368.962,185.186 367.462,189.352 366,193.5C 356.67,209.144 348.67,225.477 342,242.5C 340.244,243.985 339.077,243.652 338.5,241.5C 348.828,220.864 359.161,200.197 369.5,179.5 Z"/></g>
<g><path style="opacity:0.209" fill="#bfbfbf" d="M 562.5,246.5 C 568.004,257.259 573.004,268.259 577.5,279.5C 577.631,280.239 577.464,280.906 577,281.5C 571.242,270.316 565.742,258.983 560.5,247.5C 560.957,246.702 561.624,246.369 562.5,246.5 Z"/></g>
<g><path style="opacity:0.34" fill="#b2b2b2" d="M 326.5,265.5 C 327.124,265.917 327.457,266.584 327.5,267.5C 325.301,274.231 322.301,280.564 318.5,286.5C 314.698,287.348 310.865,288.015 307,288.5C 304.648,288.586 303.148,287.586 302.5,285.5C 309.086,286.461 314.753,284.795 319.5,280.5C 322.032,275.561 324.365,270.561 326.5,265.5 Z"/></g>
<g><path style="opacity:0.478" fill="#b6b6b6" d="M 300.5,287.5 C 300.938,287.435 301.272,287.601 301.5,288C 288.36,290.885 275.027,293.052 261.5,294.5C 261.5,293.5 261.5,292.5 261.5,291.5C 274.322,289.451 287.322,288.118 300.5,287.5 Z"/></g>
<g><path style="opacity:0.731" fill="#b7b7b7" d="M 582.5,283.5 C 605.388,286.911 628.055,290.578 650.5,294.5C 649.508,296.026 648.008,296.693 646,296.5C 627.053,292.953 607.886,290.12 588.5,288C 584.538,288.126 581.205,286.792 578.5,284C 579.793,283.51 581.127,283.343 582.5,283.5 Z"/></g>
<g><path style="opacity:0.831" fill="#b8b8b8" d="M 260.5,292.5 C 259.878,294.335 258.544,295.502 256.5,296C 233.66,298.06 210.993,301.227 188.5,305.5C 186.667,305.415 185.334,304.748 184.5,303.5C 209.798,300.245 235.132,296.579 260.5,292.5 Z"/></g>
<g><path style="opacity:0.997" fill="#b2b2b2" d="M 672.5,298.5 C 693.612,300.57 714.612,303.236 735.5,306.5C 734.054,307.94 732.221,308.607 730,308.5C 712.573,305.381 695.073,302.715 677.5,300.5C 675.36,300.444 673.694,299.777 672.5,298.5 Z"/></g>
<g><path style="opacity:0.719" fill="#b6b6b6" d="M 183.5,304.5 C 183.389,305.117 183.056,305.617 182.5,306C 173.721,307.582 164.887,308.748 156,309.5C 154.624,309.316 153.791,308.649 153.5,307.5C 163.433,305.968 173.433,304.968 183.5,304.5 Z"/></g>
<g><path style="opacity:0.428" fill="#b3b3b3" d="M 736.5,307.5 C 745.615,307.645 754.615,308.645 763.5,310.5C 763.586,311.496 763.252,312.329 762.5,313C 754.674,311.829 746.674,310.829 738.5,310C 737.244,309.583 736.577,308.75 736.5,307.5 Z"/></g>
<g><path style="opacity:0.18" fill="#bbbbbb" d="M 151.5,308.5 C 151.611,309.117 151.944,309.617 152.5,310C 146.416,311.737 140.416,312.237 134.5,311.5C 139.913,309.747 145.579,308.747 151.5,308.5 Z"/></g>
<g><path style="opacity:0.294" fill="#b2b2b2" d="M 122.5,316.5 C 122.67,317.822 122.337,318.989 121.5,320C 118.929,320.901 116.596,322.234 114.5,324C 107.251,330.608 101.917,338.608 98.5,348C 92.7132,363.551 93.3798,378.718 100.5,393.5C 99.675,394.386 98.675,394.719 97.5,394.5C 87.472,368.981 91.3053,345.981 109,325.5C 113.134,321.851 117.634,318.851 122.5,316.5 Z"/></g>
<g><path style="opacity:0.998" fill="#aeaeae" d="M 792.5,329.5 C 805.09,344.862 809.257,362.528 805,382.5C 803.463,387.348 801.629,392.015 799.5,396.5C 798.761,396.631 798.094,396.464 797.5,396C 803.996,379.189 804.829,362.022 800,344.5C 796.902,339.967 794.069,335.3 791.5,330.5C 791.624,329.893 791.957,329.56 792.5,329.5 Z"/></g>
<g><path style="opacity:0.451" fill="#b5b5b5" d="M 798.5,398.5 C 793.897,405.438 788.563,411.771 782.5,417.5C 781.127,417.657 779.793,417.49 778.5,417C 785.363,411.303 791.363,404.803 796.5,397.5C 797.183,397.863 797.85,398.196 798.5,398.5 Z"/></g>
<g><path style="opacity:0.315" fill="#bebebe" d="M 759.5,438.5 C 756.158,441.876 752.825,445.209 749.5,448.5C 748.624,448.631 747.957,448.298 747.5,447.5C 750.5,444.5 753.5,441.5 756.5,438.5C 757.687,437.347 758.687,437.347 759.5,438.5 Z"/></g>
<g><path style="opacity:0.528" fill="#bebebe" d="M 148.5,447.5 C 143.553,443.556 138.886,439.223 134.5,434.5C 134.897,433.475 135.563,433.308 136.5,434C 137.878,435.713 139.545,437.047 141.5,438C 143,440.833 145.167,443 148,444.5C 148.483,445.448 148.649,446.448 148.5,447.5 Z"/></g>
<g><path style="opacity:0.305" fill="#bebebe" d="M 150.5,450.5 C 151.251,449.427 152.251,449.26 153.5,450C 155.228,451.973 157.061,453.806 159,455.5C 159.47,456.577 159.303,457.577 158.5,458.5C 155.833,455.833 153.167,453.167 150.5,450.5 Z"/></g>
<g><path style="opacity:0.449" fill="#bdbdbd" d="M 739.5,458.5 C 736.5,461.5 733.5,464.5 730.5,467.5C 729.427,466.749 729.26,465.749 730,464.5C 732.517,461.819 735.351,459.486 738.5,457.5C 739.107,457.624 739.44,457.957 739.5,458.5 Z"/></g>
<g><path style="opacity:0.22" fill="#c1c1c1" d="M 171.5,470.5 C 167.5,467.167 163.833,463.5 160.5,459.5C 160.369,458.761 160.536,458.094 161,457.5C 164.333,460.833 167.667,464.167 171,467.5C 171.483,468.448 171.649,469.448 171.5,470.5 Z"/></g>
<g><path style="opacity:0.442" fill="#b9b9b9" d="M 712.5,485.5 C 697.475,499.525 682.809,513.859 668.5,528.5C 667.218,527.292 667.218,525.958 668.5,524.5C 682.905,510.596 697.239,496.429 711.5,482C 712.167,481.333 712.833,481.333 713.5,482C 712.663,483.011 712.33,484.178 712.5,485.5 Z"/></g>
<g><path style="opacity:0.165" fill="#bbbbbb" d="M 235.5,541.5 C 235.664,538.813 235.497,536.146 235,533.5C 222.713,521.809 210.879,509.809 199.5,497.5C 200.117,497.389 200.617,497.056 201,496.5C 212.774,508.362 224.774,520.028 237,531.5C 238.483,534.702 238.817,538.036 238,541.5C 237.023,542.774 236.189,542.774 235.5,541.5 Z"/></g>
<g><path style="opacity:0.518" fill="#b8b8b8" d="M 234.5,543.5 C 235.649,543.791 236.316,544.624 236.5,546C 234.818,559.861 232.152,573.361 228.5,586.5C 230.391,572.068 232.391,557.735 234.5,543.5 Z"/></g>
<g><path style="opacity:0.475" fill="#b4b4b4" d="M 667.5,561.5 C 669.843,578.92 672.177,596.253 674.5,613.5C 672.827,610.7 671.66,607.034 671,602.5C 668.57,588.859 666.403,575.192 664.5,561.5C 665.5,561.5 666.5,561.5 667.5,561.5 Z"/></g>
<g><path style="opacity:0.349" fill="#bababa" d="M 675.5,614.5 C 677.332,626.097 679.332,637.764 681.5,649.5C 680.25,649.423 679.417,648.756 679,647.5C 678.954,641.638 677.954,635.971 676,630.5C 674.816,625.11 674.649,619.777 675.5,614.5 Z"/></g>
<g><path style="opacity:0.349" fill="#b8b8b8" d="M 219.5,632.5 C 220.645,636.311 220.812,640.311 220,644.5C 217.165,657.343 215.165,670.343 214,683.5C 211.836,690.191 210.003,696.858 208.5,703.5C 208.596,697.802 209.096,692.135 210,686.5C 213.348,668.543 216.514,650.543 219.5,632.5 Z"/></g>
<g><path style="opacity:0.841" fill="#b3b3b3" d="M 682.5,650.5 C 684.358,664.242 686.358,677.908 688.5,691.5C 685.933,686.64 684.1,681.306 683,675.5C 682.141,667.829 681.308,660.162 680.5,652.5C 680.747,651.287 681.414,650.62 682.5,650.5 Z"/></g>
<g><path style="opacity:0.237" fill="#bbbbbb" d="M 432.5,697.5 C 428.088,700.202 423.421,702.536 418.5,704.5C 418.389,703.883 418.056,703.383 417.5,703C 421.787,700.42 426.12,697.92 430.5,695.5C 431.522,695.855 432.189,696.522 432.5,697.5 Z"/></g>
<g><path style="opacity:0.996" fill="#aaaaaa" d="M 515.5,723.5 C 504.079,717.996 492.745,712.329 481.5,706.5C 481.415,705.005 482.081,704.005 483.5,703.5C 494.855,709.298 506.188,715.298 517.5,721.5C 517.145,722.522 516.478,723.189 515.5,723.5 Z"/></g>
<g><path style="opacity:0.414" fill="#b9b9b9" d="M 411.5,709.5 C 404.74,712.345 398.073,715.345 391.5,718.5C 390.448,718.649 389.448,718.483 388.5,718C 395.636,714.451 402.636,710.618 409.5,706.5C 410.919,707.005 411.585,708.005 411.5,709.5 Z"/></g>
<g><path style="opacity:0.71" fill="#bababa" d="M 689.5,695.5 C 691.733,708.977 692.067,722.643 690.5,736.5C 689.503,736.53 688.836,736.03 688.5,735C 691.162,722.435 690.828,709.935 687.5,697.5C 687.747,696.287 688.414,695.62 689.5,695.5 Z"/></g>
<g><path style="opacity:0.378" fill="#b5b5b5" d="M 206.5,704.5 C 207.586,704.62 208.253,705.287 208.5,706.5C 206.484,717.992 207.817,728.992 212.5,739.5C 211.995,740.919 210.995,741.585 209.5,741.5C 205.914,729.384 204.914,717.051 206.5,704.5 Z"/></g>
<g><path style="opacity:0.165" fill="#bcbcbc" d="M 541.5,736.5 C 535.584,734.203 529.918,731.537 524.5,728.5C 524.735,727.903 525.235,727.57 526,727.5C 530.824,729.649 535.657,731.815 540.5,734C 541.252,734.671 541.586,735.504 541.5,736.5 Z"/></g>
<g><path style="opacity:0.301" fill="#b0b0b0" d="M 373.5,729.5 C 362.328,734.502 351.495,740.168 341,746.5C 339.56,747.148 338.06,747.481 336.5,747.5C 336.389,746.883 336.056,746.383 335.5,746C 347.655,739.153 359.988,732.986 372.5,727.5C 373.298,727.957 373.631,728.624 373.5,729.5 Z"/></g>
<g><path style="opacity:0.294" fill="#c0c0c0" d="M 552.5,743.5 C 553.946,742.387 555.613,742.22 557.5,743C 562.491,745.829 567.491,748.663 572.5,751.5C 573.298,751.957 573.631,752.624 573.5,753.5C 566.339,750.504 559.339,747.17 552.5,743.5 Z"/></g>
<g><path style="opacity:0.353" fill="#a8a8a8" d="M 237.5,770.5 C 234.538,770.045 231.871,768.879 229.5,767C 223.315,761.48 217.815,755.313 213,748.5C 211.991,746.975 211.491,745.308 211.5,743.5C 211.811,742.522 212.478,741.855 213.5,741.5C 214.482,745.626 216.315,749.292 219,752.5C 223.251,756.642 227.418,760.808 231.5,765C 233.345,766.128 235.345,766.628 237.5,766.5C 237.5,767.833 237.5,769.167 237.5,770.5 Z"/></g>
<g><path style="opacity:0.228" fill="#bdbdbd" d="M 677.5,757.5 C 675.5,760.167 673.167,762.5 670.5,764.5C 669.448,764.649 668.448,764.483 667.5,764C 671.306,761.527 674.473,758.361 677,754.5C 677.483,755.448 677.649,756.448 677.5,757.5 Z"/></g>
<g><path style="opacity:0.09" fill="#bdbdbd" d="M 314.5,760.5 C 307.905,763.013 301.571,766.013 295.5,769.5C 295.511,767.983 296.177,766.816 297.5,766C 302.793,763.687 307.793,760.854 312.5,757.5C 313.919,758.005 314.585,759.005 314.5,760.5 Z"/></g>
<g><path style="opacity:0.844" fill="#b1b1b1" d="M 658.5,772.5 C 644.14,778.586 629.474,779.586 614.5,775.5C 614.47,774.503 614.97,773.836 616,773.5C 629.426,776.599 642.593,775.932 655.5,771.5C 656.726,771.52 657.726,771.853 658.5,772.5 Z"/></g>
<g><path style="opacity:0.047" fill="#acacac" d="M 284.5,774.5 C 278.459,777.027 271.959,778.027 265,777.5C 260.5,777.333 256,777.167 251.5,777C 249.111,776.261 247.111,775.095 245.5,773.5C 257.291,776.491 268.957,776.157 280.5,772.5C 282.355,772.34 283.688,773.007 284.5,774.5 Z"/></g>
</svg>
