<?xml version="1.0" encoding="UTF-8"?>
<!DOCTYPE svg PUBLIC "-//W3C//DTD SVG 1.1//EN" "http://www.w3.org/Graphics/SVG/1.1/DTD/svg11.dtd">
<svg xmlns="http://www.w3.org/2000/svg" version="1.1" width="900px" height="900px" style="shape-rendering:geometricPrecision; text-rendering:geometricPrecision; image-rendering:optimizeQuality; fill-rule:evenodd; clip-rule:evenodd" xmlns:xlink="http://www.w3.org/1999/xlink">
<g><path style="opacity:0.967" fill="#4a4a4a" d="M 446.5,91.5 C 463.091,92.1048 477.758,97.6048 490.5,108C 493.442,111.369 496.276,114.869 499,118.5C 525.304,171.609 551.471,224.776 577.5,278C 578.828,280.167 580.494,282 582.5,283.5C 605.823,286.817 628.823,290.65 651.5,295C 689.224,299.553 726.891,304.887 764.5,311C 796.946,323.693 810.446,347.526 805,382.5C 802.439,391.715 798.272,400.048 792.5,407.5C 749.527,449.473 706.527,491.473 663.5,533.5C 662.348,536.106 662.182,538.773 663,541.5C 671.925,592.789 680.925,644.122 690,695.5C 697.678,723.751 690.844,747.417 669.5,766.5C 649.751,779.479 629.085,781.312 607.5,772C 555.097,744.03 502.43,716.53 449.5,689.5C 394.532,718.304 339.532,746.804 284.5,775C 264.877,780.566 246.544,777.899 229.5,767C 218.519,758.198 211.186,747.032 207.5,733.5C 206.624,728.697 205.957,723.863 205.5,719C 209.2,696.139 212.7,673.306 216,650.5C 222.477,617.337 228.477,584.003 234,550.5C 234.926,544.846 235.259,539.18 235,533.5C 192.027,491.527 149.027,449.527 106,407.5C 93.7304,391.94 89.3971,374.273 93,354.5C 98.4515,334.086 110.951,319.92 130.5,312C 148.59,309.058 166.59,306.058 184.5,303C 228.965,297.587 272.965,291.087 316.5,283.5C 319.103,281.141 321.103,278.307 322.5,275C 347.773,222.153 373.607,169.653 400,117.5C 411.11,102.209 426.276,94.0427 445.5,93C 446.056,92.6174 446.389,92.1174 446.5,91.5 Z M 445.5,145.5 C 450.395,144.575 453.895,146.242 456,150.5C 481.372,201.648 506.539,252.815 531.5,304C 540.107,320.514 553.44,331.181 571.5,336C 631.146,343.881 690.646,352.714 750,362.5C 750.95,363.022 751.784,363.689 752.5,364.5C 753.833,367.167 753.833,369.833 752.5,372.5C 709.768,413.734 667.268,455.067 625,496.5C 611.586,512.586 607.086,531.086 611.5,552C 620.544,604.519 629.711,657.019 639,709.5C 639.667,713.833 639.667,718.167 639,722.5C 636.421,724.347 633.588,724.847 630.5,724C 579.885,697.687 529.385,671.187 479,644.5C 469.536,639.656 459.536,636.989 449,636.5C 439.091,637.162 429.591,639.662 420.5,644C 370.558,670.874 320.391,697.374 270,723.5C 264.406,725.969 260.573,724.469 258.5,719C 267.564,661.62 277.23,604.454 287.5,547.5C 290.268,528.809 285.934,512.142 274.5,497.5C 231.434,455.933 188.601,414.266 146,372.5C 145.333,369.833 145.333,367.167 146,364.5C 146.388,363.572 147.055,362.905 148,362.5C 207.229,352.903 266.729,344.07 326.5,336C 343.547,331.6 356.547,321.933 365.5,307C 392.011,253.07 418.678,199.237 445.5,145.5 Z"/></g>
</svg>
