<?xml version="1.0" encoding="UTF-8"?>
<!DOCTYPE svg PUBLIC "-//W3C//DTD SVG 1.1//EN" "http://www.w3.org/Graphics/SVG/1.1/DTD/svg11.dtd">
<svg xmlns="http://www.w3.org/2000/svg" version="1.1" width="512px" height="512px" style="shape-rendering:geometricPrecision; text-rendering:geometricPrecision; image-rendering:optimizeQuality; fill-rule:evenodd; clip-rule:evenodd" xmlns:xlink="http://www.w3.org/1999/xlink">
<g><path style="opacity:0.993" fill="#000000" d="M 511.5,197.5 C 511.5,203.167 511.5,208.833 511.5,214.5C 510.192,219.456 508.025,224.123 505,228.5C 472.307,260.193 439.974,292.193 408,324.5C 406.566,328.406 406.233,332.406 407,336.5C 414.33,379.312 421.496,422.145 428.5,465C 425.418,487.415 412.584,499.581 390,501.5C 385.012,500.969 380.178,499.802 375.5,498C 339.5,479 303.5,460 267.5,441C 263.683,439.005 259.683,437.505 255.5,436.5C 251.317,437.505 247.317,439.005 243.5,441C 207.5,460 171.5,479 135.5,498C 111.308,505.386 94.1412,497.553 84,474.5C 83.5931,471.318 83.0931,468.151 82.5,465C 89.2876,422.107 96.4543,379.274 104,336.5C 104.767,332.406 104.434,328.406 103,324.5C 71.026,292.193 38.6927,260.193 6,228.5C 2.97481,224.123 0.80814,219.456 -0.5,214.5C -0.5,208.833 -0.5,203.167 -0.5,197.5C 3.65168,183.183 12.985,174.016 27.5,170C 68.486,163.907 109.486,157.907 150.5,152C 156.329,151.95 161.162,149.783 165,145.5C 185.426,104.313 206.093,63.3134 227,22.5C 243.301,7.19193 260.801,5.69193 279.5,18C 282.372,20.5366 284.872,23.3699 287,26.5C 306.395,66.2901 326.062,105.957 346,145.5C 350.021,149.399 354.855,151.566 360.5,152C 401.514,157.907 442.514,163.907 483.5,170C 498.015,174.016 507.348,183.183 511.5,197.5 Z"/></g>
</svg>
