<?xml version="1.0" encoding="UTF-8"?>
<!DOCTYPE svg PUBLIC "-//W3C//DTD SVG 1.1//EN" "http://www.w3.org/Graphics/SVG/1.1/DTD/svg11.dtd">
<svg xmlns="http://www.w3.org/2000/svg" version="1.1" width="900px" height="900px" style="shape-rendering:geometricPrecision; text-rendering:geometricPrecision; image-rendering:optimizeQuality; fill-rule:evenodd; clip-rule:evenodd" xmlns:xlink="http://www.w3.org/1999/xlink">
<g><path style="opacity:0.02" fill="#626262" d="M 451.5,174.5 C 449.737,176.994 448.403,180.328 447.5,184.5C 444.269,188.949 439.935,191.616 434.5,192.5C 430.969,191.77 427.303,191.104 423.5,190.5C 422.817,190.863 422.15,191.196 421.5,191.5C 407.057,183.5 403.724,172.167 411.5,157.5C 412.117,157.611 412.617,157.944 413,158.5C 415.491,155.168 418.658,152.668 422.5,151C 421.944,150.617 421.611,150.117 421.5,149.5C 442.074,145.768 452.074,154.101 451.5,174.5 Z"/></g>
<g><path style="opacity:0.016" fill="#333333" d="M 421.5,149.5 C 421.611,150.117 421.944,150.617 422.5,151C 418.658,152.668 415.491,155.168 413,158.5C 412.617,157.944 412.117,157.611 411.5,157.5C 413.943,153.724 417.276,151.057 421.5,149.5 Z"/></g>
<g><path style="opacity:0.012" fill="#373737" d="M 451.5,174.5 C 451.928,178.342 450.595,181.676 447.5,184.5C 448.403,180.328 449.737,176.994 451.5,174.5 Z"/></g>
<g><path style="opacity:0.012" fill="#2d2d2d" d="M 434.5,192.5 C 430.088,193.742 425.754,193.409 421.5,191.5C 422.15,191.196 422.817,190.863 423.5,190.5C 427.303,191.104 430.969,191.77 434.5,192.5 Z"/></g>
<g><path style="opacity:0.985" fill="#4a4a4a" d="M 274.5,781.5 C 273.415,779.413 271.749,778.08 269.5,777.5C 267.161,775.351 265.161,772.851 263.5,770C 262.075,765.132 260.575,760.299 259,755.5C 260.32,731.899 260.82,708.232 260.5,684.5C 232.597,686.694 207.263,679.861 184.5,664C 167.963,649.765 157.463,631.932 153,610.5C 151.864,554.681 151.364,498.848 151.5,443C 151.364,387.152 151.864,331.319 153,275.5C 162.461,235.04 187.627,210.874 228.5,203C 235.132,202.057 241.798,201.557 248.5,201.5C 393.816,201.987 539.149,202.153 684.5,202C 729.256,207.431 757.09,231.931 768,275.5C 769.636,382.486 769.97,489.486 769,596.5C 767.392,632.568 750.558,658.735 718.5,675C 707.612,679.645 696.279,682.645 684.5,684C 609.967,684.76 535.3,684.593 460.5,683.5C 450.182,684.234 439.848,684.734 429.5,685C 386.322,716.756 343.322,748.756 300.5,781C 293.533,784.334 286.2,785.334 278.5,784C 276.68,783.8 275.347,782.966 274.5,781.5 Z M 238.5,249.5 C 386.5,249.333 534.5,249.5 682.5,250C 701.366,256.534 713.866,269.367 720,288.5C 720.667,391.5 720.667,494.5 720,597.5C 713.866,616.633 701.366,629.466 682.5,636C 592.474,636.018 502.474,636.684 412.5,638C 378.667,663.167 344.833,688.333 311,713.5C 310.667,700.167 310.333,686.833 310,673.5C 309.084,663.116 308.084,652.783 307,642.5C 303.888,639.194 300.055,637.361 295.5,637C 276.5,636.667 257.5,636.333 238.5,636C 219.634,629.466 207.134,616.633 201,597.5C 200.333,494.5 200.333,391.5 201,288.5C 207.32,269.35 219.82,256.35 238.5,249.5 Z"/></g>
<g><path style="opacity:0.004" fill="#000000" d="M 269.5,777.5 C 271.749,778.08 273.415,779.413 274.5,781.5C 272.251,780.92 270.585,779.587 269.5,777.5 Z"/></g>
</svg>
