<?xml version="1.0" encoding="UTF-8"?>
<!DOCTYPE svg PUBLIC "-//W3C//DTD SVG 1.1//EN" "http://www.w3.org/Graphics/SVG/1.1/DTD/svg11.dtd">
<svg xmlns="http://www.w3.org/2000/svg" version="1.1" width="900px" height="900px" style="shape-rendering:geometricPrecision; text-rendering:geometricPrecision; image-rendering:optimizeQuality; fill-rule:evenodd; clip-rule:evenodd" xmlns:xlink="http://www.w3.org/1999/xlink">
<g><path style="opacity:0.02" fill="#262626" d="M 425.5,148.5 C 425.289,150.424 424.623,150.757 423.5,149.5C 423.842,148.662 424.508,148.328 425.5,148.5 Z"/></g>
<g><path style="opacity:0.02" fill="#636363" d="M 425.5,148.5 C 430.697,148.091 435.697,148.758 440.5,150.5C 441.288,153.621 443.288,155.288 446.5,155.5C 447.551,156.222 448.218,157.222 448.5,158.5C 447.916,161.285 448.916,162.952 451.5,163.5C 451.5,164.167 451.5,164.833 451.5,165.5C 450.285,166.779 450.618,167.779 452.5,168.5C 452.795,170.735 452.461,172.735 451.5,174.5C 449.737,176.994 448.403,180.328 447.5,184.5C 444.269,188.949 439.935,191.616 434.5,192.5C 430.969,191.77 427.303,191.104 423.5,190.5C 422.817,190.863 422.15,191.196 421.5,191.5C 418.109,190.471 415.443,188.471 413.5,185.5C 412.62,182.738 411.454,180.071 410,177.5C 409.617,178.056 409.117,178.389 408.5,178.5C 407.656,174.901 407.323,171.234 407.5,167.5C 409.796,167.196 410.129,166.196 408.5,164.5C 408.5,164.167 408.5,163.833 408.5,163.5C 410.677,164.504 411.011,163.838 409.5,161.5C 409.733,159.938 410.4,158.605 411.5,157.5C 412.117,157.611 412.617,157.944 413,158.5C 415.491,155.168 418.658,152.668 422.5,151C 421.944,150.617 421.611,150.117 421.5,149.5C 422.167,149.5 422.833,149.5 423.5,149.5C 424.623,150.757 425.289,150.424 425.5,148.5 Z"/></g>
<g><path style="opacity:0.012" fill="#343434" d="M 440.5,150.5 C 443.109,151.443 445.109,153.11 446.5,155.5C 443.288,155.288 441.288,153.621 440.5,150.5 Z"/></g>
<g><path style="opacity:0.016" fill="#333333" d="M 421.5,149.5 C 421.611,150.117 421.944,150.617 422.5,151C 418.658,152.668 415.491,155.168 413,158.5C 412.617,157.944 412.117,157.611 411.5,157.5C 413.943,153.724 417.276,151.057 421.5,149.5 Z"/></g>
<g><path style="opacity:0.02" fill="#2d2d2d" d="M 448.5,158.5 C 449.737,159.965 450.737,161.632 451.5,163.5C 448.916,162.952 447.916,161.285 448.5,158.5 Z"/></g>
<g><path style="opacity:0.02" fill="#232323" d="M 409.5,161.5 C 411.011,163.838 410.677,164.504 408.5,163.5C 408.328,162.508 408.662,161.842 409.5,161.5 Z"/></g>
<g><path style="opacity:0.02" fill="#242424" d="M 408.5,164.5 C 410.129,166.196 409.796,167.196 407.5,167.5C 407.263,166.209 407.596,165.209 408.5,164.5 Z"/></g>
<g><path style="opacity:0.02" fill="#242424" d="M 451.5,165.5 C 452.404,166.209 452.737,167.209 452.5,168.5C 450.618,167.779 450.285,166.779 451.5,165.5 Z"/></g>
<g><path style="opacity:0.02" fill="#383838" d="M 413.5,185.5 C 411.478,183.469 409.811,181.135 408.5,178.5C 409.117,178.389 409.617,178.056 410,177.5C 411.454,180.071 412.62,182.738 413.5,185.5 Z"/></g>
<g><path style="opacity:0.012" fill="#373737" d="M 451.5,174.5 C 451.928,178.342 450.595,181.676 447.5,184.5C 448.403,180.328 449.737,176.994 451.5,174.5 Z"/></g>
<g><path style="opacity:0.012" fill="#2d2d2d" d="M 434.5,192.5 C 430.088,193.742 425.754,193.409 421.5,191.5C 422.15,191.196 422.817,190.863 423.5,190.5C 427.303,191.104 430.969,191.77 434.5,192.5 Z"/></g>
<g><path style="opacity:0.99" fill="#fefefe" d="M 234.5,211.5 C 386.834,211.333 539.167,211.5 691.5,212C 734.024,219.525 759.858,244.359 769,286.5C 769.667,393.833 769.667,501.167 769,608.5C 759.837,650.663 734.003,675.497 691.5,683C 603.833,683.333 516.167,683.667 428.5,684C 388.124,715.375 347.457,746.375 306.5,777C 293.887,781.135 284.72,777.302 279,765.5C 278.312,738.169 277.812,710.836 277.5,683.5C 261.815,683.771 246.148,683.438 230.5,682.5C 190.101,673.601 165.601,648.935 157,608.5C 156.333,501.167 156.333,393.833 157,286.5C 166.319,244.346 192.152,219.346 234.5,211.5 Z"/></g>
</svg>
