<?xml version="1.0" encoding="UTF-8"?>
<!DOCTYPE svg PUBLIC "-//W3C//DTD SVG 1.1//EN" "http://www.w3.org/Graphics/SVG/1.1/DTD/svg11.dtd">
<svg xmlns="http://www.w3.org/2000/svg" version="1.1" width="900px" height="900px" style="shape-rendering:geometricPrecision; text-rendering:geometricPrecision; image-rendering:optimizeQuality; fill-rule:evenodd; clip-rule:evenodd" xmlns:xlink="http://www.w3.org/1999/xlink">
<g><path style="opacity:0.982" fill="#060606" d="M 429.5,86.5 C 542.164,83.1122 637.331,121.779 715,202.5C 775.798,271.497 807.631,352.33 810.5,445C 808.527,549.213 770.193,637.88 695.5,711C 630.294,769.431 553.627,801.431 465.5,807C 355.12,809.664 261.62,771.497 185,692.5C 113.894,611.846 82.7271,517.68 91.5,410C 103.911,304.171 152.578,219.171 237.5,155C 295.296,115.011 359.296,92.1775 429.5,86.5 Z M 421.5,135.5 C 422.833,135.5 424.167,135.5 425.5,135.5C 428.154,142.93 429.988,150.597 431,158.5C 435.227,172.625 443.56,183.625 456,191.5C 483.14,200.56 504.473,193.226 520,169.5C 522.971,162.283 525.638,154.95 528,147.5C 528.519,146.484 529.353,145.818 530.5,145.5C 542.612,148.592 554.279,152.758 565.5,158C 554.137,169.293 543.137,180.793 532.5,192.5C 524.669,203.469 523.502,215.135 529,227.5C 535.652,239.224 544.485,248.891 555.5,256.5C 561.881,260.511 568.881,262.178 576.5,261.5C 580.531,261.432 584.531,261.099 588.5,260.5C 597.919,256.694 607.253,252.694 616.5,248.5C 626.922,247.634 637.089,249.301 647,253.5C 662.011,257.376 675.845,255.043 688.5,246.5C 712.92,275.315 731.587,307.648 744.5,343.5C 731.519,345.764 718.519,345.931 705.5,344C 689.495,337.665 673.162,332.332 656.5,328C 636.108,324.207 617.775,328.541 601.5,341C 589.027,351.873 579.36,364.873 572.5,380C 570.302,386.227 567.969,392.393 565.5,398.5C 564.754,403.672 563.587,408.672 562,413.5C 560.745,425.118 561.912,436.451 565.5,447.5C 570.09,454.426 575.756,460.426 582.5,465.5C 596.423,473.956 610.423,482.123 624.5,490C 635.657,494.481 646.824,498.981 658,503.5C 663.259,506.95 666.925,511.617 669,517.5C 669.667,524.833 669.667,532.167 669,539.5C 665.001,551.802 660.834,564.135 656.5,576.5C 649.595,595.961 650.595,614.961 659.5,633.5C 665.339,642.505 672.672,650.005 681.5,656C 592.877,747.883 486.877,778.216 363.5,747C 270.118,717.62 202.951,658.453 162,569.5C 135.914,506.042 130.581,441.042 146,374.5C 148.211,364.536 151.211,354.869 155,345.5C 177.763,374.093 204.263,398.76 234.5,419.5C 235.951,423.695 236.618,428.029 236.5,432.5C 232.109,455.529 236.943,476.195 251,494.5C 257.427,501.65 264.093,508.65 271,515.5C 274.139,519.541 276.805,523.875 279,528.5C 280.031,533.099 280.531,537.765 280.5,542.5C 276.855,562.907 279.689,582.241 289,600.5C 296.858,610.7 304.358,621.2 311.5,632C 315.169,644.153 317.336,656.653 318,669.5C 321.267,684.987 329.433,697.153 342.5,706C 367.27,714.855 385.104,707.355 396,683.5C 399.748,671.138 401.914,658.471 402.5,645.5C 403.053,640.004 404.887,635.004 408,630.5C 416.226,627.457 424.393,624.29 432.5,621C 442.176,614.314 446.843,604.981 446.5,593C 445.321,584.096 443.654,575.262 441.5,566.5C 443.822,559.034 447.822,552.534 453.5,547C 470.743,532.356 488.076,517.69 505.5,503C 519.98,486.993 523.647,468.66 516.5,448C 504.635,422.811 485.135,406.978 458,400.5C 441.236,398.731 426.402,403.231 413.5,414C 408.318,416.494 404.151,415.327 401,410.5C 396.117,398.648 390.783,386.981 385,375.5C 377.127,364.97 366.96,357.47 354.5,353C 337.849,350 321.182,347 304.5,344C 293.3,340.535 282.633,335.868 272.5,330C 267.254,325.888 262.254,321.555 257.5,317C 257.759,315.739 258.426,314.739 259.5,314C 264.287,312.517 268.954,310.85 273.5,309C 284.512,308.315 295.512,308.482 306.5,309.5C 314.34,309.332 321.84,307.665 329,304.5C 336.357,299.135 343.69,293.801 351,288.5C 354.457,287.341 357.957,286.341 361.5,285.5C 373.246,285.035 384.579,282.868 395.5,279C 405.276,273.545 411.776,265.379 415,254.5C 418.07,244.711 419.07,234.711 418,224.5C 416.401,214.185 413.901,204.018 410.5,194C 403.389,176.158 396.389,158.325 389.5,140.5C 400.224,138.33 410.89,136.664 421.5,135.5 Z"/></g>
</svg>
