<?xml version="1.0" encoding="UTF-8"?>
<!DOCTYPE svg PUBLIC "-//W3C//DTD SVG 1.1//EN" "http://www.w3.org/Graphics/SVG/1.1/DTD/svg11.dtd">
<svg xmlns="http://www.w3.org/2000/svg" version="1.1" width="900px" height="900px" style="shape-rendering:geometricPrecision; text-rendering:geometricPrecision; image-rendering:optimizeQuality; fill-rule:evenodd; clip-rule:evenodd" xmlns:xlink="http://www.w3.org/1999/xlink">
<g><path style="opacity:0.994" fill="#4a4a4a" d="M 427.5,115.5 C 510.528,110.267 572.362,143.267 613,214.5C 638.083,268.177 638.749,322.177 615,376.5C 606.945,392.383 597.111,407.05 585.5,420.5C 577.059,426.771 569.059,433.605 561.5,441C 504.135,483.747 442.135,491.747 375.5,465C 332.801,443.969 301.301,412.136 281,369.5C 254.391,298.826 264.724,234.492 312,176.5C 337.561,148.819 368.728,129.986 405.5,120C 413.211,118.987 420.544,117.487 427.5,115.5 Z"/></g>
<g><path style="opacity:0.995" fill="#4a4a4a" d="M 593.5,454.5 C 601.498,457.983 609.164,462.15 616.5,467C 699.4,524.324 744.9,603.824 753,705.5C 753.833,722.843 753.666,740.176 752.5,757.5C 749.75,770.414 742.083,778.58 729.5,782C 542.833,782.667 356.167,782.667 169.5,782C 156.917,778.58 149.25,770.414 146.5,757.5C 138.878,656.817 170.211,570.984 240.5,500C 257.708,484.787 276.041,471.121 295.5,459C 298.053,457.624 300.72,456.457 303.5,455.5C 315.002,464.16 326.668,472.66 338.5,481C 391.265,511.918 447.265,519.585 506.5,504C 539.622,494.297 568.622,477.797 593.5,454.5 Z"/></g>
</svg>
