<?xml version="1.0" encoding="UTF-8"?>
<!DOCTYPE svg PUBLIC "-//W3C//DTD SVG 1.1//EN" "http://www.w3.org/Graphics/SVG/1.1/DTD/svg11.dtd">
<svg xmlns="http://www.w3.org/2000/svg" version="1.1" width="900px" height="900px" style="shape-rendering:geometricPrecision; text-rendering:geometricPrecision; image-rendering:optimizeQuality; fill-rule:evenodd; clip-rule:evenodd" xmlns:xlink="http://www.w3.org/1999/xlink">
<g><path style="opacity:0.008" fill="#5e5e5e" d="M 429.5,115.5 C 429.167,116.5 428.5,117.167 427.5,117.5C 427.5,116.167 428.167,115.5 429.5,115.5 Z"/></g>
<g><path style="opacity:0.99" fill="#060606" d="M 429.5,115.5 C 501.536,111.059 558.703,137.392 601,194.5C 627.205,234.694 637.038,278.694 630.5,326.5C 624.641,361.783 609.974,392.783 586.5,419.5C 584.507,421.499 582.173,422.999 579.5,424C 530.641,472.805 472.308,489.805 404.5,475C 368.099,465.575 337.599,446.742 313,418.5C 307.457,410.72 301.457,403.387 295,396.5C 264.398,344.518 258.898,289.852 278.5,232.5C 302.238,173.925 344.571,136.425 405.5,120C 412.747,118.369 420.08,117.536 427.5,117.5C 428.5,117.167 429.167,116.5 429.5,115.5 Z"/></g>
<g><path style="opacity:0.99" fill="#060606" d="M 593.5,454.5 C 601.498,457.983 609.164,462.15 616.5,467C 699.4,524.324 744.9,603.824 753,705.5C 753.833,722.843 753.666,740.176 752.5,757.5C 749.75,770.414 742.083,778.58 729.5,782C 542.833,782.667 356.167,782.667 169.5,782C 156.917,778.58 149.25,770.414 146.5,757.5C 138.878,656.817 170.211,570.984 240.5,500C 257.708,484.787 276.041,471.121 295.5,459C 298.053,457.624 300.72,456.457 303.5,455.5C 315.002,464.16 326.668,472.66 338.5,481C 391.265,511.918 447.265,519.585 506.5,504C 539.622,494.297 568.622,477.797 593.5,454.5 Z"/></g>
</svg>
