<?xml version="1.0" encoding="UTF-8"?>
<!DOCTYPE svg PUBLIC "-//W3C//DTD SVG 1.1//EN" "http://www.w3.org/Graphics/SVG/1.1/DTD/svg11.dtd">
<svg xmlns="http://www.w3.org/2000/svg" version="1.1" width="96px" height="96px" style="shape-rendering:geometricPrecision; text-rendering:geometricPrecision; image-rendering:optimizeQuality; fill-rule:evenodd; clip-rule:evenodd" xmlns:xlink="http://www.w3.org/1999/xlink">
<g><path style="opacity:0.978" fill="#8186dc" d="M 11.5,15.5 C 35.5023,15.3334 59.5023,15.5 83.5,16C 87.0655,18.1775 87.3988,20.8442 84.5,24C 72.2983,31.6986 59.965,39.1986 47.5,46.5C 34.8333,38.8333 22.1667,31.1667 9.5,23.5C 7.83605,20.0901 8.50272,17.4234 11.5,15.5 Z"/></g>
<g><path style="opacity:0.988" fill="#8186dc" d="M 7.5,31.5 C 8.87344,31.3433 10.2068,31.51 11.5,32C 23.3318,39.7503 35.3318,47.2503 47.5,54.5C 59.0022,47.5833 70.3355,40.4166 81.5,33C 83.3453,31.872 85.3453,31.372 87.5,31.5C 87.9682,46.9296 87.4682,62.2629 86,77.5C 85.2496,78.1258 84.4162,78.6258 83.5,79C 59.5,79.6667 35.5,79.6667 11.5,79C 10.5838,78.6258 9.75044,78.1258 9,77.5C 7.53185,62.2629 7.03185,46.9296 7.5,31.5 Z"/></g>
</svg>
