<?xml version="1.0" encoding="UTF-8"?>
<!DOCTYPE svg PUBLIC "-//W3C//DTD SVG 1.1//EN" "http://www.w3.org/Graphics/SVG/1.1/DTD/svg11.dtd">
<svg xmlns="http://www.w3.org/2000/svg" version="1.1" width="900px" height="900px" style="shape-rendering:geometricPrecision; text-rendering:geometricPrecision; image-rendering:optimizeQuality; fill-rule:evenodd; clip-rule:evenodd" xmlns:xlink="http://www.w3.org/1999/xlink">
<g><path style="opacity:0.997" fill="#8087db" d="M 434.5,147.5 C 551.815,141.925 644.649,185.925 713,279.5C 763.365,358.029 776.699,442.696 753,533.5C 720.604,634.313 654.437,702.48 554.5,738C 443.512,769.143 344.512,747.476 257.5,673C 178.445,596.333 147.445,502.833 164.5,392.5C 184.123,302.808 232.79,234.308 310.5,187C 317.626,183.603 324.626,179.937 331.5,176C 350.233,167.978 369.4,161.144 389,155.5C 404.321,152.864 419.488,150.197 434.5,147.5 Z"/></g>
<g><path style="opacity:1" fill="#cccff0" d="M 329.5,338.5 C 334.985,337.348 340.651,337.182 346.5,338C 348.723,338.566 350.723,339.4 352.5,340.5C 344.937,338.862 337.27,338.195 329.5,338.5 Z"/></g>
<g><path style="opacity:1" fill="#fefefe" d="M 329.5,338.5 C 337.27,338.195 344.937,338.862 352.5,340.5C 363.415,345.744 370.748,354.078 374.5,365.5C 375.275,370.797 375.608,376.13 375.5,381.5C 371.927,394.407 364.26,404.074 352.5,410.5C 343.455,412.968 334.455,412.968 325.5,410.5C 314.134,406.468 306.468,398.801 302.5,387.5C 300.885,378.072 301.218,368.738 303.5,359.5C 306.033,354.786 309.2,350.453 313,346.5C 315.052,344.942 317.219,343.608 319.5,342.5C 323.149,341.733 326.482,340.4 329.5,338.5 Z"/></g>
<g><path style="opacity:1" fill="#fdfdfe" d="M 620.5,361.5 C 622.297,368.686 622.963,376.02 622.5,383.5C 618.706,398.961 609.039,408.295 593.5,411.5C 587.5,412.833 581.5,412.833 575.5,411.5C 561.651,406.984 552.984,397.65 549.5,383.5C 549.5,377.5 549.5,371.5 549.5,365.5C 557.895,341.969 574.228,333.469 598.5,340C 608.986,343.987 616.32,351.154 620.5,361.5 Z"/></g>
<g><path style="opacity:1" fill="#caccef" d="M 329.5,338.5 C 326.482,340.4 323.149,341.733 319.5,342.5C 322.309,340.103 325.642,338.77 329.5,338.5 Z"/></g>
<g><path style="opacity:1" fill="#d2d4f2" d="M 303.5,359.5 C 301.218,368.738 300.885,378.072 302.5,387.5C 300.983,383.44 300.316,379.107 300.5,374.5C 300.061,369.08 301.061,364.08 303.5,359.5 Z"/></g>
<g><path style="opacity:1" fill="#d2d4f2" d="M 620.5,361.5 C 621.966,362.347 622.8,363.68 623,365.5C 623.819,371.681 623.653,377.681 622.5,383.5C 622.963,376.02 622.297,368.686 620.5,361.5 Z"/></g>
<g><path style="opacity:1" fill="#a9aee6" d="M 374.5,365.5 C 376.006,368.356 376.672,371.523 376.5,375C 376.496,377.361 376.163,379.527 375.5,381.5C 375.608,376.13 375.275,370.797 374.5,365.5 Z"/></g>
<g><path style="opacity:1" fill="#cccef0" d="M 549.5,365.5 C 549.5,371.5 549.5,377.5 549.5,383.5C 548.087,380.618 547.421,377.451 547.5,374C 547.36,370.85 548.027,368.017 549.5,365.5 Z"/></g>
<g><path style="opacity:1" fill="#afb3e8" d="M 325.5,410.5 C 334.455,412.968 343.455,412.968 352.5,410.5C 347.898,412.866 342.898,413.866 337.5,413.5C 334.833,413.333 332.167,413.167 329.5,413C 327.68,412.8 326.347,411.966 325.5,410.5 Z"/></g>
<g><path style="opacity:1" fill="#b9bceb" d="M 575.5,411.5 C 581.5,412.833 587.5,412.833 593.5,411.5C 593.082,412.222 592.416,412.722 591.5,413C 586.833,413.667 582.167,413.667 577.5,413C 576.584,412.722 575.918,412.222 575.5,411.5 Z"/></g>
<g><path style="opacity:1" fill="#b4b8e9" d="M 327.5,514.5 C 321.707,512.933 316.041,513.267 310.5,515.5C 311.058,514.21 312.058,513.377 313.5,513C 315.333,512.833 317.167,512.667 319,512.5C 322.15,512.36 324.983,513.027 327.5,514.5 Z"/></g>
<g><path style="opacity:1" fill="#fdfdfe" d="M 327.5,514.5 C 330.725,516.213 333.559,518.546 336,521.5C 352.292,551.629 376.459,572.629 408.5,584.5C 408.611,585.117 408.944,585.617 409.5,586C 413.07,587.31 416.737,588.143 420.5,588.5C 421.209,589.404 422.209,589.737 423.5,589.5C 424.681,591.067 426.347,591.901 428.5,592C 435.446,593.35 442.446,594.183 449.5,594.5C 460.172,594.667 470.839,594.5 481.5,594C 483.708,593.809 485.708,593.309 487.5,592.5C 531.917,584.244 565.417,560.577 588,521.5C 596.234,512.655 605.734,511.155 616.5,517C 618.439,518.432 619.772,520.265 620.5,522.5C 621.811,527.061 622.478,531.728 622.5,536.5C 603.17,572.833 574.837,599.499 537.5,616.5C 533.605,617.462 529.939,618.796 526.5,620.5C 509.879,626.758 492.546,630.424 474.5,631.5C 459.758,631.969 445.092,631.302 430.5,629.5C 418.609,627.389 406.943,624.389 395.5,620.5C 393.967,618.755 391.967,617.755 389.5,617.5C 350.559,600.891 321.226,573.891 301.5,536.5C 301.467,532.131 301.8,527.798 302.5,523.5C 304.145,519.855 306.812,517.188 310.5,515.5C 316.041,513.267 321.707,512.933 327.5,514.5 Z"/></g>
<g><path style="opacity:1" fill="#c7caef" d="M 302.5,523.5 C 301.8,527.798 301.467,532.131 301.5,536.5C 300.84,535.036 300.507,533.369 300.5,531.5C 300.382,528.514 301.048,525.848 302.5,523.5 Z"/></g>
<g><path style="opacity:1" fill="#cacdef" d="M 620.5,522.5 C 621.966,523.347 622.8,524.68 623,526.5C 623.808,530.027 623.641,533.36 622.5,536.5C 622.478,531.728 621.811,527.061 620.5,522.5 Z"/></g>
<g><path style="opacity:1" fill="#acb0e7" d="M 408.5,584.5 C 412.735,585.467 416.735,586.8 420.5,588.5C 416.737,588.143 413.07,587.31 409.5,586C 408.944,585.617 408.611,585.117 408.5,584.5 Z"/></g>
<g><path style="opacity:1" fill="#c3c5ed" d="M 423.5,589.5 C 432.057,591.484 440.723,592.818 449.5,593.5C 449.5,593.833 449.5,594.167 449.5,594.5C 442.446,594.183 435.446,593.35 428.5,592C 426.347,591.901 424.681,591.067 423.5,589.5 Z"/></g>
<g><path style="opacity:1" fill="#a5a9e5" d="M 487.5,592.5 C 485.708,593.309 483.708,593.809 481.5,594C 470.839,594.5 460.172,594.667 449.5,594.5C 449.5,594.167 449.5,593.833 449.5,593.5C 462.179,593.525 474.845,593.192 487.5,592.5 Z"/></g>
<g><path style="opacity:1" fill="#b3b7e9" d="M 537.5,616.5 C 534.374,618.99 530.708,620.323 526.5,620.5C 529.939,618.796 533.605,617.462 537.5,616.5 Z"/></g>
<g><path style="opacity:1" fill="#c1c5ed" d="M 389.5,617.5 C 391.967,617.755 393.967,618.755 395.5,620.5C 393.033,620.245 391.033,619.245 389.5,617.5 Z"/></g>
<g><path style="opacity:1" fill="#b0b3e8" d="M 430.5,629.5 C 445.092,631.302 459.758,631.969 474.5,631.5C 463.007,632.659 451.341,632.826 439.5,632C 436.008,632.07 433.008,631.237 430.5,629.5 Z"/></g>
</svg>
