<?xml version="1.0" encoding="UTF-8"?>
<!DOCTYPE svg PUBLIC "-//W3C//DTD SVG 1.1//EN" "http://www.w3.org/Graphics/SVG/1.1/DTD/svg11.dtd">
<svg xmlns="http://www.w3.org/2000/svg" version="1.1" width="900px" height="900px" style="shape-rendering:geometricPrecision; text-rendering:geometricPrecision; image-rendering:optimizeQuality; fill-rule:evenodd; clip-rule:evenodd" xmlns:xlink="http://www.w3.org/1999/xlink">
<g><path style="opacity:0.485" fill="#8186b9" d="M 500.5,150.5 C 474.82,148.121 449.153,148.121 423.5,150.5C 426.701,148.74 430.367,147.906 434.5,148C 456.19,147.136 477.857,147.47 499.5,149C 500.056,149.383 500.389,149.883 500.5,150.5 Z"/></g>
<g><path style="opacity:1" fill="#6e77d1" d="M 500.5,150.5 C 511.134,152.519 521.801,154.686 532.5,157C 547.412,160.892 562.079,165.392 576.5,170.5C 608.513,185.016 637.846,203.849 664.5,227C 675.09,237.422 685.423,247.922 695.5,258.5C 704.816,271.844 713.816,285.51 722.5,299.5C 722.957,300.298 723.624,300.631 724.5,300.5C 725.367,303.908 726.533,307.242 728,310.5C 734.058,321.282 739.558,332.282 744.5,343.5C 744.5,343.833 744.5,344.167 744.5,344.5C 746.095,349.452 747.595,354.452 749,359.5C 749.383,360.056 749.883,360.389 750.5,360.5C 752.685,371.963 755.185,383.296 758,394.5C 763.794,432.846 763.627,471.179 757.5,509.5C 757.5,509.833 757.5,510.167 757.5,510.5C 754.1,519.097 751.766,528.097 750.5,537.5C 750.5,537.833 750.5,538.167 750.5,538.5C 749.21,539.058 748.377,540.058 748,541.5C 746.673,545.809 745.506,550.142 744.5,554.5C 739.119,564.778 734.286,575.444 730,586.5C 722.042,600.929 713.542,614.929 704.5,628.5C 671.527,671.344 630.193,703.677 580.5,725.5C 579.702,725.957 579.369,726.624 579.5,727.5C 578.791,728.404 577.791,728.737 576.5,728.5C 564.5,733.166 552.167,736.832 539.5,739.5C 538.287,739.747 537.62,740.414 537.5,741.5C 524.941,743.313 512.608,745.646 500.5,748.5C 474.831,751.147 449.165,751.147 423.5,748.5C 420.391,748.736 417.391,748.403 414.5,747.5C 414.389,746.883 414.056,746.383 413.5,746C 404.456,744.691 395.456,743.191 386.5,741.5C 386.167,741.5 385.833,741.5 385.5,741.5C 385.389,740.883 385.056,740.383 384.5,740C 371.787,737.241 359.453,733.408 347.5,728.5C 347.167,728.5 346.833,728.5 346.5,728.5C 346.047,727.542 345.381,726.708 344.5,726C 340.156,724.493 335.822,722.993 331.5,721.5C 331.167,721.5 330.833,721.5 330.5,721.5C 330.631,720.624 330.298,719.957 329.5,719.5C 316.032,713.269 303.365,705.769 291.5,697C 289.975,695.991 288.308,695.491 286.5,695.5C 286.5,695.167 286.5,694.833 286.5,694.5C 275.215,685.885 264.215,676.885 253.5,667.5C 244.164,657.329 234.997,646.996 226,636.5C 215.088,621.455 205.088,605.788 196,589.5C 195.329,588.748 194.496,588.414 193.5,588.5C 193.5,588.167 193.5,587.833 193.5,587.5C 192.639,582.557 190.639,578.224 187.5,574.5C 182.565,561.528 177.732,548.528 173,535.5C 172.042,526.988 169.876,518.988 166.5,511.5C 166.5,510.833 166.5,510.167 166.5,509.5C 160.08,469.48 160.08,429.48 166.5,389.5C 167.117,389.389 167.617,389.056 168,388.5C 170.194,375.193 173.527,362.193 178,349.5C 182.927,336.658 188.094,323.992 193.5,311.5C 194.376,311.631 195.043,311.298 195.5,310.5C 201.005,299.482 207.005,288.816 213.5,278.5C 237.407,246.094 266.074,218.594 299.5,196C 309.308,190.261 319.308,184.761 329.5,179.5C 330.298,179.043 330.631,178.376 330.5,177.5C 331.873,177.657 333.207,177.49 334.5,177C 338.778,175.096 342.778,172.929 346.5,170.5C 346.833,170.5 347.167,170.5 347.5,170.5C 353.474,169.092 359.141,166.925 364.5,164C 383.694,158.398 403.027,153.898 422.5,150.5C 422.833,150.5 423.167,150.5 423.5,150.5C 449.153,148.121 474.82,148.121 500.5,150.5 Z"/></g>
<g><path style="opacity:0.816" fill="#7f85bc" d="M 422.5,150.5 C 403.027,153.898 383.694,158.398 364.5,164C 359.141,166.925 353.474,169.092 347.5,170.5C 347.577,169.25 348.244,168.417 349.5,168C 362.376,163.042 375.543,158.875 389,155.5C 400.056,153.04 411.223,151.373 422.5,150.5 Z"/></g>
<g><path style="opacity:0.529" fill="#8186b9" d="M 500.5,150.5 C 526.2,152.983 551.033,158.983 575,168.5C 576.03,168.836 576.53,169.503 576.5,170.5C 562.079,165.392 547.412,160.892 532.5,157C 521.801,154.686 511.134,152.519 500.5,150.5 Z"/></g>
<g><path style="opacity:0.682" fill="#8388ba" d="M 346.5,170.5 C 342.778,172.929 338.778,175.096 334.5,177C 333.207,177.49 331.873,177.657 330.5,177.5C 335.39,174.415 340.724,172.082 346.5,170.5 Z"/></g>
<g><path style="opacity:0.694" fill="#8387b9" d="M 576.5,170.5 C 586.6,173.547 596.266,177.714 605.5,183C 639.548,201.4 669.048,225.233 694,254.5C 694.791,255.745 695.291,257.078 695.5,258.5C 685.423,247.922 675.09,237.422 664.5,227C 637.846,203.849 608.513,185.016 576.5,170.5 Z"/></g>
<g><path style="opacity:0.392" fill="#8287b8" d="M 330.5,177.5 C 330.631,178.376 330.298,179.043 329.5,179.5C 319.308,184.761 309.308,190.261 299.5,196C 266.074,218.594 237.407,246.094 213.5,278.5C 214.128,275.91 215.295,273.577 217,271.5C 221.587,265.975 225.921,260.308 230,254.5C 249.929,231.914 272.429,212.081 297.5,195C 308.196,188.651 319.196,182.818 330.5,177.5 Z"/></g>
<g><path style="opacity:0.2" fill="#8689bc" d="M 695.5,258.5 C 696.815,259.476 698.148,260.476 699.5,261.5C 703.634,267.805 708.134,273.805 713,279.5C 717.366,286.234 721.199,293.234 724.5,300.5C 723.624,300.631 722.957,300.298 722.5,299.5C 713.816,285.51 704.816,271.844 695.5,258.5 Z"/></g>
<g><path style="opacity:0.545" fill="#8287b6" d="M 213.5,278.5 C 207.005,288.816 201.005,299.482 195.5,310.5C 195.043,311.298 194.376,311.631 193.5,311.5C 198.439,299.26 205.105,288.26 213.5,278.5 Z"/></g>
<g><path style="opacity:0.071" fill="#8387b8" d="M 724.5,300.5 C 725.497,300.47 726.164,300.97 726.5,302C 731.109,310.552 735.443,319.218 739.5,328C 741.673,333.02 743.34,338.186 744.5,343.5C 739.558,332.282 734.058,321.282 728,310.5C 726.533,307.242 725.367,303.908 724.5,300.5 Z"/></g>
<g><path style="opacity:1" fill="#fefefe" d="M 336.5,321.5 C 364.512,318.729 383.346,330.395 393,356.5C 397.539,385.602 386.039,405.102 358.5,415C 337.984,419.496 321.151,413.663 308,397.5C 292.422,371.331 296.255,348.498 319.5,329C 325.032,325.894 330.699,323.394 336.5,321.5 Z"/></g>
<g><path style="opacity:1" fill="#fefefe" d="M 568.5,321.5 C 596.512,318.729 615.346,330.395 625,356.5C 629.539,385.602 618.039,405.102 590.5,415C 569.984,419.496 553.151,413.663 540,397.5C 524.422,371.331 528.255,348.498 551.5,329C 557.032,325.894 562.699,323.394 568.5,321.5 Z"/></g>
<g><path style="opacity:0.6" fill="#8388bc" d="M 193.5,311.5 C 188.094,323.992 182.927,336.658 178,349.5C 173.527,362.193 170.194,375.193 168,388.5C 167.617,389.056 167.117,389.389 166.5,389.5C 168.282,374.705 171.782,360.371 177,346.5C 179.882,340.527 182.382,334.361 184.5,328C 187.04,322.177 190.04,316.677 193.5,311.5 Z"/></g>
<g><path style="opacity:0.596" fill="#8388ba" d="M 744.5,344.5 C 745.75,344.577 746.583,345.244 747,346.5C 748.48,351.102 749.646,355.769 750.5,360.5C 749.883,360.389 749.383,360.056 749,359.5C 747.595,354.452 746.095,349.452 744.5,344.5 Z"/></g>
<g><path style="opacity:0.682" fill="#7e83bb" d="M 750.5,360.5 C 751.793,361.842 752.626,363.509 753,365.5C 764.277,410.597 766.61,456.264 760,502.5C 759.667,504.5 759.333,506.5 759,508.5C 758.617,509.056 758.117,509.389 757.5,509.5C 763.627,471.179 763.794,432.846 758,394.5C 755.185,383.296 752.685,371.963 750.5,360.5 Z"/></g>
<g><path style="opacity:0.467" fill="#7e83bb" d="M 166.5,389.5 C 160.08,429.48 160.08,469.48 166.5,509.5C 165.883,509.389 165.383,509.056 165,508.5C 159.192,469.865 159.025,431.198 164.5,392.5C 164.64,390.97 165.307,389.97 166.5,389.5 Z"/></g>
<g><path style="opacity:1" fill="#fefefe" d="M 626.5,501.5 C 626.427,503.027 627.094,504.027 628.5,504.5C 631.541,514.015 631.041,523.349 627,532.5C 608.59,573.575 578.423,602.409 536.5,619C 526.004,622.889 515.337,626.056 504.5,628.5C 498.335,629.305 492.335,630.305 486.5,631.5C 421.095,637.538 365.595,617.205 320,570.5C 309.296,558.129 300.63,544.462 294,529.5C 291.181,519.362 292.181,509.695 297,500.5C 308.976,489.53 320.643,489.864 332,501.5C 357.162,548.938 396.662,575.438 450.5,581C 497.169,584.729 536.669,569.896 569,536.5C 573.436,530.608 577.602,524.608 581.5,518.5C 582.906,518.027 583.573,517.027 583.5,515.5C 586.015,505.96 591.348,498.46 599.5,493C 610.732,489.218 619.732,492.051 626.5,501.5 Z"/></g>
<g><path style="opacity:1" fill="#acb1e5" d="M 626.5,501.5 C 627.906,501.973 628.573,502.973 628.5,504.5C 627.094,504.027 626.427,503.027 626.5,501.5 Z"/></g>
<g><path style="opacity:1" fill="#babee8" d="M 583.5,515.5 C 583.573,517.027 582.906,518.027 581.5,518.5C 581.427,516.973 582.094,515.973 583.5,515.5 Z"/></g>
<g><path style="opacity:0.565" fill="#8286b9" d="M 757.5,510.5 C 756.579,518.269 755.079,525.936 753,533.5C 752.8,535.32 751.966,536.653 750.5,537.5C 751.766,528.097 754.1,519.097 757.5,510.5 Z"/></g>
<g><path style="opacity:0.294" fill="#8489bb" d="M 166.5,511.5 C 169.876,518.988 172.042,526.988 173,535.5C 177.732,548.528 182.565,561.528 187.5,574.5C 186.371,573.53 185.371,572.364 184.5,571C 179.904,559.978 175.737,548.811 172,537.5C 169.589,528.943 167.755,520.276 166.5,511.5 Z"/></g>
<g><path style="opacity:0.5" fill="#7f83b8" d="M 750.5,538.5 C 749.828,544.54 747.828,549.873 744.5,554.5C 745.506,550.142 746.673,545.809 748,541.5C 748.377,540.058 749.21,539.058 750.5,538.5 Z"/></g>
<g><path style="opacity:0.275" fill="#858bb5" d="M 187.5,574.5 C 190.639,578.224 192.639,582.557 193.5,587.5C 190.18,583.856 188.18,579.522 187.5,574.5 Z"/></g>
<g><path style="opacity:0.635" fill="#8488b9" d="M 744.5,554.5 C 743.546,560.197 741.879,565.697 739.5,571C 730.056,590.732 719.223,609.565 707,627.5C 706.329,628.252 705.496,628.586 704.5,628.5C 713.542,614.929 722.042,600.929 730,586.5C 734.286,575.444 739.119,564.778 744.5,554.5 Z"/></g>
<g><path style="opacity:1" fill="#9196dc" d="M 504.5,628.5 C 504.082,629.222 503.416,629.722 502.5,630C 497.207,630.977 491.874,631.477 486.5,631.5C 492.335,630.305 498.335,629.305 504.5,628.5 Z"/></g>
<g><path style="opacity:0.753" fill="#8388b9" d="M 193.5,588.5 C 194.496,588.414 195.329,588.748 196,589.5C 205.088,605.788 215.088,621.455 226,636.5C 234.997,646.996 244.164,657.329 253.5,667.5C 247.258,662.764 241.424,657.431 236,651.5C 235.667,650.5 235.333,649.5 235,648.5C 218.036,630.737 204.202,610.737 193.5,588.5 Z"/></g>
<g><path style="opacity:0.235" fill="#8388b7" d="M 704.5,628.5 C 703.291,631.721 701.624,634.721 699.5,637.5C 672.147,671.337 639.147,698.504 600.5,719C 593.695,722.406 586.695,725.239 579.5,727.5C 579.369,726.624 579.702,725.957 580.5,725.5C 630.193,703.677 671.527,671.344 704.5,628.5 Z"/></g>
<g><path style="opacity:0.573" fill="#858bb8" d="M 253.5,667.5 C 264.215,676.885 275.215,685.885 286.5,694.5C 285.448,694.649 284.448,694.483 283.5,694C 274.568,687.409 265.902,680.409 257.5,673C 255.561,671.568 254.228,669.735 253.5,667.5 Z"/></g>
<g><path style="opacity:0.106" fill="#858aba" d="M 286.5,695.5 C 288.308,695.491 289.975,695.991 291.5,697C 303.365,705.769 316.032,713.269 329.5,719.5C 330.298,719.957 330.631,720.624 330.5,721.5C 314.82,714.474 300.154,705.807 286.5,695.5 Z"/></g>
<g><path style="opacity:0.2" fill="#8186b7" d="M 331.5,721.5 C 335.822,722.993 340.156,724.493 344.5,726C 345.381,726.708 346.047,727.542 346.5,728.5C 340.961,727.109 335.961,724.776 331.5,721.5 Z"/></g>
<g><path style="opacity:0.659" fill="#8488b9" d="M 347.5,728.5 C 359.453,733.408 371.787,737.241 384.5,740C 385.056,740.383 385.389,740.883 385.5,741.5C 371.784,739.486 359.117,735.152 347.5,728.5 Z"/></g>
<g><path style="opacity:0.467" fill="#858abb" d="M 576.5,728.5 C 564.594,735.358 551.594,739.691 537.5,741.5C 537.62,740.414 538.287,739.747 539.5,739.5C 552.167,736.832 564.5,733.166 576.5,728.5 Z"/></g>
<g><path style="opacity:0.458" fill="#8287bc" d="M 537.5,741.5 C 537.209,742.649 536.376,743.316 535,743.5C 523.621,746.054 512.121,747.721 500.5,748.5C 512.608,745.646 524.941,743.313 537.5,741.5 Z"/></g>
<g><path style="opacity:0.337" fill="#8085ba" d="M 386.5,741.5 C 395.456,743.191 404.456,744.691 413.5,746C 414.056,746.383 414.389,746.883 414.5,747.5C 405.899,746.866 397.399,745.533 389,743.5C 387.624,743.316 386.791,742.649 386.5,741.5 Z"/></g>
<g><path style="opacity:0.45" fill="#8084b7" d="M 423.5,748.5 C 449.165,751.147 474.831,751.147 500.5,748.5C 500.389,749.117 500.056,749.617 499.5,750C 474.5,752 449.5,752 424.5,750C 423.944,749.617 423.611,749.117 423.5,748.5 Z"/></g>
</svg>
