<?xml version="1.0" encoding="UTF-8"?>
<!DOCTYPE svg PUBLIC "-//W3C//DTD SVG 1.1//EN" "http://www.w3.org/Graphics/SVG/1.1/DTD/svg11.dtd">
<svg xmlns="http://www.w3.org/2000/svg" version="1.1" width="900px" height="900px" style="shape-rendering:geometricPrecision; text-rendering:geometricPrecision; image-rendering:optimizeQuality; fill-rule:evenodd; clip-rule:evenodd" xmlns:xlink="http://www.w3.org/1999/xlink">
<g><path style="opacity:0.98" fill="#4a4a4a" d="M 500.5,750.5 C 499.688,749.007 498.355,748.34 496.5,748.5C 473.835,751.15 451.168,751.15 428.5,748.5C 426.645,748.34 425.312,749.007 424.5,750.5C 407.07,747.891 390.07,743.891 373.5,738.5C 371.485,737.076 369.152,736.41 366.5,736.5C 258.58,698.066 191.08,623.066 164,511.5C 146.243,415.534 167.243,329.201 227,252.5C 296.488,173.108 383.988,136.608 489.5,143C 595.046,155.474 674.879,206.974 729,297.5C 784.098,403.823 780.765,509.157 719,613.5C 666.766,691.399 593.933,737.066 500.5,750.5 Z M 442.5,190.5 C 540.983,186.329 618.816,223.996 676,303.5C 719.948,372.801 730.615,447.135 708,526.5C 678.681,608.153 623.181,663.319 541.5,692C 479.617,710.893 418.617,707.893 358.5,683C 271.031,640.157 220.531,570.323 207,473.5C 199.257,383.346 229.424,308.846 297.5,250C 339.649,215.264 387.983,195.43 442.5,190.5 Z"/></g>
<g><path style="opacity:0.98" fill="#4a4a4a" d="M 315.5,407.5 C 316.239,407.631 316.906,407.464 317.5,407C 310.412,401.584 305.246,394.751 302,386.5C 301.617,387.056 301.117,387.389 300.5,387.5C 292.855,362.851 299.189,342.684 319.5,327C 336.613,317.771 353.947,317.438 371.5,326C 393.09,340.486 400.257,360.319 393,385.5C 386.908,401.926 375.408,412.426 358.5,417C 347.279,418.165 336.279,417.165 325.5,414C 321.931,412.058 318.598,409.892 315.5,407.5 Z"/></g>
<g><path style="opacity:0.979" fill="#4a4a4a" d="M 571.5,319.5 C 600.114,318.301 618.614,331.301 627,358.5C 630.263,387.856 618.097,407.356 590.5,417C 559.679,421.353 539.513,408.853 530,379.5C 526.84,347.426 540.673,327.426 571.5,319.5 Z"/></g>
<g><path style="opacity:0.21" fill="#7e7e7e" d="M 315.5,407.5 C 309.024,402.013 304.024,395.346 300.5,387.5C 301.117,387.389 301.617,387.056 302,386.5C 305.246,394.751 310.412,401.584 317.5,407C 316.906,407.464 316.239,407.631 315.5,407.5 Z"/></g>
<g><path style="opacity:0.976" fill="#4a4a4a" d="M 602.5,489.5 C 621.364,488.358 631.031,497.358 631.5,516.5C 631.832,524.673 629.999,532.34 626,539.5C 595.696,594.43 549.196,625.597 486.5,633C 434.327,638.364 386.66,625.364 343.5,594C 326.464,579.971 311.964,563.805 300,545.5C 296.235,539.544 293.235,533.211 291,526.5C 287.191,511.127 292.024,499.627 305.5,492C 317.561,488.33 327.394,491.83 335,502.5C 342.57,519.489 353.403,533.989 367.5,546C 413.762,580.369 464.095,588.369 518.5,570C 544.766,560.395 564.932,543.562 579,519.5C 582.801,508.727 588.968,499.561 597.5,492C 599.653,491.901 601.319,491.067 602.5,489.5 Z"/></g>
<g><path style="opacity:0.259" fill="#949494" d="M 366.5,736.5 C 369.152,736.41 371.485,737.076 373.5,738.5C 370.848,738.59 368.515,737.924 366.5,736.5 Z"/></g>
<g><path style="opacity:0.253" fill="#595959" d="M 500.5,750.5 C 475.166,753.15 449.833,753.15 424.5,750.5C 425.312,749.007 426.645,748.34 428.5,748.5C 451.168,751.15 473.835,751.15 496.5,748.5C 498.355,748.34 499.688,749.007 500.5,750.5 Z"/></g>
</svg>
