<?xml version="1.0" encoding="UTF-8"?>
<!DOCTYPE svg PUBLIC "-//W3C//DTD SVG 1.1//EN" "http://www.w3.org/Graphics/SVG/1.1/DTD/svg11.dtd">
<svg xmlns="http://www.w3.org/2000/svg" version="1.1" width="900px" height="900px" style="shape-rendering:geometricPrecision; text-rendering:geometricPrecision; image-rendering:optimizeQuality; fill-rule:evenodd; clip-rule:evenodd" xmlns:xlink="http://www.w3.org/1999/xlink">
<g><path style="opacity:0.993" fill="#8087db" d="M 286.5,97.5 C 345.029,91.8033 394.529,109.803 435,151.5C 480.615,207.029 490.449,268.529 464.5,336C 438.666,389.12 396.666,421.786 338.5,434C 273.817,442.84 220.151,423.007 177.5,374.5C 134.463,317.756 127.463,256.589 156.5,191C 184.393,138.458 227.727,107.291 286.5,97.5 Z"/></g>
<g><path style="opacity:0.991" fill="#8087db" d="M 577.5,97.5 C 639.615,92.0658 690.949,112.399 731.5,158.5C 764.571,201.529 776.071,249.863 766,303.5C 746.613,374.219 701.113,417.719 629.5,434C 573.687,442.039 525.02,427.539 483.5,390.5C 483.167,389.667 482.833,388.833 482.5,388C 525.952,322.462 532.618,253.129 502.5,180C 497.127,168.494 490.794,157.661 483.5,147.5C 482.515,145.902 482.349,144.235 483,142.5C 510.258,118.308 541.758,103.308 577.5,97.5 Z"/></g>
<g><path style="opacity:0.994" fill="#8087db" d="M 171.5,429.5 C 172.873,429.343 174.207,429.51 175.5,430C 222.475,467.937 276.142,483.437 336.5,476.5C 376.906,470.527 412.906,454.86 444.5,429.5C 510.248,474.652 545.748,537.652 551,618.5C 551.667,652.833 551.667,687.167 551,721.5C 546.012,764.314 522.512,789.981 480.5,798.5C 366.168,799.667 251.835,799.833 137.5,799C 100.042,791.192 76.8757,768.692 68,731.5C 67.3333,688.5 67.3333,645.5 68,602.5C 76.0174,544.094 100.851,494.261 142.5,453C 152.063,444.72 161.73,436.887 171.5,429.5 Z"/></g>
<g><path style="opacity:0.992" fill="#8087db" d="M 733.5,429.5 C 736.014,429.754 738.348,430.587 740.5,432C 794.56,472.237 827.727,525.737 840,592.5C 841.609,638.814 841.943,685.147 841,731.5C 831.998,768.724 808.832,791.224 771.5,799C 701.93,799.831 632.43,799.665 563,798.5C 562.333,797.833 562.333,797.167 563,796.5C 581.114,775.252 591.28,750.586 593.5,722.5C 594.667,687.838 594.833,653.171 594,618.5C 591.008,567.831 576.008,521.165 549,478.5C 547.798,476.323 547.298,473.989 547.5,471.5C 596.216,483.236 643.382,478.903 689,458.5C 705.327,450.984 720.161,441.317 733.5,429.5 Z"/></g>
</svg>
