<?xml version="1.0" encoding="UTF-8"?>
<!DOCTYPE svg PUBLIC "-//W3C//DTD SVG 1.1//EN" "http://www.w3.org/Graphics/SVG/1.1/DTD/svg11.dtd">
<svg xmlns="http://www.w3.org/2000/svg" version="1.1" width="900px" height="900px" style="shape-rendering:geometricPrecision; text-rendering:geometricPrecision; image-rendering:optimizeQuality; fill-rule:evenodd; clip-rule:evenodd" xmlns:xlink="http://www.w3.org/1999/xlink">
<g><path style="opacity:0.964" fill="#696969" d="M 282.5,87.5 C 352.252,81.6395 407.752,106.306 449,161.5C 451.043,164.712 452.877,168.045 454.5,171.5C 480.162,128.904 517.495,101.904 566.5,90.5C 630.061,79.3886 684.727,96.2219 730.5,141C 777.437,196.209 788.604,258.376 764,327.5C 751.061,358.215 730.895,383.048 703.5,402C 702.663,403.011 702.33,404.178 702.5,405.5C 765.047,433.156 809.214,478.823 835,542.5C 842.341,562.51 847.341,583.177 850,604.5C 850.833,648.504 850.667,692.504 849.5,736.5C 840.624,774.068 817.291,796.902 779.5,805C 562.833,805.667 346.167,805.667 129.5,805C 91.7103,796.907 68.377,774.073 59.5,736.5C 58.3334,692.504 58.1667,648.504 59,604.5C 71.5006,517.589 116.001,453.089 192.5,411C 197.077,408.876 201.743,407.043 206.5,405.5C 206.649,404.448 206.483,403.448 206,402.5C 164.436,372.857 140.103,332.524 133,281.5C 127.336,201.795 159.003,142.795 228,104.5C 236.809,100.842 245.642,97.3421 254.5,94C 264.057,91.6125 273.391,89.4458 282.5,87.5 Z M 305.5,135.5 C 351.558,138.388 387.225,158.888 412.5,197C 439.855,250.757 434.188,300.59 395.5,346.5C 388.186,351.968 381.186,357.802 374.5,364C 333.506,388.671 291.339,390.838 248,370.5C 211.6,349.231 189.6,317.898 182,276.5C 178.337,234.295 191.503,198.628 221.5,169.5C 244.691,148.449 272.024,137.615 303.5,137C 304.416,136.722 305.082,136.222 305.5,135.5 Z M 601.5,135.5 C 656.946,138.77 696.113,165.436 719,215.5C 733.961,258.488 728.294,298.488 702,335.5C 661.112,383.07 611.278,395.736 552.5,373.5C 512.984,354.243 488.984,322.909 480.5,279.5C 475.373,220.08 498.706,176.247 550.5,148C 559.479,144.563 568.479,141.563 577.5,139C 585.876,138.444 593.876,137.277 601.5,135.5 Z M 453.5,350.5 C 460.784,360.255 468.284,369.922 476,379.5C 481.882,385.516 488.049,391.183 494.5,396.5C 497.288,397.792 499.622,399.626 501.5,402C 502.448,402.483 503.448,402.649 504.5,402.5C 504.5,403.5 504.5,404.5 504.5,405.5C 496.201,408.384 488.201,412.05 480.5,416.5C 471.543,421.807 462.876,427.473 454.5,433.5C 445.549,427.685 436.549,421.852 427.5,416C 420.089,411.813 412.423,408.313 404.5,405.5C 404.5,404.5 404.5,403.5 404.5,402.5C 405.552,402.649 406.552,402.483 407.5,402C 415.945,394.501 424.445,387.001 433,379.5C 438.97,372.907 444.47,365.907 449.5,358.5C 451.026,355.809 452.36,353.143 453.5,350.5 Z M 295.5,433.5 C 375.741,433.561 436.741,467.394 478.5,535C 493.292,562.267 501.792,591.433 504,622.5C 504.667,656.167 504.667,689.833 504,723.5C 501,739.998 491.5,750.665 475.5,755.5C 362.167,756.833 248.833,756.833 135.5,755.5C 129.619,753.792 124.285,751.126 119.5,747.5C 114.49,741.901 110.657,735.567 108,728.5C 106.107,688.845 106.107,649.178 108,609.5C 118.311,544.358 151.478,494.525 207.5,460C 234.384,444.616 263.384,436.283 294.5,435C 295.056,434.617 295.389,434.117 295.5,433.5 Z M 592.5,433.5 C 663.222,432.927 720.222,460.26 763.5,515.5C 788.047,550.641 800.88,589.641 802,632.5C 802.799,663.012 802.632,693.512 801.5,724C 798.26,740.066 788.926,750.566 773.5,755.5C 697.836,756.5 622.17,756.833 546.5,756.5C 549.219,746.16 551.719,735.826 554,725.5C 554.667,691.167 554.667,656.833 554,622.5C 550.401,564.162 529.901,512.829 492.5,468.5C 506.155,459.433 520.655,451.766 536,445.5C 542.169,443.488 548.336,441.655 554.5,440C 567.377,437.366 580.043,435.199 592.5,433.5 Z"/></g>
</svg>
