<?xml version="1.0" encoding="UTF-8"?>
<!DOCTYPE svg PUBLIC "-//W3C//DTD SVG 1.1//EN" "http://www.w3.org/Graphics/SVG/1.1/DTD/svg11.dtd">
<svg xmlns="http://www.w3.org/2000/svg" version="1.1" width="700px" height="700px" style="shape-rendering:geometricPrecision; text-rendering:geometricPrecision; image-rendering:optimizeQuality; fill-rule:evenodd; clip-rule:evenodd" xmlns:xlink="http://www.w3.org/1999/xlink">
<g><path style="opacity:0.992" fill="#000000" d="M 320.5,-0.5 C 339.833,-0.5 359.167,-0.5 378.5,-0.5C 502.034,12.9599 594.867,72.9599 657,179.5C 680.786,223.595 694.953,270.595 699.5,320.5C 699.5,339.5 699.5,358.5 699.5,377.5C 685.094,504.237 622.428,598.404 511.5,660C 431.866,699.976 348.533,709.476 261.5,688.5C 165.073,661.541 91.9067,604.874 42,518.5C 25.2158,487.26 13.2158,454.26 6,419.5C 3.7822,405.353 1.61553,391.353 -0.5,377.5C -0.5,358.167 -0.5,338.833 -0.5,319.5C 13.8353,196.227 74.1687,103.393 180.5,41C 202.434,29.3549 225.267,19.8549 249,12.5C 258.234,10.3999 267.401,8.06654 276.5,5.5C 291.245,2.99179 305.912,0.991788 320.5,-0.5 Z"/></g>
<g><path style="opacity:1" fill="#575757" d="M 313.5,175.5 C 307.167,174.167 300.833,174.167 294.5,175.5C 294.918,174.778 295.584,174.278 296.5,174C 298.833,173.833 301.167,173.667 303.5,173.5C 307.141,173.315 310.474,173.981 313.5,175.5 Z"/></g>
<g><path style="opacity:1" fill="#fdfdfd" d="M 313.5,175.5 C 320.633,177.066 326.966,180.233 332.5,185C 379.883,232.383 427.05,279.55 474,326.5C 476.391,330.993 478.224,335.66 479.5,340.5C 479.64,346.536 479.307,352.536 478.5,358.5C 477.808,361.936 476.808,365.27 475.5,368.5C 474.094,368.973 473.427,369.973 473.5,371.5C 468.175,378.491 462.175,384.824 455.5,390.5C 452.833,392.5 450.5,394.833 448.5,397.5C 417.113,428.221 386.113,459.221 355.5,490.5C 353.251,491.08 351.585,492.413 350.5,494.5C 343.089,501.409 335.755,508.576 328.5,516C 323.054,518.869 317.387,521.036 311.5,522.5C 303.076,522.786 294.742,522.12 286.5,520.5C 267.229,509.959 259.062,493.625 262,471.5C 263.79,466.586 266.124,461.919 269,457.5C 291.701,434.632 314.535,411.965 337.5,389.5C 343.108,385.561 348.108,380.894 352.5,375.5C 360.464,367.035 368.631,358.702 377,350.5C 377.667,349.5 377.667,348.5 377,347.5C 341.694,313.195 306.694,278.528 272,243.5C 255.811,220.355 258.311,199.521 279.5,181C 284.113,178.023 289.113,176.19 294.5,175.5C 300.833,174.167 307.167,174.167 313.5,175.5 Z"/></g>
<g><path style="opacity:1" fill="#606060" d="M 479.5,340.5 C 480.652,345.985 480.818,351.651 480,357.5C 479.617,358.056 479.117,358.389 478.5,358.5C 479.307,352.536 479.64,346.536 479.5,340.5 Z"/></g>
<g><path style="opacity:1" fill="#626262" d="M 475.5,368.5 C 475.573,370.027 474.906,371.027 473.5,371.5C 473.427,369.973 474.094,368.973 475.5,368.5 Z"/></g>
<g><path style="opacity:1" fill="#a7a7a7" d="M 352.5,375.5 C 348.108,380.894 343.108,385.561 337.5,389.5C 341.892,384.106 346.892,379.439 352.5,375.5 Z"/></g>
<g><path style="opacity:1" fill="#464646" d="M 455.5,390.5 C 454.167,393.833 451.833,396.167 448.5,397.5C 450.5,394.833 452.833,392.5 455.5,390.5 Z"/></g>
<g><path style="opacity:1" fill="#4a4a4a" d="M 355.5,490.5 C 354.415,492.587 352.749,493.92 350.5,494.5C 351.585,492.413 353.251,491.08 355.5,490.5 Z"/></g>
<g><path style="opacity:1" fill="#c3c3c3" d="M 286.5,520.5 C 294.742,522.12 303.076,522.786 311.5,522.5C 305.681,523.653 299.681,523.819 293.5,523C 290.896,522.61 288.562,521.776 286.5,520.5 Z"/></g>
</svg>
