<?xml version="1.0" encoding="UTF-8"?>
<!DOCTYPE svg PUBLIC "-//W3C//DTD SVG 1.1//EN" "http://www.w3.org/Graphics/SVG/1.1/DTD/svg11.dtd">
<svg xmlns="http://www.w3.org/2000/svg" version="1.1" width="700px" height="700px" style="shape-rendering:geometricPrecision; text-rendering:geometricPrecision; image-rendering:optimizeQuality; fill-rule:evenodd; clip-rule:evenodd" xmlns:xlink="http://www.w3.org/1999/xlink">
<g><path style="opacity:0.988" fill="#000000" d="M 320.5,-0.5 C 339.833,-0.5 359.167,-0.5 378.5,-0.5C 502.034,12.9599 594.867,72.9599 657,179.5C 680.786,223.595 694.953,270.595 699.5,320.5C 699.5,339.5 699.5,358.5 699.5,377.5C 685.094,504.237 622.428,598.404 511.5,660C 431.866,699.976 348.533,709.476 261.5,688.5C 165.073,661.541 91.9067,604.874 42,518.5C 25.2158,487.26 13.2158,454.26 6,419.5C 3.7822,405.353 1.61553,391.353 -0.5,377.5C -0.5,358.167 -0.5,338.833 -0.5,319.5C 13.8353,196.227 74.1687,103.393 180.5,41C 202.434,29.3549 225.267,19.8549 249,12.5C 258.234,10.3999 267.401,8.06654 276.5,5.5C 291.245,2.99179 305.912,0.991788 320.5,-0.5 Z M 295.5,175.5 C 311.263,174.196 324.596,179.196 335.5,190.5C 380.648,235.483 425.815,280.15 471,324.5C 482.582,342.526 481.582,359.859 468,376.5C 422.14,421.34 376.973,466.173 332.5,511C 309.957,527.695 289.123,525.862 270,505.5C 261.408,492.334 260.408,478.668 267,464.5C 268.439,462.725 269.439,460.725 270,458.5C 306.93,422.683 343.43,386.35 379.5,349.5C 346.393,314.393 312.393,280.393 277.5,247.5C 257.218,226.003 257.551,204.837 278.5,184C 284.151,180.857 289.818,178.024 295.5,175.5 Z"/></g>
</svg>
