<?xml version="1.0" encoding="UTF-8"?>
<!DOCTYPE svg PUBLIC "-//W3C//DTD SVG 1.1//EN" "http://www.w3.org/Graphics/SVG/1.1/DTD/svg11.dtd">
<svg xmlns="http://www.w3.org/2000/svg" version="1.1" width="700px" height="700px" style="shape-rendering:geometricPrecision; text-rendering:geometricPrecision; image-rendering:optimizeQuality; fill-rule:evenodd; clip-rule:evenodd" xmlns:xlink="http://www.w3.org/1999/xlink">
<g><path style="opacity:0.994" fill="#fefefe" d="M 320.5,-0.5 C 339.833,-0.5 359.167,-0.5 378.5,-0.5C 502.034,12.9599 594.867,72.9599 657,179.5C 680.786,223.595 694.953,270.595 699.5,320.5C 699.5,339.5 699.5,358.5 699.5,377.5C 685.094,504.237 622.428,598.404 511.5,660C 431.866,699.976 348.533,709.476 261.5,688.5C 165.073,661.541 91.9067,604.874 42,518.5C 25.2158,487.26 13.2158,454.26 6,419.5C 3.7822,405.353 1.61553,391.353 -0.5,377.5C -0.5,358.167 -0.5,338.833 -0.5,319.5C 13.8353,196.227 74.1687,103.393 180.5,41C 202.434,29.3549 225.267,19.8549 249,12.5C 258.234,10.3999 267.401,8.06654 276.5,5.5C 291.245,2.99179 305.912,0.991788 320.5,-0.5 Z"/></g>
<g><path style="opacity:1" fill="#a3a3a3" d="M 312.5,175.5 C 306.5,174.167 300.5,174.167 294.5,175.5C 294.918,174.778 295.584,174.278 296.5,174C 301.167,173.333 305.833,173.333 310.5,174C 311.416,174.278 312.082,174.778 312.5,175.5 Z"/></g>
<g><path style="opacity:1" fill="#010101" d="M 312.5,175.5 C 315.738,176.633 319.071,177.467 322.5,178C 324.884,180.385 327.55,182.385 330.5,184C 346.78,199.115 362.447,214.615 377.5,230.5C 379.5,233.167 381.833,235.5 384.5,237.5C 414.735,267.236 444.568,296.903 474,326.5C 475.664,329.327 476.83,332.327 477.5,335.5C 479.731,343.402 480.064,351.402 478.5,359.5C 475.544,368.302 470.71,375.969 464,382.5C 418.284,427.887 372.451,472.721 326.5,517C 299.949,530.409 279.449,524.243 265,498.5C 264.454,495.621 263.621,492.954 262.5,490.5C 262.244,483.776 262.577,477.109 263.5,470.5C 264.456,465.802 266.289,461.468 269,457.5C 305.287,421.213 341.454,385.046 377.5,349C 342.85,313.017 307.683,277.85 272,243.5C 267.766,237.698 264.599,231.364 262.5,224.5C 262.244,217.776 262.577,211.109 263.5,204.5C 268.339,188.996 278.672,179.329 294.5,175.5C 300.5,174.167 306.5,174.167 312.5,175.5 Z"/></g>
<g><path style="opacity:1" fill="#858585" d="M 263.5,204.5 C 262.577,211.109 262.244,217.776 262.5,224.5C 261.347,218.347 261.18,212.014 262,205.5C 262.383,204.944 262.883,204.611 263.5,204.5 Z"/></g>
<g><path style="opacity:1" fill="#8c8c8c" d="M 377.5,230.5 C 380.833,231.833 383.167,234.167 384.5,237.5C 381.833,235.5 379.5,233.167 377.5,230.5 Z"/></g>
<g><path style="opacity:1" fill="#a4a4a4" d="M 477.5,335.5 C 479.067,336.681 479.901,338.347 480,340.5C 480.667,346.167 480.667,351.833 480,357.5C 479.722,358.416 479.222,359.082 478.5,359.5C 480.064,351.402 479.731,343.402 477.5,335.5 Z"/></g>
<g><path style="opacity:1" fill="#868686" d="M 263.5,470.5 C 262.577,477.109 262.244,483.776 262.5,490.5C 261.347,484.347 261.18,478.014 262,471.5C 262.383,470.944 262.883,470.611 263.5,470.5 Z"/></g>
</svg>
