<?xml version="1.0" encoding="UTF-8"?>
<!DOCTYPE svg PUBLIC "-//W3C//DTD SVG 1.1//EN" "http://www.w3.org/Graphics/SVG/1.1/DTD/svg11.dtd">
<svg xmlns="http://www.w3.org/2000/svg" version="1.1" width="900px" height="900px" style="shape-rendering:geometricPrecision; text-rendering:geometricPrecision; image-rendering:optimizeQuality; fill-rule:evenodd; clip-rule:evenodd" xmlns:xlink="http://www.w3.org/1999/xlink">
<g><path style="opacity:0.02" fill="#606060" d="M 423.5,148.5 C 443.569,147.075 453.236,156.241 452.5,176C 446.254,191.417 435.254,196.417 419.5,191C 407.666,183.161 404.499,172.661 410,159.5C 413.213,154.107 417.713,150.441 423.5,148.5 Z"/></g>
<g><path style="opacity:0.99" fill="#6d76d1" d="M 188.5,223.5 C 362.5,223.333 536.5,223.5 710.5,224C 739.077,228.248 756.244,244.415 762,272.5C 766.659,300.422 757.159,321.756 733.5,336.5C 649.294,381.268 565.294,426.102 481.5,471C 464.745,479.597 447.412,481.43 429.5,476.5C 341.753,429.67 253.753,383.003 165.5,336.5C 142.05,321.523 132.717,300.189 137.5,272.5C 143.768,244.897 160.768,228.564 188.5,223.5 Z"/></g>
<g><path style="opacity:0.993" fill="#6e76d1" d="M 136.5,383.5 C 223.034,428.442 309.367,474.276 395.5,521C 417.701,532.032 441.034,536.365 465.5,534C 481.381,530.484 496.548,524.984 511,517.5C 594.54,472.149 678.373,427.482 762.5,383.5C 762.971,448.525 762.471,513.525 761,578.5C 750.794,624.976 722.961,655.809 677.5,671C 671.061,672.236 664.728,673.57 658.5,675C 519.167,675.667 379.833,675.667 240.5,675C 191.162,666.321 157.996,638.488 141,591.5C 139.978,584.353 138.644,577.353 137,570.5C 136.5,508.168 136.333,445.834 136.5,383.5 Z"/></g>
</svg>
