<?xml version="1.0" encoding="UTF-8"?>
<!DOCTYPE svg PUBLIC "-//W3C//DTD SVG 1.1//EN" "http://www.w3.org/Graphics/SVG/1.1/DTD/svg11.dtd">
<svg xmlns="http://www.w3.org/2000/svg" version="1.1" width="900px" height="900px" style="shape-rendering:geometricPrecision; text-rendering:geometricPrecision; image-rendering:optimizeQuality; fill-rule:evenodd; clip-rule:evenodd" xmlns:xlink="http://www.w3.org/1999/xlink">
<g><path style="opacity:0.973" fill="#4a4a4a" d="M 421.5,128.5 C 547.091,122.303 645.924,169.636 718,270.5C 774.674,361.296 786.174,457.796 752.5,560C 711.484,663.953 637.151,731.286 529.5,762C 403.685,788.848 296.852,756.348 209,664.5C 136.187,578.928 112.187,480.595 137,369.5C 167.714,261.849 235.047,187.516 339,146.5C 365.832,137.115 393.332,131.115 421.5,128.5 Z M 413.5,185.5 C 415.443,188.471 418.109,190.471 421.5,191.5C 425.754,193.409 430.088,193.742 434.5,192.5C 439.935,191.616 444.269,188.949 447.5,184.5C 448.965,183.594 449.965,182.261 450.5,180.5C 494.757,179.897 536.423,190.064 575.5,211C 653.513,255.103 700.68,321.603 717,410.5C 727.438,510.895 694.938,593.729 619.5,659C 558.234,706.843 488.567,726.177 410.5,717C 317.383,699.472 249.217,648.972 206,565.5C 169.25,484.009 170.917,403.342 211,323.5C 254.989,245.442 321.489,198.442 410.5,182.5C 411.288,183.77 412.288,184.77 413.5,185.5 Z"/></g>
<g><path style="opacity:0.02" fill="#616161" d="M 447.5,184.5 C 444.269,188.949 439.935,191.616 434.5,192.5C 430.969,191.77 427.303,191.104 423.5,190.5C 422.817,190.863 422.15,191.196 421.5,191.5C 418.109,190.471 415.443,188.471 413.5,185.5C 413.461,184.417 413.127,183.417 412.5,182.5C 424.428,180.219 436.428,179.552 448.5,180.5C 447.754,181.736 447.421,183.07 447.5,184.5 Z"/></g>
<g><path style="opacity:0.012" fill="#2d2d2d" d="M 434.5,192.5 C 430.088,193.742 425.754,193.409 421.5,191.5C 422.15,191.196 422.817,190.863 423.5,190.5C 427.303,191.104 430.969,191.77 434.5,192.5 Z"/></g>
<g><path style="opacity:0.962" fill="#4a4a4a" d="M 447.5,275.5 C 460.893,275.689 469.893,282.022 474.5,294.5C 475.333,342.163 475.833,389.83 476,437.5C 482.183,443.37 489.016,448.537 496.5,453C 502.697,458.453 509.364,463.453 516.5,468C 534,481.5 551.5,495 569,508.5C 579.205,525.121 576.372,538.954 560.5,550C 553.901,551.496 547.234,551.829 540.5,551C 537.602,550.096 534.936,548.762 532.5,547C 500.935,523.067 469.269,499.4 437.5,476C 431.08,471.743 426.747,465.909 424.5,458.5C 423.167,403.833 423.167,349.167 424.5,294.5C 428.123,284.047 435.457,278.214 446.5,277C 447.056,276.617 447.389,276.117 447.5,275.5 Z"/></g>
</svg>
