<?xml version="1.0" standalone="no"?>
<!DOCTYPE svg PUBLIC "-//W3C//DTD SVG 20010904//EN"
 "http://www.w3.org/TR/2001/REC-SVG-20010904/DTD/svg10.dtd">
<svg version="1.0" xmlns="http://www.w3.org/2000/svg"
 width="900.000000pt" height="900.000000pt" viewBox="0 0 900.000000 900.000000"
 preserveAspectRatio="xMidYMid meet">

<g transform="translate(0.000000,900.000000) scale(0.100000,-0.100000)"
fill="#000000" stroke="none">
<path d="M4346 7699 c-531 -32 -959 -155 -1403 -401 -696 -387 -1232 -1033
-1483 -1788 -68 -205 -118 -428 -140 -620 -68 -609 22 -1190 267 -1721 371
-807 1066 -1431 1903 -1709 655 -217 1371 -217 2020 1 204 68 356 135 547 241
300 167 563 376 805 638 398 433 671 972 782 1545 128 661 45 1351 -235 1955
-244 527 -640 992 -1122 1317 -354 238 -761 408 -1172 487 -181 35 -264 44
-575 60 -36 2 -123 0 -194 -5z m605 -522 c532 -94 979 -314 1378 -678 395
-360 671 -819 801 -1329 63 -249 75 -357 75 -670 0 -313 -12 -421 -75 -670
-130 -510 -406 -969 -801 -1329 -406 -370 -859 -590 -1409 -683 -119 -20 -169
-23 -420 -23 -251 0 -301 3 -420 23 -550 93 -1003 313 -1409 683 -394 360
-669 816 -801 1329 -62 244 -75 357 -75 670 0 251 3 301 23 420 52 305 129
544 263 806 255 504 688 937 1192 1193 308 156 531 223 962 285 17 2 152 3
300 1 238 -2 287 -6 416 -28z"/>
<path d="M4475 6213 c-105 -23 -150 -54 -193 -137 l-27 -51 0 -800 0 -800 27
-52 c15 -28 47 -67 70 -86 24 -19 266 -202 538 -406 536 -401 535 -400 640
-386 67 9 136 57 175 119 26 43 30 59 30 121 0 126 6 119 -520 515 l-460 346
-5 714 -5 715 -27 51 c-44 84 -92 117 -198 137 -14 2 -34 2 -45 0z"/>
</g>
</svg>
