<?xml version="1.0" encoding="UTF-8"?>
<!DOCTYPE svg PUBLIC "-//W3C//DTD SVG 1.1//EN" "http://www.w3.org/Graphics/SVG/1.1/DTD/svg11.dtd">
<svg xmlns="http://www.w3.org/2000/svg" version="1.1" width="900px" height="900px" style="shape-rendering:geometricPrecision; text-rendering:geometricPrecision; image-rendering:optimizeQuality; fill-rule:evenodd; clip-rule:evenodd" xmlns:xlink="http://www.w3.org/1999/xlink">
<g><path style="opacity:0.957" fill="#979797" d="M 434.5,147.5 C 551.815,141.925 644.649,185.925 713,279.5C 763.365,358.029 776.699,442.696 753,533.5C 720.604,634.313 654.437,702.48 554.5,738C 443.512,769.143 344.512,747.476 257.5,673C 178.445,596.333 147.445,502.833 164.5,392.5C 184.123,302.808 232.79,234.308 310.5,187C 317.626,183.603 324.626,179.937 331.5,176C 350.233,167.978 369.4,161.144 389,155.5C 404.321,152.864 419.488,150.197 434.5,147.5 Z M 461.5,186.5 C 552.779,189.963 625.112,228.296 678.5,301.5C 724.399,371.631 735.733,447.298 712.5,528.5C 686.751,602.742 638.418,656.575 567.5,690C 472.659,727.871 383.992,716.871 301.5,657C 219.45,588.576 187.284,501.076 205,394.5C 223.225,319.631 265.058,262.298 330.5,222.5C 360.866,204.9 393.533,193.734 428.5,189C 439.648,188.082 450.648,187.249 461.5,186.5 Z"/></g>
<g><path style="opacity:0.956" fill="#979797" d="M 337.5,335.5 C 353.692,336.707 365.692,344.374 373.5,358.5C 382.276,384.771 373.942,402.937 348.5,413C 330.197,416.907 315.697,411.407 305,396.5C 297.843,382.599 297.676,368.599 304.5,354.5C 311.885,342.979 322.551,337.146 336.5,337C 337.056,336.617 337.389,336.117 337.5,335.5 Z"/></g>
<g><path style="opacity:0.957" fill="#979797" d="M 585.5,335.5 C 586.289,335.783 586.956,336.283 587.5,337C 602.807,337.377 613.974,344.211 621,357.5C 629.281,380.617 623.115,398.451 602.5,411C 575.677,419.337 557.511,410.503 548,384.5C 544.514,364.721 551.347,349.888 568.5,340C 574.345,338.582 580.011,337.082 585.5,335.5 Z"/></g>
<g><path style="opacity:0.954" fill="#979797" d="M 449.5,485.5 C 518.405,482.383 573.239,508.049 614,562.5C 617.365,568.187 620.699,573.854 624,579.5C 625.098,586.385 624.431,593.051 622,599.5C 619.314,602.374 616.148,604.541 612.5,606C 603.25,608.388 595.416,606.221 589,599.5C 560.74,552.017 518.74,527.351 463,525.5C 407.317,527.326 365.317,551.993 337,599.5C 332.981,604.843 327.648,607.176 321,606.5C 311.504,607.312 305.17,603.312 302,594.5C 300.902,587.615 301.569,580.949 304,574.5C 337.831,521.314 386.331,491.647 449.5,485.5 Z"/></g>
</svg>
