<?xml version="1.0" encoding="UTF-8"?>
<!DOCTYPE svg PUBLIC "-//W3C//DTD SVG 1.1//EN" "http://www.w3.org/Graphics/SVG/1.1/DTD/svg11.dtd">
<svg xmlns="http://www.w3.org/2000/svg" version="1.1" width="900px" height="900px" style="shape-rendering:geometricPrecision; text-rendering:geometricPrecision; image-rendering:optimizeQuality; fill-rule:evenodd; clip-rule:evenodd" xmlns:xlink="http://www.w3.org/1999/xlink">
<g><path style="opacity:0.475" fill="#c56065" d="M 500.5,150.5 C 474.824,148.08 449.157,148.08 423.5,150.5C 426.701,148.74 430.367,147.906 434.5,148C 456.19,147.136 477.857,147.47 499.5,149C 500.056,149.383 500.389,149.883 500.5,150.5 Z"/></g>
<g><path style="opacity:1" fill="#e5343e" d="M 500.5,150.5 C 500.918,151.222 501.584,151.722 502.5,152C 514.224,153.621 525.891,155.454 537.5,157.5C 551.333,161.613 565,166.446 578.5,172C 591.271,177.885 603.938,184.052 616.5,190.5C 622.951,195.944 629.951,200.61 637.5,204.5C 650.677,215.26 663.677,226.26 676.5,237.5C 685.869,248.531 695.203,259.531 704.5,270.5C 705.551,273.961 707.551,276.627 710.5,278.5C 710.833,278.5 711.167,278.5 711.5,278.5C 714.36,285.886 718.027,292.886 722.5,299.5C 722.957,300.298 723.624,300.631 724.5,300.5C 728.377,309.468 732.71,318.134 737.5,326.5C 739.222,332.168 741.056,337.835 743,343.5C 743.383,344.056 743.883,344.389 744.5,344.5C 745.214,349.324 746.88,353.658 749.5,357.5C 751.662,367.482 753.828,377.482 756,387.5C 756.383,388.056 756.883,388.389 757.5,388.5C 757.5,388.833 757.5,389.167 757.5,389.5C 766.887,445.671 762.553,500.671 744.5,554.5C 744.5,554.833 744.5,555.167 744.5,555.5C 738.458,569.76 731.625,583.76 724,597.5C 717.478,607.89 710.978,618.223 704.5,628.5C 670.638,671.733 628.971,704.733 579.5,727.5C 578.791,728.404 577.791,728.737 576.5,728.5C 562.598,733.309 548.598,737.809 534.5,742C 525.855,743.026 517.522,744.86 509.5,747.5C 506.609,748.403 503.609,748.736 500.5,748.5C 474.819,750.892 449.152,750.892 423.5,748.5C 423.167,748.5 422.833,748.5 422.5,748.5C 422.389,747.883 422.056,747.383 421.5,747C 415.475,746.273 409.475,745.44 403.5,744.5C 397.858,743.372 392.191,742.372 386.5,741.5C 370.928,736.785 355.594,731.285 340.5,725C 329.361,719.578 318.361,714.078 307.5,708.5C 307.167,708.5 306.833,708.5 306.5,708.5C 303.197,704.844 299.197,702.178 294.5,700.5C 292.807,697.318 290.141,695.652 286.5,695.5C 286.5,695.167 286.5,694.833 286.5,694.5C 283.725,691.395 280.392,689.062 276.5,687.5C 241.831,658.669 213.997,624.335 193,584.5C 186.434,571.312 180.934,557.646 176.5,543.5C 176.253,542.287 175.586,541.62 174.5,541.5C 172.917,533.665 171.25,525.832 169.5,518C 169.316,516.624 168.649,515.791 167.5,515.5C 166.539,513.735 166.205,511.735 166.5,509.5C 160.37,470.838 160.203,432.172 166,393.5C 168.497,385.024 170.497,376.358 172,367.5C 176.384,353.606 181.217,339.939 186.5,326.5C 186.557,325.391 186.89,324.391 187.5,323.5C 190.874,319.419 193.207,314.753 194.5,309.5C 201.083,299.337 207.416,289.004 213.5,278.5C 232.835,252.661 255.168,229.494 280.5,209C 282.5,208 284.5,207 286.5,206C 293.042,200.618 299.709,195.452 306.5,190.5C 306.833,190.5 307.167,190.5 307.5,190.5C 311.505,189.502 314.839,187.502 317.5,184.5C 326.227,180.14 335.227,176.306 344.5,173C 345.381,172.292 346.047,171.458 346.5,170.5C 346.833,170.5 347.167,170.5 347.5,170.5C 358.717,165.893 370.05,161.893 381.5,158.5C 382.919,157.549 384.585,157.216 386.5,157.5C 398.662,155.365 410.662,153.032 422.5,150.5C 422.833,150.5 423.167,150.5 423.5,150.5C 449.157,148.08 474.824,148.08 500.5,150.5 Z"/></g>
<g><path style="opacity:0.533" fill="#ca5e61" d="M 500.5,150.5 C 512.141,151.134 523.641,152.801 535,155.5C 536.376,155.684 537.209,156.351 537.5,157.5C 525.891,155.454 514.224,153.621 502.5,152C 501.584,151.722 500.918,151.222 500.5,150.5 Z"/></g>
<g><path style="opacity:0.145" fill="#c56367" d="M 422.5,150.5 C 410.662,153.032 398.662,155.365 386.5,157.5C 386.791,156.351 387.624,155.684 389,155.5C 400.056,153.04 411.223,151.373 422.5,150.5 Z"/></g>
<g><path style="opacity:0.776" fill="#c76468" d="M 381.5,158.5 C 370.05,161.893 358.717,165.893 347.5,170.5C 347.577,169.25 348.244,168.417 349.5,168C 354.417,166.917 359.084,165.251 363.5,163C 369.356,160.869 375.356,159.369 381.5,158.5 Z"/></g>
<g><path style="opacity:0.271" fill="#c56466" d="M 346.5,170.5 C 346.047,171.458 345.381,172.292 344.5,173C 335.227,176.306 326.227,180.14 317.5,184.5C 326.253,178.116 335.919,173.449 346.5,170.5 Z"/></g>
<g><path style="opacity:0.431" fill="#c66163" d="M 537.5,157.5 C 543.249,158.187 548.916,159.353 554.5,161C 575.61,168.32 595.943,177.487 615.5,188.5C 616.298,188.957 616.631,189.624 616.5,190.5C 603.938,184.052 591.271,177.885 578.5,172C 565,166.446 551.333,161.613 537.5,157.5 Z"/></g>
<g><path style="opacity:0.122" fill="#bf6167" d="M 317.5,184.5 C 314.839,187.502 311.505,189.502 307.5,190.5C 309.903,187.224 313.237,185.224 317.5,184.5 Z"/></g>
<g><path style="opacity:0.694" fill="#c96568" d="M 616.5,190.5 C 619.889,191.691 623.222,193.191 626.5,195C 629.484,197.826 632.817,200.159 636.5,202C 637.252,202.671 637.586,203.504 637.5,204.5C 629.951,200.61 622.951,195.944 616.5,190.5 Z"/></g>
<g><path style="opacity:0.322" fill="#c56466" d="M 637.5,204.5 C 638.552,204.351 639.552,204.517 640.5,205C 649.432,211.591 658.098,218.591 666.5,226C 670.148,229.634 673.481,233.467 676.5,237.5C 663.677,226.26 650.677,215.26 637.5,204.5 Z"/></g>
<g><path style="opacity:0.396" fill="#c56467" d="M 306.5,190.5 C 299.709,195.452 293.042,200.618 286.5,206C 284.5,207 282.5,208 280.5,209C 255.168,229.494 232.835,252.661 213.5,278.5C 214.128,275.91 215.295,273.577 217,271.5C 221.587,265.975 225.921,260.308 230,254.5C 249.929,231.914 272.429,212.081 297.5,195C 300.553,193.473 303.553,191.973 306.5,190.5 Z"/></g>
<g><path style="opacity:0.322" fill="#c66669" d="M 676.5,237.5 C 677.473,237.987 678.473,238.487 679.5,239C 684.726,243.889 689.559,249.056 694,254.5C 697.302,258.809 700.636,263.143 704,267.5C 704.483,268.448 704.649,269.448 704.5,270.5C 695.203,259.531 685.869,248.531 676.5,237.5 Z"/></g>
<g><path style="opacity:0.188" fill="#c46161" d="M 704.5,270.5 C 707.558,272.243 709.558,274.91 710.5,278.5C 707.551,276.627 705.551,273.961 704.5,270.5 Z"/></g>
<g><path style="opacity:0.322" fill="#cb6669" d="M 711.5,278.5 C 716.622,285.307 720.956,292.64 724.5,300.5C 723.624,300.631 722.957,300.298 722.5,299.5C 718.027,292.886 714.36,285.886 711.5,278.5 Z"/></g>
<g><path style="opacity:0.341" fill="#c56566" d="M 213.5,278.5 C 207.416,289.004 201.083,299.337 194.5,309.5C 195.654,306.521 196.82,303.521 198,300.5C 202.584,293.668 206.917,286.668 211,279.5C 211.671,278.748 212.504,278.414 213.5,278.5 Z"/></g>
<g><path style="opacity:0.275" fill="#c56765" d="M 194.5,309.5 C 193.207,314.753 190.874,319.419 187.5,323.5C 188.799,318.236 191.132,313.569 194.5,309.5 Z"/></g>
<g><path style="opacity:0.314" fill="#c86466" d="M 724.5,300.5 C 730.36,308.22 734.694,316.887 737.5,326.5C 732.71,318.134 728.377,309.468 724.5,300.5 Z"/></g>
<g><path style="opacity:0.69" fill="#c96164" d="M 737.5,326.5 C 741.358,331.712 743.691,337.712 744.5,344.5C 743.883,344.389 743.383,344.056 743,343.5C 741.056,337.835 739.222,332.168 737.5,326.5 Z"/></g>
<g><path style="opacity:1" fill="#fefdfd" d="M 343.5,337.5 C 345.515,338.924 347.848,339.59 350.5,339.5C 362.355,344.685 370.355,353.352 374.5,365.5C 376.337,374.131 375.67,382.464 372.5,390.5C 368.02,400.314 360.687,406.98 350.5,410.5C 347.99,410.927 345.657,411.593 343.5,412.5C 337.346,412.9 331.346,412.233 325.5,410.5C 316.012,407.341 309.012,401.341 304.5,392.5C 304.245,390.033 303.245,388.033 301.5,386.5C 301.5,385.5 301.5,384.5 301.5,383.5C 300.826,374.918 301.826,366.584 304.5,358.5C 305.11,356.566 306.11,354.899 307.5,353.5C 308.906,353.027 309.573,352.027 309.5,350.5C 312.953,346.27 317.287,343.27 322.5,341.5C 325.157,341.065 327.491,340.065 329.5,338.5C 333.97,337.514 338.637,337.181 343.5,337.5 Z"/></g>
<g><path style="opacity:1" fill="#ef7a7e" d="M 343.5,337.5 C 346.152,337.41 348.485,338.076 350.5,339.5C 347.848,339.59 345.515,338.924 343.5,337.5 Z"/></g>
<g><path style="opacity:1" fill="#f8c4c6" d="M 591.5,338.5 C 585.072,338.443 578.739,339.109 572.5,340.5C 573.681,338.933 575.347,338.099 577.5,338C 582.352,337.185 587.019,337.352 591.5,338.5 Z"/></g>
<g><path style="opacity:1" fill="#fefdfd" d="M 591.5,338.5 C 605.956,340.958 615.956,348.958 621.5,362.5C 622.341,369.465 622.674,376.465 622.5,383.5C 618.19,400.142 607.523,409.809 590.5,412.5C 585.463,412.587 580.463,412.254 575.5,411.5C 572.256,410.537 569.256,409.204 566.5,407.5C 566.027,406.094 565.027,405.427 563.5,405.5C 554.896,398.964 549.896,390.298 548.5,379.5C 548.437,374.797 548.771,370.13 549.5,365.5C 550.537,364.07 551.204,362.403 551.5,360.5C 554.698,352.634 560.031,346.634 567.5,342.5C 569.027,342.573 570.027,341.906 570.5,340.5C 571.167,340.5 571.833,340.5 572.5,340.5C 578.739,339.109 585.072,338.443 591.5,338.5 Z"/></g>
<g><path style="opacity:1" fill="#f6b1b4" d="M 329.5,338.5 C 327.491,340.065 325.157,341.065 322.5,341.5C 324.176,339.166 326.509,338.166 329.5,338.5 Z"/></g>
<g><path style="opacity:1" fill="#f4989b" d="M 570.5,340.5 C 570.027,341.906 569.027,342.573 567.5,342.5C 567.973,341.094 568.973,340.427 570.5,340.5 Z"/></g>
<g><path style="opacity:1" fill="#f5a2a6" d="M 309.5,350.5 C 309.573,352.027 308.906,353.027 307.5,353.5C 307.427,351.973 308.094,350.973 309.5,350.5 Z"/></g>
<g><path style="opacity:0.596" fill="#c46368" d="M 744.5,344.5 C 745.75,344.577 746.583,345.244 747,346.5C 748.15,350.112 748.983,353.778 749.5,357.5C 746.88,353.658 745.214,349.324 744.5,344.5 Z"/></g>
<g><path style="opacity:1" fill="#f2888c" d="M 551.5,360.5 C 551.204,362.403 550.537,364.07 549.5,365.5C 549.12,363.302 549.787,361.635 551.5,360.5 Z"/></g>
<g><path style="opacity:0.114" fill="#c96064" d="M 749.5,357.5 C 753.862,367.276 756.528,377.609 757.5,388.5C 756.883,388.389 756.383,388.056 756,387.5C 753.828,377.482 751.662,367.482 749.5,357.5 Z"/></g>
<g><path style="opacity:1" fill="#ef7d82" d="M 549.5,365.5 C 548.771,370.13 548.437,374.797 548.5,379.5C 547.839,377.866 547.506,376.033 547.5,374C 547.36,370.85 548.027,368.017 549.5,365.5 Z"/></g>
<g><path style="opacity:1" fill="#f7b6b9" d="M 304.5,358.5 C 301.826,366.584 300.826,374.918 301.5,383.5C 300.347,377.681 300.181,371.681 301,365.5C 301.522,362.719 302.689,360.385 304.5,358.5 Z"/></g>
<g><path style="opacity:1" fill="#f6b5b8" d="M 621.5,362.5 C 623.055,366.203 623.722,370.203 623.5,374.5C 623.498,377.686 623.165,380.686 622.5,383.5C 622.674,376.465 622.341,369.465 621.5,362.5 Z"/></g>
<g><path style="opacity:1" fill="#ec6166" d="M 374.5,365.5 C 375.268,366.263 375.768,367.263 376,368.5C 376.667,373.833 376.667,379.167 376,384.5C 375.647,387.152 374.48,389.152 372.5,390.5C 375.67,382.464 376.337,374.131 374.5,365.5 Z"/></g>
<g><path style="opacity:1" fill="#f07d82" d="M 301.5,386.5 C 303.245,388.033 304.245,390.033 304.5,392.5C 302.755,390.967 301.755,388.967 301.5,386.5 Z"/></g>
<g><path style="opacity:1" fill="#f5a7aa" d="M 563.5,405.5 C 565.027,405.427 566.027,406.094 566.5,407.5C 564.973,407.573 563.973,406.906 563.5,405.5 Z"/></g>
<g><path style="opacity:0.541" fill="#ca5c60" d="M 186.5,326.5 C 181.217,339.939 176.384,353.606 172,367.5C 170.497,376.358 168.497,385.024 166,393.5C 160.203,432.172 160.37,470.838 166.5,509.5C 164.87,507.974 164.037,505.974 164,503.5C 154.446,444.219 160.779,386.886 183,331.5C 183.549,329.24 184.716,327.574 186.5,326.5 Z"/></g>
<g><path style="opacity:1" fill="#f08186" d="M 350.5,410.5 C 350.389,411.117 350.056,411.617 349.5,412C 347.527,412.495 345.527,412.662 343.5,412.5C 345.657,411.593 347.99,410.927 350.5,410.5 Z"/></g>
<g><path style="opacity:1" fill="#f08489" d="M 325.5,410.5 C 331.346,412.233 337.346,412.9 343.5,412.5C 339.019,413.648 334.352,413.815 329.5,413C 327.68,412.8 326.347,411.966 325.5,410.5 Z"/></g>
<g><path style="opacity:1" fill="#f0888d" d="M 575.5,411.5 C 580.463,412.254 585.463,412.587 590.5,412.5C 586.354,413.647 582.02,413.814 577.5,413C 576.584,412.722 575.918,412.222 575.5,411.5 Z"/></g>
<g><path style="opacity:1" fill="#f39da2" d="M 475.5,486.5 C 475.5,486.833 475.5,487.167 475.5,487.5C 463.136,487.248 450.803,487.582 438.5,488.5C 438.611,487.883 438.944,487.383 439.5,487C 451.495,486.5 463.495,486.333 475.5,486.5 Z"/></g>
<g><path style="opacity:1" fill="#ed696e" d="M 475.5,487.5 C 475.5,487.167 475.5,486.833 475.5,486.5C 482.204,486.01 488.537,487.01 494.5,489.5C 488.21,488.459 481.877,487.792 475.5,487.5 Z"/></g>
<g><path style="opacity:1" fill="#fefdfd" d="M 475.5,487.5 C 481.877,487.792 488.21,488.459 494.5,489.5C 499.536,490.343 504.536,491.343 509.5,492.5C 511.515,493.924 513.848,494.59 516.5,494.5C 520.776,495.986 525.109,497.319 529.5,498.5C 531.033,500.245 533.033,501.245 535.5,501.5C 542.721,504.392 549.721,507.726 556.5,511.5C 556.973,512.906 557.973,513.573 559.5,513.5C 585.258,529.925 605.925,551.258 621.5,577.5C 622.811,582.061 623.478,586.728 623.5,591.5C 621.619,597.378 617.952,601.712 612.5,604.5C 608.232,605.373 603.898,605.706 599.5,605.5C 596.979,603.981 594.479,602.314 592,600.5C 579.783,578.785 563.283,561.118 542.5,547.5C 542.027,546.094 541.027,545.427 539.5,545.5C 534.807,543.153 530.14,540.82 525.5,538.5C 525.027,537.094 524.027,536.427 522.5,536.5C 514.717,532.953 506.717,530.286 498.5,528.5C 493.527,526.24 488.194,525.24 482.5,525.5C 469.34,524.34 456.006,524.173 442.5,525C 437.813,525.362 433.48,526.529 429.5,528.5C 425.2,528.719 421.2,529.719 417.5,531.5C 414.279,532.505 410.946,533.339 407.5,534C 406.944,534.383 406.611,534.883 406.5,535.5C 403.256,536.463 400.256,537.796 397.5,539.5C 395.326,539.75 393.659,540.75 392.5,542.5C 383.863,546.629 375.863,551.796 368.5,558C 361.302,564.864 354.468,572.03 348,579.5C 342.969,587.586 337.469,595.253 331.5,602.5C 326.178,605.11 320.511,606.11 314.5,605.5C 308.186,602.903 304.186,598.237 302.5,591.5C 302.522,586.728 303.189,582.061 304.5,577.5C 321.216,547.452 344.883,524.452 375.5,508.5C 377.027,508.573 378.027,507.906 378.5,506.5C 381.382,504.892 384.382,503.559 387.5,502.5C 389.153,502.34 390.486,501.674 391.5,500.5C 395.708,500.323 399.374,498.99 402.5,496.5C 403.833,496.167 405.167,495.833 406.5,495.5C 409.811,495.117 412.811,494.117 415.5,492.5C 419.202,492.579 422.868,492.246 426.5,491.5C 428.03,491.36 429.03,490.693 429.5,489.5C 432.43,488.701 435.43,488.368 438.5,488.5C 450.803,487.582 463.136,487.248 475.5,487.5 Z"/></g>
<g><path style="opacity:1" fill="#facbcc" d="M 429.5,489.5 C 429.03,490.693 428.03,491.36 426.5,491.5C 422.868,492.246 419.202,492.579 415.5,492.5C 419.942,491.01 424.609,490.01 429.5,489.5 Z"/></g>
<g><path style="opacity:1" fill="#f3989c" d="M 509.5,492.5 C 512.152,492.41 514.485,493.076 516.5,494.5C 513.848,494.59 511.515,493.924 509.5,492.5 Z"/></g>
<g><path style="opacity:1" fill="#f18b90" d="M 415.5,492.5 C 412.811,494.117 409.811,495.117 406.5,495.5C 409.008,493.446 412.008,492.446 415.5,492.5 Z"/></g>
<g><path style="opacity:1" fill="#f8bdc0" d="M 402.5,496.5 C 399.374,498.99 395.708,500.323 391.5,500.5C 394.939,498.796 398.605,497.462 402.5,496.5 Z"/></g>
<g><path style="opacity:1" fill="#f39a9d" d="M 529.5,498.5 C 531.967,498.755 533.967,499.755 535.5,501.5C 533.033,501.245 531.033,500.245 529.5,498.5 Z"/></g>
<g><path style="opacity:1" fill="#f1868a" d="M 391.5,500.5 C 390.486,501.674 389.153,502.34 387.5,502.5C 388.287,500.896 389.62,500.229 391.5,500.5 Z"/></g>
<g><path style="opacity:0.333" fill="#c95b5f" d="M 757.5,389.5 C 758.117,389.611 758.617,389.944 759,390.5C 768.605,445.92 764.438,500.087 746.5,553C 746.164,554.03 745.497,554.53 744.5,554.5C 762.553,500.671 766.887,445.671 757.5,389.5 Z"/></g>
<g><path style="opacity:1" fill="#f39fa3" d="M 378.5,506.5 C 378.027,507.906 377.027,508.573 375.5,508.5C 375.973,507.094 376.973,506.427 378.5,506.5 Z"/></g>
<g><path style="opacity:1" fill="#f18a8e" d="M 556.5,511.5 C 558.027,511.427 559.027,512.094 559.5,513.5C 557.973,513.573 556.973,512.906 556.5,511.5 Z"/></g>
<g><path style="opacity:0.09" fill="#c86367" d="M 167.5,515.5 C 168.649,515.791 169.316,516.624 169.5,518C 171.25,525.832 172.917,533.665 174.5,541.5C 170.64,533.405 168.307,524.739 167.5,515.5 Z"/></g>
<g><path style="opacity:1" fill="#f1868a" d="M 482.5,525.5 C 464.703,524.766 447.036,525.766 429.5,528.5C 433.48,526.529 437.813,525.362 442.5,525C 456.006,524.173 469.34,524.34 482.5,525.5 Z"/></g>
<g><path style="opacity:1" fill="#f8bdc0" d="M 482.5,525.5 C 488.194,525.24 493.527,526.24 498.5,528.5C 492.939,528.044 487.606,527.044 482.5,525.5 Z"/></g>
<g><path style="opacity:1" fill="#f07677" d="M 417.5,531.5 C 414.279,533.798 410.613,535.132 406.5,535.5C 406.611,534.883 406.944,534.383 407.5,534C 410.946,533.339 414.279,532.505 417.5,531.5 Z"/></g>
<g><path style="opacity:1" fill="#f2888d" d="M 522.5,536.5 C 524.027,536.427 525.027,537.094 525.5,538.5C 523.973,538.573 522.973,537.906 522.5,536.5 Z"/></g>
<g><path style="opacity:1" fill="#ef7375" d="M 397.5,539.5 C 396.514,541.408 394.848,542.408 392.5,542.5C 393.659,540.75 395.326,539.75 397.5,539.5 Z"/></g>
<g><path style="opacity:1" fill="#f4a2a6" d="M 539.5,545.5 C 541.027,545.427 542.027,546.094 542.5,547.5C 540.973,547.573 539.973,546.906 539.5,545.5 Z"/></g>
<g><path style="opacity:1" fill="#f6b1b4" d="M 304.5,577.5 C 303.189,582.061 302.522,586.728 302.5,591.5C 301.359,588.36 301.192,585.027 302,581.5C 302.2,579.68 303.034,578.347 304.5,577.5 Z"/></g>
<g><path style="opacity:1" fill="#f5aaae" d="M 621.5,577.5 C 622.966,578.347 623.8,579.68 624,581.5C 624.808,585.027 624.641,588.36 623.5,591.5C 623.478,586.728 622.811,582.061 621.5,577.5 Z"/></g>
<g><path style="opacity:0.165" fill="#c86567" d="M 744.5,555.5 C 743.34,560.814 741.673,565.98 739.5,571C 730.056,590.732 719.223,609.565 707,627.5C 706.329,628.252 705.496,628.586 704.5,628.5C 710.978,618.223 717.478,607.89 724,597.5C 731.625,583.76 738.458,569.76 744.5,555.5 Z"/></g>
<g><path style="opacity:1" fill="#ed6e73" d="M 331.5,602.5 C 330.64,604.614 328.973,605.78 326.5,606C 322.311,606.812 318.311,606.645 314.5,605.5C 320.511,606.11 326.178,605.11 331.5,602.5 Z"/></g>
<g><path style="opacity:1" fill="#ef7d82" d="M 612.5,604.5 C 612.389,605.117 612.056,605.617 611.5,606C 607.311,606.812 603.311,606.645 599.5,605.5C 603.898,605.706 608.232,605.373 612.5,604.5 Z"/></g>
<g><path style="opacity:0.592" fill="#c76466" d="M 174.5,541.5 C 175.586,541.62 176.253,542.287 176.5,543.5C 180.934,557.646 186.434,571.312 193,584.5C 213.997,624.335 241.831,658.669 276.5,687.5C 274.745,686.928 273.078,686.094 271.5,685C 228.532,649.31 197.032,605.144 177,552.5C 175.85,548.888 175.017,545.222 174.5,541.5 Z"/></g>
<g><path style="opacity:0.353" fill="#c66566" d="M 704.5,628.5 C 703.291,631.721 701.624,634.721 699.5,637.5C 672.147,671.337 639.147,698.504 600.5,719C 593.695,722.406 586.695,725.239 579.5,727.5C 628.971,704.733 670.638,671.733 704.5,628.5 Z"/></g>
<g><path style="opacity:0.635" fill="#c76869" d="M 276.5,687.5 C 280.392,689.062 283.725,691.395 286.5,694.5C 282.117,693.644 278.784,691.31 276.5,687.5 Z"/></g>
<g><path style="opacity:0.149" fill="#c36667" d="M 286.5,695.5 C 290.141,695.652 292.807,697.318 294.5,700.5C 291.296,699.617 288.629,697.95 286.5,695.5 Z"/></g>
<g><path style="opacity:0.314" fill="#c96e70" d="M 294.5,700.5 C 299.197,702.178 303.197,704.844 306.5,708.5C 301.803,706.822 297.803,704.156 294.5,700.5 Z"/></g>
<g><path style="opacity:0.2" fill="#c66467" d="M 307.5,708.5 C 318.361,714.078 329.361,719.578 340.5,725C 355.594,731.285 370.928,736.785 386.5,741.5C 380.751,740.813 375.084,739.647 369.5,738C 349.203,730.683 329.536,722.016 310.5,712C 308.937,711.241 307.937,710.074 307.5,708.5 Z"/></g>
<g><path style="opacity:0.467" fill="#c96467" d="M 576.5,728.5 C 576.53,729.497 576.03,730.164 575,730.5C 567.98,732.616 561.147,735.116 554.5,738C 539.866,742.893 524.866,746.06 509.5,747.5C 517.522,744.86 525.855,743.026 534.5,742C 548.598,737.809 562.598,733.309 576.5,728.5 Z"/></g>
<g><path style="opacity:0.271" fill="#c36466" d="M 386.5,741.5 C 392.191,742.372 397.858,743.372 403.5,744.5C 404.167,745.167 404.833,745.833 405.5,746.5C 399.977,745.696 394.477,744.696 389,743.5C 387.624,743.316 386.791,742.649 386.5,741.5 Z"/></g>
<g><path style="opacity:0.89" fill="#ce5358" d="M 403.5,744.5 C 409.475,745.44 415.475,746.273 421.5,747C 422.056,747.383 422.389,747.883 422.5,748.5C 416.783,748.207 411.116,747.54 405.5,746.5C 404.833,745.833 404.167,745.167 403.5,744.5 Z"/></g>
<g><path style="opacity:0.475" fill="#c45f63" d="M 423.5,748.5 C 449.152,750.892 474.819,750.892 500.5,748.5C 500.389,749.117 500.056,749.617 499.5,750C 474.5,752 449.5,752 424.5,750C 423.944,749.617 423.611,749.117 423.5,748.5 Z"/></g>
</svg>
