<?xml version="1.0" encoding="UTF-8"?>
<!DOCTYPE svg PUBLIC "-//W3C//DTD SVG 1.1//EN" "http://www.w3.org/Graphics/SVG/1.1/DTD/svg11.dtd">
<svg xmlns="http://www.w3.org/2000/svg" version="1.1" width="900px" height="900px" style="shape-rendering:geometricPrecision; text-rendering:geometricPrecision; image-rendering:optimizeQuality; fill-rule:evenodd; clip-rule:evenodd" xmlns:xlink="http://www.w3.org/1999/xlink">
<g><path style="opacity:0.962" fill="#4b4b4b" d="M 418.5,93.5 C 557.462,86.6976 666.629,139.364 746,251.5C 803.328,343.485 817.828,442.318 789.5,548C 755.27,654.083 687.604,729.417 586.5,774C 522.51,799.227 456.177,806.561 387.5,796C 288.201,776.404 210.201,725.237 153.5,642.5C 95.1066,549.606 80.6066,449.94 110,343.5C 145.471,236.695 214.971,161.195 318.5,117C 350.84,104.56 384.174,96.7268 418.5,93.5 Z M 455.5,126.5 C 469.401,125.601 483.401,126.268 497.5,128.5C 498.022,129.607 498.355,130.774 498.5,132C 496.888,141.665 493.221,150.499 487.5,158.5C 485.066,159.91 482.732,161.41 480.5,163C 477.438,163.741 474.438,163.575 471.5,162.5C 467.741,159.571 464.908,155.905 463,151.5C 461.579,144.446 459.913,137.446 458,130.5C 457.8,128.68 456.966,127.347 455.5,126.5 Z M 412.5,126.5 C 415.5,126.5 418.5,126.5 421.5,126.5C 426.072,136.672 429.239,147.339 431,158.5C 435.227,172.625 443.56,183.625 456,191.5C 483.14,200.56 504.473,193.226 520,169.5C 524.275,158.302 527.942,146.969 531,135.5C 544.783,138.991 558.283,143.491 571.5,149C 572.451,149.718 572.617,150.551 572,151.5C 557.937,164.418 544.77,178.084 532.5,192.5C 524.669,203.469 523.502,215.135 529,227.5C 535.652,239.224 544.485,248.891 555.5,256.5C 561.881,260.511 568.881,262.178 576.5,261.5C 580.531,261.432 584.531,261.099 588.5,260.5C 597.919,256.694 607.253,252.694 616.5,248.5C 621.131,247.338 625.798,247.172 630.5,248C 644.536,254.375 659.203,256.375 674.5,254C 682.508,250.847 689.175,246.014 694.5,239.5C 701.209,246.376 707.375,253.709 713,261.5C 729.217,285.599 742.551,311.266 753,338.5C 753.495,340.473 753.662,342.473 753.5,344.5C 740.16,344.827 726.826,344.993 713.5,345C 710.833,344.667 708.167,344.333 705.5,344C 689.495,337.665 673.162,332.332 656.5,328C 636.108,324.207 617.775,328.541 601.5,341C 576.988,363.651 563.654,391.818 561.5,425.5C 561.455,434.782 563.621,443.449 568,451.5C 572.628,456.293 577.462,460.96 582.5,465.5C 596.423,473.956 610.423,482.123 624.5,490C 635.657,494.481 646.824,498.981 658,503.5C 663.259,506.95 666.925,511.617 669,517.5C 669.667,524.833 669.667,532.167 669,539.5C 664.835,552.469 660.501,565.469 656,578.5C 644.925,615.306 656.092,642.639 689.5,660.5C 631.661,724.773 559.328,760.606 472.5,768C 361.972,772.984 271.139,733.817 200,650.5C 132.927,564.18 112.594,467.513 139,360.5C 141.426,351.645 144.426,342.979 148,334.5C 152.662,342.145 157.662,349.478 163,356.5C 184.406,380.422 208.24,401.422 234.5,419.5C 235.951,423.695 236.618,428.029 236.5,432.5C 232.109,455.529 236.943,476.195 251,494.5C 257.427,501.65 264.093,508.65 271,515.5C 274.139,519.541 276.805,523.875 279,528.5C 280.031,533.099 280.531,537.765 280.5,542.5C 276.855,562.907 279.689,582.241 289,600.5C 296.858,610.7 304.358,621.2 311.5,632C 315.169,644.153 317.336,656.653 318,669.5C 321.267,684.987 329.433,697.153 342.5,706C 367.27,714.855 385.104,707.355 396,683.5C 399.748,671.138 401.914,658.471 402.5,645.5C 403.053,640.004 404.887,635.004 408,630.5C 416.226,627.457 424.393,624.29 432.5,621C 442.176,614.314 446.843,604.981 446.5,593C 445.321,584.096 443.654,575.262 441.5,566.5C 443.822,559.034 447.822,552.534 453.5,547C 472.048,530.791 490.715,514.624 509.5,498.5C 516.389,489.263 519.723,478.93 519.5,467.5C 519.71,455.075 516.21,443.742 509,433.5C 493.648,413.599 473.482,402.266 448.5,399.5C 435.48,400.246 424.147,404.912 414.5,413.5C 409.056,416.68 404.556,415.68 401,410.5C 396.117,398.648 390.783,386.981 385,375.5C 377.127,364.97 366.96,357.47 354.5,353C 337.849,350 321.182,347 304.5,344C 287.077,338.871 271.577,330.371 258,318.5C 257.289,316.633 257.789,315.133 259.5,314C 264.287,312.517 268.954,310.85 273.5,309C 284.512,308.315 295.512,308.482 306.5,309.5C 314.34,309.332 321.84,307.665 329,304.5C 336.357,299.135 343.69,293.801 351,288.5C 354.457,287.341 357.957,286.341 361.5,285.5C 373.246,285.035 384.579,282.868 395.5,279C 405.276,273.545 411.776,265.379 415,254.5C 418.698,242.337 419.364,230.004 417,217.5C 411.17,195.52 403.504,174.187 394,153.5C 391.339,145.846 388.839,138.179 386.5,130.5C 395.391,129.765 404.058,128.432 412.5,126.5 Z M 353.5,138.5 C 354.497,138.47 355.164,138.97 355.5,140C 358.583,149.177 361.583,158.344 364.5,167.5C 371.311,183.776 377.811,200.109 384,216.5C 386.138,226.573 385.971,236.573 383.5,246.5C 382.155,247.347 381.155,248.513 380.5,250C 369.948,252.314 359.281,253.981 348.5,255C 345.58,256.234 342.58,257.234 339.5,258C 330.178,263.982 320.845,269.982 311.5,276C 299.827,276.222 288.16,276.222 276.5,276C 261.435,277.374 247.768,282.374 235.5,291C 231.956,294.542 228.789,298.375 226,302.5C 225.267,307.844 224.1,313.011 222.5,318C 223.537,324.607 225.871,330.773 229.5,336.5C 246.827,353.615 267.161,366.115 290.5,374C 307.41,377.435 324.41,380.435 341.5,383C 349.077,385.412 355.077,389.912 359.5,396.5C 364.085,408.497 369.418,420.164 375.5,431.5C 389.569,448.744 406.902,452.744 427.5,443.5C 432.528,439.976 437.694,436.643 443,433.5C 446.789,432.438 450.623,432.271 454.5,433C 465.791,436.802 475.125,443.302 482.5,452.5C 488.562,461.063 488.896,469.73 483.5,478.5C 468.341,491.574 453.008,504.407 437.5,517C 429.13,524.55 421.797,533.05 415.5,542.5C 411.665,549.675 409.998,557.342 410.5,565.5C 410.694,575.056 411.861,584.389 414,593.5C 406.264,595.645 398.764,598.478 391.5,602C 380.026,610.33 373.359,621.663 371.5,636C 370.192,646.844 368.526,657.678 366.5,668.5C 365.083,670.709 363.916,673.043 363,675.5C 361.806,676.43 360.473,677.097 359,677.5C 355.648,674.804 352.982,671.471 351,667.5C 349.458,655.866 347.625,644.366 345.5,633C 343.671,625.514 341.004,618.347 337.5,611.5C 328.71,600.377 320.71,588.71 313.5,576.5C 312.866,571.99 312.199,567.49 311.5,563C 312.637,550.867 312.804,538.7 312,526.5C 311.128,522.42 309.961,518.42 308.5,514.5C 304.564,506.106 299.731,498.44 294,491.5C 283.906,483.692 275.906,474.026 270,462.5C 268.881,447.556 268.048,432.556 267.5,417.5C 266.554,413.657 265.554,409.824 264.5,406C 262.41,402.484 260.077,399.151 257.5,396C 243.195,385.359 229.195,374.359 215.5,363C 205.68,353.346 196.013,343.513 186.5,333.5C 183.711,329.425 181.045,325.259 178.5,321C 175.584,311.302 171.917,301.969 167.5,293C 203.714,227.296 256.381,179.463 325.5,149.5C 334.034,146.197 342.7,143.197 351.5,140.5C 352.713,140.253 353.38,139.586 353.5,138.5 Z M 603.5,164.5 C 627.626,177.564 649.626,193.564 669.5,212.5C 670.586,216.514 669.253,219.68 665.5,222C 664,222.167 662.5,222.333 661,222.5C 650.773,220.035 640.607,217.535 630.5,215C 620.452,213.647 610.785,214.98 601.5,219C 593.656,223.551 585.323,227.051 576.5,229.5C 574.803,229.101 573.137,228.601 571.5,228C 566.377,223.879 562.377,218.879 559.5,213C 560.029,211.441 560.696,209.941 561.5,208.5C 575.88,194.122 589.88,179.455 603.5,164.5 Z M 635.5,359.5 C 642.23,359.226 648.897,359.726 655.5,361C 667.176,365.007 678.843,369.174 690.5,373.5C 714.769,378.426 739.103,378.759 763.5,374.5C 782.586,468.032 765.586,554.032 712.5,632.5C 711.667,632.833 710.833,633.167 710,633.5C 690.517,627.169 682.351,613.836 685.5,593.5C 689.68,581.419 693.846,569.419 698,557.5C 699.628,547.087 701.128,536.754 702.5,526.5C 702.007,514.861 699.174,503.861 694,493.5C 689.403,486.98 683.903,481.48 677.5,477C 659.562,469.577 641.896,461.577 624.5,453C 617.035,448.698 609.701,444.198 602.5,439.5C 598.78,436.945 595.947,433.612 594,429.5C 594.69,405.412 603.523,384.912 620.5,368C 625.226,364.638 630.226,361.805 635.5,359.5 Z"/></g>
</svg>
