<?xml version="1.0" encoding="UTF-8"?>
<!DOCTYPE svg PUBLIC "-//W3C//DTD SVG 1.1//EN" "http://www.w3.org/Graphics/SVG/1.1/DTD/svg11.dtd">
<svg xmlns="http://www.w3.org/2000/svg" version="1.1" width="900px" height="900px" style="shape-rendering:geometricPrecision; text-rendering:geometricPrecision; image-rendering:optimizeQuality; fill-rule:evenodd; clip-rule:evenodd" xmlns:xlink="http://www.w3.org/1999/xlink">
<g><path style="opacity:0.914" fill="#aeaeae" d="M 427.5,93.5 C 442.167,93.5 456.833,93.5 471.5,93.5C 471.5,93.8333 471.5,94.1667 471.5,94.5C 455.15,94.2972 438.816,94.6305 422.5,95.5C 424.167,94.8333 425.833,94.1667 427.5,93.5 Z"/></g>
<g><path style="opacity:0.553" fill="#bfbfbf" d="M 427.5,93.5 C 425.833,94.1667 424.167,94.8333 422.5,95.5C 416.477,95.502 410.477,95.8354 404.5,96.5C 404.611,95.8826 404.944,95.3826 405.5,95C 412.829,94.3721 420.163,93.8721 427.5,93.5 Z"/></g>
<g><path style="opacity:1" fill="#949494" d="M 471.5,94.5 C 491.098,96.5552 510.598,99.5552 530,103.5C 531.07,103.472 531.903,103.139 532.5,102.5C 532.833,102.5 533.167,102.5 533.5,102.5C 533.953,103.458 534.619,104.292 535.5,105C 539.803,106.05 544.137,106.884 548.5,107.5C 549.167,107.5 549.833,107.5 550.5,107.5C 551.058,108.79 552.058,109.623 553.5,110C 556.168,110.567 558.834,111.067 561.5,111.5C 575.999,117.673 590.666,123.673 605.5,129.5C 620.251,137.978 634.918,146.644 649.5,155.5C 663.098,165.756 676.431,176.423 689.5,187.5C 692.833,191.5 696.5,195.167 700.5,198.5C 703.909,202.575 707.575,206.242 711.5,209.5C 713.117,212.784 715.45,215.451 718.5,217.5C 721.129,222.789 724.796,227.123 729.5,230.5C 729.5,230.833 729.5,231.167 729.5,231.5C 732.812,236.804 736.479,241.804 740.5,246.5C 741.026,248.23 742.026,249.564 743.5,250.5C 743.557,251.609 743.89,252.609 744.5,253.5C 749.569,260.571 754.236,267.904 758.5,275.5C 758.845,278.198 760.178,280.198 762.5,281.5C 762.5,281.833 762.5,282.167 762.5,282.5C 764.107,287.391 766.44,291.724 769.5,295.5C 769.5,296.167 769.833,296.5 770.5,296.5C 769.72,298.83 770.387,300.83 772.5,302.5C 772.792,306.066 774.126,309.066 776.5,311.5C 776.5,311.833 776.5,312.167 776.5,312.5C 776.866,314.905 777.533,317.238 778.5,319.5C 778.747,320.713 779.414,321.38 780.5,321.5C 780.5,321.833 780.5,322.167 780.5,322.5C 780.552,325.346 781.552,327.68 783.5,329.5C 783.833,330.167 784.167,330.833 784.5,331.5C 783.957,331.56 783.624,331.893 783.5,332.5C 786.405,341.208 789.072,349.874 791.5,358.5C 791.747,361.854 792.747,364.854 794.5,367.5C 794.5,368.167 794.5,368.833 794.5,369.5C 795.089,376.774 796.423,383.774 798.5,390.5C 798.5,391.167 798.5,391.833 798.5,392.5C 798.998,397.152 799.331,401.819 799.5,406.5C 801.182,427.126 801.848,447.793 801.5,468.5C 800.333,479.338 799.333,490.338 798.5,501.5C 798.5,502.833 798.5,504.167 798.5,505.5C 797.073,507.148 796.24,509.148 796,511.5C 794.186,519.441 792.686,527.441 791.5,535.5C 791.5,536.167 791.5,536.833 791.5,537.5C 790.414,537.62 789.747,538.287 789.5,539.5C 784.813,556.894 779.147,573.894 772.5,590.5C 768.385,597.067 765.051,604.067 762.5,611.5C 762.5,611.833 762.5,612.167 762.5,612.5C 757.833,617.824 754.166,623.824 751.5,630.5C 747.089,635.648 743.422,641.314 740.5,647.5C 735.122,653.878 730.122,660.545 725.5,667.5C 717.195,676.808 708.862,686.141 700.5,695.5C 700.5,696.167 700.167,696.5 699.5,696.5C 698.167,697.167 697.167,698.167 696.5,699.5C 665.684,728.07 631.35,751.403 593.5,769.5C 587.695,771.027 582.362,773.361 577.5,776.5C 577.167,776.5 576.833,776.5 576.5,776.5C 572.468,777.082 568.801,778.416 565.5,780.5C 558.507,782.328 551.507,784.161 544.5,786C 543.944,786.383 543.611,786.883 543.5,787.5C 537.82,787.963 532.486,789.297 527.5,791.5C 527.167,791.5 526.833,791.5 526.5,791.5C 524.139,791.674 521.806,792.007 519.5,792.5C 507.374,794.511 495.374,796.511 483.5,798.5C 482.5,798.5 481.5,798.5 480.5,798.5C 459.824,799.747 439.157,799.747 418.5,798.5C 417.5,798.5 416.5,798.5 415.5,798.5C 403.574,796.681 391.574,794.681 379.5,792.5C 377.139,792.326 374.806,791.993 372.5,791.5C 370.05,791.702 367.717,791.369 365.5,790.5C 357.944,786.985 349.944,784.652 341.5,783.5C 339.152,781.903 336.486,780.903 333.5,780.5C 332.833,780.5 332.167,780.5 331.5,780.5C 328.912,778.408 325.912,777.075 322.5,776.5C 322.167,776.5 321.833,776.5 321.5,776.5C 318.482,774.6 315.149,773.267 311.5,772.5C 309.967,770.755 307.967,769.755 305.5,769.5C 305.167,769.5 304.833,769.5 304.5,769.5C 297.484,765.325 290.151,761.659 282.5,758.5C 280.664,756.412 278.331,755.079 275.5,754.5C 269.842,750.335 263.842,746.668 257.5,743.5C 256.341,741.75 254.674,740.75 252.5,740.5C 241.022,731.26 229.356,722.26 217.5,713.5C 216.738,711.738 215.404,710.738 213.5,710.5C 210.833,705.833 207.167,702.167 202.5,699.5C 202.043,697.227 200.71,695.894 198.5,695.5C 197.833,694.167 196.833,693.167 195.5,692.5C 188.131,684.136 180.798,675.802 173.5,667.5C 172.92,665.251 171.587,663.585 169.5,662.5C 166.564,656.959 162.897,651.959 158.5,647.5C 155.578,641.314 151.911,635.648 147.5,630.5C 144.557,623.595 140.89,617.262 136.5,611.5C 133.949,604.067 130.615,597.067 126.5,590.5C 120.121,574.531 114.621,558.197 110,541.5C 109.392,539.934 108.558,538.6 107.5,537.5C 107.5,536.833 107.5,536.167 107.5,535.5C 106.349,525.087 104.016,515.087 100.5,505.5C 100.5,504.167 100.5,502.833 100.5,501.5C 99.6671,490.338 98.6671,479.338 97.5,468.5C 97.0806,447.452 97.7473,426.452 99.5,405.5C 99.4372,400.797 99.7705,396.13 100.5,391.5C 100.5,390.833 100.5,390.167 100.5,389.5C 101.222,389.082 101.722,388.416 102,387.5C 104.124,377.573 105.958,367.573 107.5,357.5C 109.579,352.808 110.912,347.808 111.5,342.5C 112.117,342.389 112.617,342.056 113,341.5C 113.995,337.855 114.828,334.188 115.5,330.5C 115.5,330.167 115.5,329.833 115.5,329.5C 119.162,324.493 121.495,318.826 122.5,312.5C 122.5,312.167 122.5,311.833 122.5,311.5C 124.584,308.947 125.917,305.947 126.5,302.5C 129.044,298.419 131.378,294.086 133.5,289.5C 133.376,288.893 133.043,288.56 132.5,288.5C 132.5,287.833 132.833,287.5 133.5,287.5C 136.808,284.239 139.141,280.239 140.5,275.5C 140.5,275.167 140.5,274.833 140.5,274.5C 142.588,272.664 143.921,270.331 144.5,267.5C 146.25,266.341 147.25,264.674 147.5,262.5C 151.625,257.618 155.292,252.285 158.5,246.5C 158.5,246.167 158.5,245.833 158.5,245.5C 162.844,241.475 166.511,236.808 169.5,231.5C 173.647,227.205 177.313,222.538 180.5,217.5C 183.313,215.176 185.646,212.51 187.5,209.5C 191.5,206.167 195.167,202.5 198.5,198.5C 202.5,195.167 206.167,191.5 209.5,187.5C 219.456,179.219 229.456,170.886 239.5,162.5C 243.192,160.656 246.525,158.323 249.5,155.5C 257.716,151.233 265.382,146.233 272.5,140.5C 275.331,139.921 277.664,138.588 279.5,136.5C 281.308,136.509 282.975,136.009 284.5,135C 287.407,133.391 290.073,131.558 292.5,129.5C 292.833,129.5 293.167,129.5 293.5,129.5C 298.961,127.933 303.961,125.6 308.5,122.5C 318.124,119.346 327.458,115.68 336.5,111.5C 336.833,111.5 337.167,111.5 337.5,111.5C 340.218,110.957 342.885,110.291 345.5,109.5C 347.698,109.88 349.365,109.213 350.5,107.5C 359.657,106.326 368.323,103.993 376.5,100.5C 377.492,100.672 378.158,100.338 378.5,99.5C 379.265,99.9234 380.098,100.257 381,100.5C 388.653,99.2695 396.153,97.9362 403.5,96.5C 403.833,96.5 404.167,96.5 404.5,96.5C 410.477,95.8354 416.477,95.502 422.5,95.5C 438.816,94.6305 455.15,94.2972 471.5,94.5 Z M 424.5,131.5 C 424.5,132.167 424.5,132.833 424.5,133.5C 425.099,137.021 426.432,140.021 428.5,142.5C 428.5,142.833 428.5,143.167 428.5,143.5C 429.093,150.971 430.759,158.138 433.5,165C 433.836,166.03 434.503,166.53 435.5,166.5C 435.5,166.833 435.5,167.167 435.5,167.5C 436.574,171.531 438.408,175.198 441,178.5C 442.451,180.464 444.284,181.797 446.5,182.5C 448.482,186.646 451.648,189.646 456,191.5C 457.766,192.233 459.599,192.567 461.5,192.5C 462.568,193.434 463.901,193.768 465.5,193.5C 468.768,194.822 472.435,195.489 476.5,195.5C 480.565,195.489 484.232,194.822 487.5,193.5C 487.833,193.5 488.167,193.5 488.5,193.5C 495.715,192.356 502.049,189.356 507.5,184.5C 512.133,179.909 516.299,174.909 520,169.5C 520.977,167.26 521.477,164.927 521.5,162.5C 522.497,162.53 523.164,162.03 523.5,161C 524.566,157.906 525.232,154.74 525.5,151.5C 526.586,151.38 527.253,150.713 527.5,149.5C 528.269,146.885 528.603,144.219 528.5,141.5C 530.13,139.974 530.963,137.974 531,135.5C 531.671,136.252 532.504,136.586 533.5,136.5C 533.833,136.5 534.167,136.5 534.5,136.5C 537.679,137.793 541.012,138.46 544.5,138.5C 544.611,139.117 544.944,139.617 545.5,140C 549.145,140.995 552.812,141.828 556.5,142.5C 556.833,142.5 557.167,142.5 557.5,142.5C 559.09,144.821 561.423,145.821 564.5,145.5C 566.269,147.397 568.602,148.564 571.5,149C 572.451,149.718 572.617,150.551 572,151.5C 564.842,158.457 557.675,165.457 550.5,172.5C 549.37,173.622 548.703,174.956 548.5,176.5C 543.853,178.982 540.353,182.649 538,187.5C 534.168,189.833 531.668,193.166 530.5,197.5C 530.5,197.833 530.5,198.167 530.5,198.5C 528.031,199.607 527.031,201.607 527.5,204.5C 525.953,206.807 525.287,209.473 525.5,212.5C 526.05,217.615 527.217,222.615 529,227.5C 536.252,239.456 545.585,249.456 557,257.5C 569.964,262.83 582.964,262.83 596,257.5C 597.03,257.164 597.53,256.497 597.5,255.5C 597.833,255.5 598.167,255.5 598.5,255.5C 602.182,255.289 605.182,253.956 607.5,251.5C 612.669,249.587 618.002,248.254 623.5,247.5C 629.787,248.652 636.12,249.985 642.5,251.5C 643.167,251.5 643.833,251.5 644.5,251.5C 644.791,252.649 645.624,253.316 647,253.5C 656.14,255.759 665.306,255.926 674.5,254C 676.119,253.764 677.119,252.931 677.5,251.5C 679.655,251.628 681.655,251.128 683.5,250C 687.062,246.359 690.729,242.859 694.5,239.5C 699.172,244.012 703.339,249.012 707,254.5C 707.671,255.252 708.504,255.586 709.5,255.5C 710.727,258.582 712.227,261.582 714,264.5C 716.954,268.782 720.121,272.782 723.5,276.5C 726.463,282.427 729.463,288.427 732.5,294.5C 732.957,295.298 733.624,295.631 734.5,295.5C 734.584,298.682 735.917,301.015 738.5,302.5C 739.178,307.514 740.844,312.181 743.5,316.5C 743.957,317.298 744.624,317.631 745.5,317.5C 745.927,320.376 746.594,323.209 747.5,326C 747.836,327.03 748.503,327.53 749.5,327.5C 749.5,327.833 749.5,328.167 749.5,328.5C 749.595,330.786 750.262,332.786 751.5,334.5C 751.5,334.833 751.5,335.167 751.5,335.5C 751.427,337.027 752.094,338.027 753.5,338.5C 753.5,340.5 753.5,342.5 753.5,344.5C 752.833,344.5 752.167,344.5 751.5,344.5C 736.153,345.325 720.819,345.325 705.5,344.5C 705.389,343.883 705.056,343.383 704.5,343C 689.268,337.644 673.935,332.811 658.5,328.5C 658.167,328.5 657.833,328.5 657.5,328.5C 646.532,326.072 635.532,326.238 624.5,329C 623.944,329.383 623.611,329.883 623.5,330.5C 620.423,330.179 618.09,331.179 616.5,333.5C 614.063,333.756 611.729,334.423 609.5,335.5C 607.007,337.58 604.341,339.414 601.5,341C 600.177,341.816 599.511,342.983 599.5,344.5C 595.816,345.517 593.483,347.85 592.5,351.5C 590.167,351.833 588.833,353.167 588.5,355.5C 586.088,355.694 585.088,357.027 585.5,359.5C 580.383,364.377 576.716,370.377 574.5,377.5C 574.5,377.833 574.5,378.167 574.5,378.5C 571.84,381.113 570.507,384.446 570.5,388.5C 565.886,395.246 563.552,402.913 563.5,411.5C 563.5,411.833 563.5,412.167 563.5,412.5C 562.883,412.611 562.383,412.944 562,413.5C 560.745,425.118 561.912,436.451 565.5,447.5C 566.727,448.59 567.56,449.924 568,451.5C 568.671,452.252 569.504,452.586 570.5,452.5C 570.703,454.044 571.37,455.378 572.5,456.5C 575.252,459.263 578.252,461.597 581.5,463.5C 584.345,466.991 588.012,469.324 592.5,470.5C 592.369,471.376 592.702,472.043 593.5,472.5C 603.865,478.347 614.199,484.181 624.5,490C 633.382,493.682 642.382,496.849 651.5,499.5C 653.507,501.837 656.173,503.171 659.5,503.5C 661.197,506.191 663.363,508.524 666,510.5C 666.522,513.281 667.689,515.615 669.5,517.5C 669.5,517.833 669.5,518.167 669.5,518.5C 669.5,524.833 669.5,531.167 669.5,537.5C 669.5,538.167 669.5,538.833 669.5,539.5C 668.883,539.611 668.383,539.944 668,540.5C 666.283,549.039 664.116,557.372 661.5,565.5C 661.5,565.833 661.5,566.167 661.5,566.5C 657.286,572.657 654.952,579.657 654.5,587.5C 654.5,588.167 654.5,588.833 654.5,589.5C 652.718,593.398 651.718,597.731 651.5,602.5C 651.725,607.592 652.725,612.259 654.5,616.5C 654.5,616.833 654.5,617.167 654.5,617.5C 654.547,620.568 655.047,623.568 656,626.5C 661.471,636.827 668.638,645.827 677.5,653.5C 679.656,655.009 681.99,656.009 684.5,656.5C 685.486,658.516 687.153,659.849 689.5,660.5C 681.719,670.07 673.053,678.736 663.5,686.5C 662.37,687.622 661.703,688.956 661.5,690.5C 659.516,690.383 657.85,691.05 656.5,692.5C 654.056,694.895 651.39,697.062 648.5,699C 647.748,699.671 647.414,700.504 647.5,701.5C 645.742,701.877 644.075,702.544 642.5,703.5C 638.802,706.203 635.469,709.203 632.5,712.5C 629.733,712.87 627.733,714.204 626.5,716.5C 622.005,717.685 618.339,720.018 615.5,723.5C 614.448,723.351 613.448,723.517 612.5,724C 610.681,724.74 609.348,725.907 608.5,727.5C 606.692,727.491 605.025,727.991 603.5,729C 600.593,730.609 597.927,732.442 595.5,734.5C 592.379,734.736 590.046,736.069 588.5,738.5C 588.167,738.5 587.833,738.5 587.5,738.5C 582.87,740.093 578.204,741.76 573.5,743.5C 572.287,743.747 571.62,744.414 571.5,745.5C 571.167,745.5 570.833,745.5 570.5,745.5C 567.997,746.084 565.497,746.751 563,747.5C 561.97,747.836 561.47,748.503 561.5,749.5C 558.189,749.307 555.522,750.307 553.5,752.5C 550.115,752.846 546.782,753.512 543.5,754.5C 542.287,754.747 541.62,755.414 541.5,756.5C 540.833,756.5 540.167,756.5 539.5,756.5C 535.116,757.01 530.782,757.843 526.5,759C 525.944,759.383 525.611,759.883 525.5,760.5C 525.167,760.5 524.833,760.5 524.5,760.5C 521.807,760.572 519.14,760.905 516.5,761.5C 514.97,761.64 513.97,762.307 513.5,763.5C 512.833,763.5 512.167,763.5 511.5,763.5C 503.507,764.332 495.507,765.166 487.5,766C 486.944,766.383 486.611,766.883 486.5,767.5C 486.167,767.5 485.833,767.5 485.5,767.5C 466.178,768.307 446.845,768.64 427.5,768.5C 422.93,767.559 418.263,767.226 413.5,767.5C 413.167,767.5 412.833,767.5 412.5,767.5C 412.389,766.883 412.056,766.383 411.5,766C 404.138,765.33 396.805,764.496 389.5,763.5C 388.167,763.5 386.833,763.5 385.5,763.5C 385.03,762.307 384.03,761.64 382.5,761.5C 370.169,758.632 357.836,755.632 345.5,752.5C 345.38,751.414 344.713,750.747 343.5,750.5C 332.804,746.481 322.137,742.481 311.5,738.5C 311.167,738.5 310.833,738.5 310.5,738.5C 310.631,737.624 310.298,736.957 309.5,736.5C 294.656,729.236 280.323,721.236 266.5,712.5C 263.531,709.203 260.198,706.203 256.5,703.5C 254.925,702.544 253.258,701.877 251.5,701.5C 251.631,700.761 251.464,700.094 251,699.5C 247.996,697.326 245.163,694.992 242.5,692.5C 241.15,691.05 239.484,690.383 237.5,690.5C 233.23,684.395 228.063,679.062 222,674.5C 212.89,665.398 204.556,655.731 197,645.5C 196.184,644.177 195.017,643.511 193.5,643.5C 193.649,642.448 193.483,641.448 193,640.5C 190.706,637.527 188.206,634.86 185.5,632.5C 185.912,630.027 184.912,628.694 182.5,628.5C 182.5,628.167 182.5,627.833 182.5,627.5C 179.524,622.221 176.524,616.888 173.5,611.5C 173.043,610.702 172.376,610.369 171.5,610.5C 171.416,607.318 170.083,604.985 167.5,603.5C 164.582,595.714 160.915,588.381 156.5,581.5C 156.614,578.784 155.614,576.784 153.5,575.5C 153.162,573.146 152.662,570.813 152,568.5C 151.583,567.244 150.75,566.577 149.5,566.5C 149.5,566.167 149.5,565.833 149.5,565.5C 149.741,563.102 149.074,561.102 147.5,559.5C 147.5,559.167 147.5,558.833 147.5,558.5C 146.005,555.392 145.005,552.059 144.5,548.5C 144.253,547.287 143.586,546.62 142.5,546.5C 142.5,546.167 142.5,545.833 142.5,545.5C 138.946,530.948 135.28,516.615 131.5,502.5C 131.5,502.167 131.5,501.833 131.5,501.5C 130.535,491.184 129.702,480.85 129,470.5C 128.617,469.944 128.117,469.611 127.5,469.5C 127.333,454.163 127.5,438.83 128,423.5C 129.751,412.996 130.918,402.329 131.5,391.5C 131.5,391.167 131.5,390.833 131.5,390.5C 132.725,389.848 133.392,388.681 133.5,387C 136.192,373.368 139.192,359.868 142.5,346.5C 144.62,342.815 146.453,338.815 148,334.5C 150.947,339.619 154.114,344.619 157.5,349.5C 158.766,351.404 160.433,352.737 162.5,353.5C 162.351,354.552 162.517,355.552 163,356.5C 175.838,370.337 189.338,383.504 203.5,396C 204.745,396.791 206.078,397.291 207.5,397.5C 210.959,402.579 215.626,406.246 221.5,408.5C 221.414,409.496 221.748,410.329 222.5,411C 226.734,414.082 231.067,416.916 235.5,419.5C 236.674,426.889 236.674,434.222 235.5,441.5C 234.638,454.28 236.471,466.614 241,478.5C 244.302,483.813 247.635,489.146 251,494.5C 252.77,496.742 254.937,498.408 257.5,499.5C 261.044,505.552 265.544,510.885 271,515.5C 274.139,519.541 276.805,523.875 279,528.5C 280.031,533.099 280.531,537.765 280.5,542.5C 279.637,553.161 279.47,563.827 280,574.5C 279.947,577.675 280.78,580.342 282.5,582.5C 282.979,589.104 285.146,595.104 289,600.5C 296.396,610.708 303.896,620.708 311.5,630.5C 312.329,634.486 313.163,638.486 314,642.5C 314.383,643.056 314.883,643.389 315.5,643.5C 315.5,643.833 315.5,644.167 315.5,644.5C 315.552,648.198 315.886,651.865 316.5,655.5C 316.726,663.43 318.059,671.097 320.5,678.5C 320.747,679.713 321.414,680.38 322.5,680.5C 325.166,690.827 331.166,698.493 340.5,703.5C 340.953,704.458 341.619,705.292 342.5,706C 351.225,709.173 360.225,710.173 369.5,709C 370.056,708.617 370.389,708.117 370.5,707.5C 376.717,706.478 381.884,703.478 386,698.5C 386.464,697.906 386.631,697.239 386.5,696.5C 388.017,696.489 389.184,695.823 390,694.5C 398.829,680.145 402.663,664.479 401.5,647.5C 401.5,646.833 401.5,646.167 401.5,645.5C 403.265,642.607 404.432,639.274 405,635.5C 406.501,632.091 408.668,629.424 411.5,627.5C 415.851,626.83 420.184,625.996 424.5,625C 425.056,624.617 425.389,624.117 425.5,623.5C 433.987,620.846 440.154,615.513 444,607.5C 444.49,606.207 444.657,604.873 444.5,603.5C 444.5,602.833 444.5,602.167 444.5,601.5C 445.814,599.085 446.481,596.252 446.5,593C 446.333,590.167 446.167,587.333 446,584.5C 445.617,583.944 445.117,583.611 444.5,583.5C 444.5,583.167 444.5,582.833 444.5,582.5C 444.142,578.491 443.642,574.491 443,570.5C 442.617,569.944 442.117,569.611 441.5,569.5C 441.5,567.5 441.5,565.5 441.5,563.5C 444.565,557.739 448.398,552.406 453,547.5C 460.567,540.64 468.4,534.14 476.5,528C 478.742,526.23 480.408,524.063 481.5,521.5C 482.922,521.291 484.255,520.791 485.5,520C 491.873,513.958 498.54,508.292 505.5,503C 517.735,489.218 522.068,473.385 518.5,455.5C 518.167,454.833 517.833,454.167 517.5,453.5C 517.511,449.543 516.178,446.21 513.5,443.5C 513.614,440.784 512.614,438.784 510.5,437.5C 509.657,434.484 508.157,431.817 506,429.5C 505.329,428.748 504.496,428.414 503.5,428.5C 503.167,426.167 501.833,424.833 499.5,424.5C 498.457,421.944 496.79,419.777 494.5,418C 489.804,414.626 485.137,411.293 480.5,408C 475.456,405.311 470.122,403.477 464.5,402.5C 463.833,402.5 463.167,402.5 462.5,402.5C 461.486,401.235 459.986,400.569 458,400.5C 451.996,399.232 445.996,399.232 440,400.5C 438.319,400.608 437.152,401.275 436.5,402.5C 433.012,402.705 429.679,403.539 426.5,405C 422.032,406.988 418.366,409.821 415.5,413.5C 409.723,416.846 404.89,415.846 401,410.5C 400.647,407.848 399.48,405.848 397.5,404.5C 397.162,402.146 396.662,399.813 396,397.5C 395.583,396.244 394.75,395.577 393.5,395.5C 393.5,395.167 393.5,394.833 393.5,394.5C 393.614,391.784 392.614,389.784 390.5,388.5C 390.5,388.167 390.5,387.833 390.5,387.5C 389.483,383.133 387.65,379.133 385,375.5C 383.574,373.234 381.74,371.568 379.5,370.5C 379.167,368.167 377.833,366.833 375.5,366.5C 373.074,363.245 370.074,360.412 366.5,358C 363.978,356.659 361.311,355.826 358.5,355.5C 358.167,355.5 357.833,355.5 357.5,355.5C 357.53,354.503 357.03,353.836 356,353.5C 352.553,352.511 349.053,351.844 345.5,351.5C 344.833,351.5 344.167,351.5 343.5,351.5C 342.486,350.235 340.986,349.569 339,349.5C 327.475,347.846 315.975,346.013 304.5,344C 295.447,340.594 286.447,337.094 277.5,333.5C 277.631,332.624 277.298,331.957 276.5,331.5C 273.153,329.809 269.819,328.142 266.5,326.5C 266.631,325.761 266.464,325.094 266,324.5C 262.51,322.673 259.677,320.173 257.5,317C 257.759,315.739 258.426,314.739 259.5,314C 263.027,313.049 266.36,311.716 269.5,310C 281.788,308.213 294.121,308.047 306.5,309.5C 309.845,309.277 313.178,308.944 316.5,308.5C 318.333,308.415 319.666,307.748 320.5,306.5C 320.833,306.5 321.167,306.5 321.5,306.5C 326.372,305.932 330.705,304.099 334.5,301C 338.814,297.176 343.481,293.843 348.5,291C 349.252,290.329 349.586,289.496 349.5,288.5C 353.933,287.795 357.933,286.461 361.5,284.5C 362.167,284.5 362.833,284.5 363.5,284.5C 376.826,285.458 389.159,282.625 400.5,276C 401.252,275.329 401.586,274.496 401.5,273.5C 402.922,273.291 404.255,272.791 405.5,272C 407.211,269.411 409.045,266.911 411,264.5C 411.977,262.26 412.477,259.927 412.5,257.5C 413.931,257.119 414.764,256.119 415,254.5C 418.698,242.337 419.364,230.004 417,217.5C 416.617,216.944 416.117,216.611 415.5,216.5C 415.5,215.833 415.5,215.167 415.5,214.5C 415.493,211.962 415.159,209.462 414.5,207C 414.316,205.624 413.649,204.791 412.5,204.5C 412.453,201.432 411.953,198.432 411,195.5C 410.764,193.881 409.931,192.881 408.5,192.5C 408.5,192.167 408.5,191.833 408.5,191.5C 408.099,187.595 406.766,184.262 404.5,181.5C 404.5,181.167 404.5,180.833 404.5,180.5C 402.411,175.307 400.578,169.974 399,164.5C 398.617,163.944 398.117,163.611 397.5,163.5C 397.118,159.668 395.785,156.335 393.5,153.5C 393.693,150.189 392.693,147.522 390.5,145.5C 390.5,145.167 390.5,144.833 390.5,144.5C 389.78,139.616 388.447,134.949 386.5,130.5C 390.188,130.45 393.855,130.116 397.5,129.5C 399.333,129.415 400.666,128.748 401.5,127.5C 402.5,127.5 403.5,127.5 404.5,127.5C 410.161,127.093 415.828,126.76 421.5,126.5C 421.259,129.034 422.259,130.7 424.5,131.5 Z"/></g>
<g><path style="opacity:0.716" fill="#bbbbbb" d="M 471.5,94.5 C 471.5,94.1667 471.5,93.8333 471.5,93.5C 478.837,93.8721 486.171,94.3721 493.5,95C 506.721,96.6078 519.721,99.1078 532.5,102.5C 531.903,103.139 531.07,103.472 530,103.5C 510.598,99.5552 491.098,96.5552 471.5,94.5 Z"/></g>
<g><path style="opacity:0.32" fill="#bebebe" d="M 403.5,96.5 C 396.153,97.9362 388.653,99.2695 381,100.5C 380.098,100.257 379.265,99.9234 378.5,99.5C 386.609,97.7786 394.943,96.7786 403.5,96.5 Z"/></g>
<g><path style="opacity:0.588" fill="#bbbbbb" d="M 376.5,100.5 C 368.323,103.993 359.657,106.326 350.5,107.5C 358.577,103.644 367.244,101.311 376.5,100.5 Z"/></g>
<g><path style="opacity:0.251" fill="#bababa" d="M 533.5,102.5 C 538.085,103.852 542.752,105.019 547.5,106C 548.056,106.383 548.389,106.883 548.5,107.5C 544.137,106.884 539.803,106.05 535.5,105C 534.619,104.292 533.953,103.458 533.5,102.5 Z"/></g>
<g><path style="opacity:0.988" fill="#ababab" d="M 350.5,107.5 C 349.365,109.213 347.698,109.88 345.5,109.5C 345.5,109.167 345.5,108.833 345.5,108.5C 346.919,107.549 348.585,107.216 350.5,107.5 Z"/></g>
<g><path style="opacity:0.392" fill="#bbbbbb" d="M 550.5,107.5 C 553.521,108.005 556.521,108.672 559.5,109.5C 560.713,109.747 561.38,110.414 561.5,111.5C 558.834,111.067 556.168,110.567 553.5,110C 552.058,109.623 551.058,108.79 550.5,107.5 Z"/></g>
<g><path style="opacity:0.149" fill="#c2c2c2" d="M 345.5,108.5 C 345.5,108.833 345.5,109.167 345.5,109.5C 342.885,110.291 340.218,110.957 337.5,111.5C 339.522,109.307 342.189,108.307 345.5,108.5 Z"/></g>
<g><path style="opacity:0.29" fill="#bbbbbb" d="M 336.5,111.5 C 327.458,115.68 318.124,119.346 308.5,122.5C 308.47,121.503 308.97,120.836 310,120.5C 318.707,117.06 327.54,114.06 336.5,111.5 Z"/></g>
<g><path style="opacity:0.135" fill="#bebebe" d="M 308.5,122.5 C 303.961,125.6 298.961,127.933 293.5,129.5C 293.577,128.25 294.244,127.417 295.5,127C 299.767,125.215 304.1,123.715 308.5,122.5 Z"/></g>
<g><path style="opacity:0.135" fill="#bababa" d="M 561.5,111.5 C 567.807,113.163 574.141,114.996 580.5,117C 587.923,120.833 595.59,124.166 603.5,127C 604.756,127.417 605.423,128.25 605.5,129.5C 590.666,123.673 575.999,117.673 561.5,111.5 Z"/></g>
<g><path style="opacity:0.278" fill="#bababa" d="M 401.5,127.5 C 400.666,128.748 399.333,129.415 397.5,129.5C 393.855,130.116 390.188,130.45 386.5,130.5C 388.447,134.949 389.78,139.616 390.5,144.5C 388.126,139.723 386.126,134.723 384.5,129.5C 390.116,128.46 395.783,127.793 401.5,127.5 Z"/></g>
<g><path style="opacity:0.137" fill="#bababa" d="M 424.5,131.5 C 422.259,130.7 421.259,129.034 421.5,126.5C 415.828,126.76 410.161,127.093 404.5,127.5C 404.611,126.883 404.944,126.383 405.5,126C 410.023,125.68 414.523,125.18 419,124.5C 422.671,125.273 424.505,127.606 424.5,131.5 Z"/></g>
<g><path style="opacity:0.106" fill="#bebebe" d="M 605.5,129.5 C 607.564,129.687 609.564,130.187 611.5,131C 624.137,138.002 636.47,145.336 648.5,153C 649.252,153.671 649.586,154.504 649.5,155.5C 634.918,146.644 620.251,137.978 605.5,129.5 Z"/></g>
<g><path style="opacity:0.492" fill="#bfbfbf" d="M 292.5,129.5 C 290.073,131.558 287.407,133.391 284.5,135C 282.975,136.009 281.308,136.509 279.5,136.5C 283.046,133.011 287.379,130.678 292.5,129.5 Z"/></g>
<g><path style="opacity:0.175" fill="#c2c2c2" d="M 529.5,134.5 C 531.483,134.157 532.817,134.824 533.5,136.5C 532.504,136.586 531.671,136.252 531,135.5C 530.963,137.974 530.13,139.974 528.5,141.5C 528.993,139.194 529.326,136.861 529.5,134.5 Z"/></g>
<g><path style="opacity:0.016" fill="#bcbcbc" d="M 534.5,136.5 C 534.917,135.876 535.584,135.543 536.5,135.5C 539.505,135.905 542.171,136.905 544.5,138.5C 541.012,138.46 537.679,137.793 534.5,136.5 Z"/></g>
<g><path style="opacity:0.275" fill="#c2c2c2" d="M 279.5,136.5 C 277.664,138.588 275.331,139.921 272.5,140.5C 274.26,138.441 276.594,137.108 279.5,136.5 Z"/></g>
<g><path style="opacity:0.302" fill="#c0c0c0" d="M 424.5,133.5 C 427.165,135.835 428.498,138.835 428.5,142.5C 426.432,140.021 425.099,137.021 424.5,133.5 Z"/></g>
<g><path style="opacity:0.918" fill="#a9a9a9" d="M 529.5,134.5 C 529.326,136.861 528.993,139.194 528.5,141.5C 528.167,141.5 527.833,141.5 527.5,141.5C 527.41,138.848 528.076,136.515 529.5,134.5 Z"/></g>
<g><path style="opacity:0.812" fill="#b6b6b6" d="M 544.5,138.5 C 547.487,138.998 550.487,139.498 553.5,140C 555.119,140.236 556.119,141.069 556.5,142.5C 552.812,141.828 549.145,140.995 545.5,140C 544.944,139.617 544.611,139.117 544.5,138.5 Z"/></g>
<g><path style="opacity:0.317" fill="#bebebe" d="M 557.5,142.5 C 560.157,142.935 562.491,143.935 564.5,145.5C 561.423,145.821 559.09,144.821 557.5,142.5 Z"/></g>
<g><path style="opacity:0.208" fill="#bebebe" d="M 390.5,145.5 C 392.693,147.522 393.693,150.189 393.5,153.5C 391.603,151.302 390.603,148.636 390.5,145.5 Z"/></g>
<g><path style="opacity:0.318" fill="#bdbdbd" d="M 527.5,141.5 C 527.833,141.5 528.167,141.5 528.5,141.5C 528.603,144.219 528.269,146.885 527.5,149.5C 527.253,150.713 526.586,151.38 525.5,151.5C 526.167,148.167 526.833,144.833 527.5,141.5 Z"/></g>
<g><path style="opacity:0.243" fill="#bebebe" d="M 272.5,140.5 C 265.382,146.233 257.716,151.233 249.5,155.5C 249.414,154.504 249.748,153.671 250.5,153C 257.065,149.514 263.399,145.514 269.5,141C 270.448,140.517 271.448,140.351 272.5,140.5 Z"/></g>
<g><path style="opacity:0.431" fill="#c0c0c0" d="M 393.5,153.5 C 395.785,156.335 397.118,159.668 397.5,163.5C 395.215,160.665 393.882,157.332 393.5,153.5 Z"/></g>
<g><path style="opacity:0.541" fill="#bebebe" d="M 428.5,143.5 C 430.742,151.118 433.076,158.785 435.5,166.5C 434.503,166.53 433.836,166.03 433.5,165C 430.759,158.138 429.093,150.971 428.5,143.5 Z"/></g>
<g><path style="opacity:0.09" fill="#c0c0c0" d="M 249.5,155.5 C 246.525,158.323 243.192,160.656 239.5,162.5C 239.369,161.761 239.536,161.094 240,160.5C 242.853,158.125 246.02,156.459 249.5,155.5 Z"/></g>
<g><path style="opacity:0.416" fill="#bbbbbb" d="M 525.5,151.5 C 525.232,154.74 524.566,157.906 523.5,161C 523.164,162.03 522.497,162.53 521.5,162.5C 522.224,159.157 523.057,155.824 524,152.5C 524.383,151.944 524.883,151.611 525.5,151.5 Z"/></g>
<g><path style="opacity:0.776" fill="#bcbcbc" d="M 564.5,145.5 C 567.843,146.224 571.176,147.057 574.5,148C 575.451,148.718 575.617,149.551 575,150.5C 566.298,159.369 557.465,168.036 548.5,176.5C 548.703,174.956 549.37,173.622 550.5,172.5C 557.675,165.457 564.842,158.457 572,151.5C 572.617,150.551 572.451,149.718 571.5,149C 568.602,148.564 566.269,147.397 564.5,145.5 Z"/></g>
<g><path style="opacity:0.878" fill="#bdbdbd" d="M 397.5,163.5 C 398.117,163.611 398.617,163.944 399,164.5C 400.578,169.974 402.411,175.307 404.5,180.5C 400.834,175.532 398.501,169.865 397.5,163.5 Z"/></g>
<g><path style="opacity:0.098" fill="#bdbdbd" d="M 649.5,155.5 C 650.93,155.421 652.264,155.754 653.5,156.5C 658.16,160.607 663.16,164.274 668.5,167.5C 674.005,171.842 679.338,176.342 684.5,181C 686.79,182.777 688.457,184.944 689.5,187.5C 676.431,176.423 663.098,165.756 649.5,155.5 Z"/></g>
<g><path style="opacity:0.333" fill="#bcbcbc" d="M 435.5,167.5 C 438.878,172.537 442.545,177.537 446.5,182.5C 444.284,181.797 442.451,180.464 441,178.5C 438.408,175.198 436.574,171.531 435.5,167.5 Z"/></g>
<g><path style="opacity:0.329" fill="#bdbdbd" d="M 521.5,162.5 C 521.477,164.927 520.977,167.26 520,169.5C 516.299,174.909 512.133,179.909 507.5,184.5C 502.049,189.356 495.715,192.356 488.5,193.5C 503.634,187.703 514.634,177.37 521.5,162.5 Z"/></g>
<g><path style="opacity:0.369" fill="#bbbbbb" d="M 548.5,176.5 C 542.727,183.726 536.727,190.726 530.5,197.5C 531.668,193.166 534.168,189.833 538,187.5C 540.353,182.649 543.853,178.982 548.5,176.5 Z"/></g>
<g><path style="opacity:0.384" fill="#bdbdbd" d="M 239.5,162.5 C 229.456,170.886 219.456,179.219 209.5,187.5C 209.369,186.761 209.536,186.094 210,185.5C 218.329,177.417 227.162,169.917 236.5,163C 237.448,162.517 238.448,162.351 239.5,162.5 Z"/></g>
<g><path style="opacity:0.09" fill="#c2c2c2" d="M 404.5,181.5 C 406.766,184.262 408.099,187.595 408.5,191.5C 406.206,188.63 404.872,185.297 404.5,181.5 Z"/></g>
<g><path style="opacity:0.09" fill="#bcbcbc" d="M 209.5,187.5 C 206.167,191.5 202.5,195.167 198.5,198.5C 198.703,196.956 199.37,195.622 200.5,194.5C 202.942,191.385 205.942,189.052 209.5,187.5 Z"/></g>
<g><path style="opacity:0.329" fill="#c0c0c0" d="M 446.5,182.5 C 451.021,186.591 456.021,189.924 461.5,192.5C 459.599,192.567 457.766,192.233 456,191.5C 451.648,189.646 448.482,186.646 446.5,182.5 Z"/></g>
<g><path style="opacity:0.016" fill="#bdbdbd" d="M 689.5,187.5 C 691.044,187.703 692.378,188.37 693.5,189.5C 696.615,191.942 698.948,194.942 700.5,198.5C 696.5,195.167 692.833,191.5 689.5,187.5 Z"/></g>
<g><path style="opacity:0.302" fill="#c0c0c0" d="M 465.5,193.5 C 472.821,194.654 480.154,194.654 487.5,193.5C 484.232,194.822 480.565,195.489 476.5,195.5C 472.435,195.489 468.768,194.822 465.5,193.5 Z"/></g>
<g><path style="opacity:0.295" fill="#bcbcbc" d="M 408.5,192.5 C 409.931,192.881 410.764,193.881 411,195.5C 411.953,198.432 412.453,201.432 412.5,204.5C 410.653,200.776 409.32,196.776 408.5,192.5 Z"/></g>
<g><path style="opacity:0.455" fill="#bbbbbb" d="M 530.5,198.5 C 530.008,200.819 529.008,202.819 527.5,204.5C 527.031,201.607 528.031,199.607 530.5,198.5 Z"/></g>
<g><path style="opacity:0.377" fill="#bfbfbf" d="M 700.5,198.5 C 702.044,198.703 703.378,199.37 704.5,200.5C 707.263,203.252 709.597,206.252 711.5,209.5C 707.575,206.242 703.909,202.575 700.5,198.5 Z"/></g>
<g><path style="opacity:0.235" fill="#c0c0c0" d="M 412.5,204.5 C 413.649,204.791 414.316,205.624 414.5,207C 415.159,209.462 415.493,211.962 415.5,214.5C 414.21,211.358 413.21,208.025 412.5,204.5 Z"/></g>
<g><path style="opacity:0.608" fill="#bfbfbf" d="M 198.5,198.5 C 195.167,202.5 191.5,206.167 187.5,209.5C 189.066,206.588 191.066,203.921 193.5,201.5C 194.94,200.048 196.606,199.048 198.5,198.5 Z"/></g>
<g><path style="opacity:0.314" fill="#bebebe" d="M 711.5,209.5 C 715.217,210.92 717.55,213.587 718.5,217.5C 715.45,215.451 713.117,212.784 711.5,209.5 Z"/></g>
<g><path style="opacity:0.396" fill="#c0c0c0" d="M 187.5,209.5 C 185.646,212.51 183.313,215.176 180.5,217.5C 181.45,213.587 183.783,210.92 187.5,209.5 Z"/></g>
<g><path style="opacity:0.298" fill="#bdbdbd" d="M 718.5,217.5 C 719.496,217.414 720.329,217.748 721,218.5C 723.722,222.698 726.555,226.698 729.5,230.5C 724.796,227.123 721.129,222.789 718.5,217.5 Z"/></g>
<g><path style="opacity:0.106" fill="#bebebe" d="M 180.5,217.5 C 177.313,222.538 173.647,227.205 169.5,231.5C 169.383,229.516 170.05,227.85 171.5,226.5C 173.73,223.908 175.897,221.241 178,218.5C 178.671,217.748 179.504,217.414 180.5,217.5 Z"/></g>
<g><path style="opacity:0.427" fill="#bcbcbc" d="M 169.5,231.5 C 166.511,236.808 162.844,241.475 158.5,245.5C 160.749,241.402 163.249,237.402 166,233.5C 166.816,232.177 167.983,231.511 169.5,231.5 Z"/></g>
<g><path style="opacity:0.378" fill="#bfbfbf" d="M 415.5,216.5 C 416.117,216.611 416.617,216.944 417,217.5C 419.364,230.004 418.698,242.337 415,254.5C 414.764,256.119 413.931,257.119 412.5,257.5C 416.442,244.062 417.442,230.396 415.5,216.5 Z"/></g>
<g><path style="opacity:0.404" fill="#bebebe" d="M 709.5,255.5 C 708.504,255.586 707.671,255.252 707,254.5C 703.339,249.012 699.172,244.012 694.5,239.5C 690.729,242.859 687.062,246.359 683.5,250C 681.655,251.128 679.655,251.628 677.5,251.5C 683.712,247.471 689.545,242.804 695,237.5C 701.023,242.55 705.857,248.55 709.5,255.5 Z"/></g>
<g><path style="opacity:0.325" fill="#c0c0c0" d="M 729.5,231.5 C 732.755,233.926 735.588,236.926 738,240.5C 739.559,242.217 740.392,244.217 740.5,246.5C 736.479,241.804 732.812,236.804 729.5,231.5 Z"/></g>
<g><path style="opacity:0.173" fill="#c4c4c4" d="M 740.5,246.5 C 742.912,246.694 743.912,248.027 743.5,250.5C 742.026,249.564 741.026,248.23 740.5,246.5 Z"/></g>
<g><path style="opacity:0.384" fill="#bbbbbb" d="M 642.5,251.5 C 636.12,249.985 629.787,248.652 623.5,247.5C 618.002,248.254 612.669,249.587 607.5,251.5C 611.7,247.576 616.867,245.576 623,245.5C 630.042,246.24 636.542,248.24 642.5,251.5 Z"/></g>
<g><path style="opacity:0.061" fill="#c0c0c0" d="M 743.5,250.5 C 745.912,250.694 746.912,252.027 746.5,254.5C 745.833,254.167 745.167,253.833 744.5,253.5C 743.89,252.609 743.557,251.609 743.5,250.5 Z"/></g>
<g><path style="opacity:0.681" fill="#b8b8b8" d="M 644.5,251.5 C 655.549,253.987 666.549,253.987 677.5,251.5C 677.119,252.931 676.119,253.764 674.5,254C 665.306,255.926 656.14,255.759 647,253.5C 645.624,253.316 644.791,252.649 644.5,251.5 Z"/></g>
<g><path style="opacity:0.031" fill="#bdbdbd" d="M 607.5,251.5 C 605.182,253.956 602.182,255.289 598.5,255.5C 600.818,253.044 603.818,251.711 607.5,251.5 Z"/></g>
<g><path style="opacity:0.11" fill="#bebebe" d="M 158.5,246.5 C 155.292,252.285 151.625,257.618 147.5,262.5C 148.811,258.545 150.644,254.879 153,251.5C 154.426,249.234 156.26,247.568 158.5,246.5 Z"/></g>
<g><path style="opacity:0.304" fill="#bcbcbc" d="M 527.5,204.5 C 526.782,212.499 527.949,220.166 531,227.5C 538.939,241.439 550.105,251.939 564.5,259C 575.871,261.327 586.871,260.16 597.5,255.5C 597.53,256.497 597.03,257.164 596,257.5C 582.964,262.83 569.964,262.83 557,257.5C 545.585,249.456 536.252,239.456 529,227.5C 527.217,222.615 526.05,217.615 525.5,212.5C 525.287,209.473 525.953,206.807 527.5,204.5 Z"/></g>
<g><path style="opacity:0.076" fill="#bfbfbf" d="M 147.5,262.5 C 147.25,264.674 146.25,266.341 144.5,267.5C 144.592,265.152 145.592,263.486 147.5,262.5 Z"/></g>
<g><path style="opacity:0.076" fill="#bcbcbc" d="M 744.5,253.5 C 745.167,253.833 745.833,254.167 746.5,254.5C 751.993,260.645 755.993,267.645 758.5,275.5C 754.236,267.904 749.569,260.571 744.5,253.5 Z"/></g>
<g><path style="opacity:0.608" fill="#bfbfbf" d="M 709.5,255.5 C 715.404,261.631 720.071,268.631 723.5,276.5C 720.121,272.782 716.954,268.782 714,264.5C 712.227,261.582 710.727,258.582 709.5,255.5 Z"/></g>
<g><path style="opacity:0.345" fill="#c4c4c4" d="M 144.5,267.5 C 143.921,270.331 142.588,272.664 140.5,274.5C 140.725,271.454 142.058,269.121 144.5,267.5 Z"/></g>
<g><path style="opacity:0.106" fill="#bebebe" d="M 412.5,257.5 C 412.477,259.927 411.977,262.26 411,264.5C 409.045,266.911 407.211,269.411 405.5,272C 404.255,272.791 402.922,273.291 401.5,273.5C 406.01,268.672 409.677,263.339 412.5,257.5 Z"/></g>
<g><path style="opacity:0.274" fill="#bdbdbd" d="M 723.5,276.5 C 728.399,281.943 732.065,288.276 734.5,295.5C 733.624,295.631 732.957,295.298 732.5,294.5C 729.463,288.427 726.463,282.427 723.5,276.5 Z"/></g>
<g><path style="opacity:0.246" fill="#bfbfbf" d="M 758.5,275.5 C 760.796,276.733 762.13,278.733 762.5,281.5C 760.178,280.198 758.845,278.198 758.5,275.5 Z"/></g>
<g><path style="opacity:0.369" fill="#bbbbbb" d="M 401.5,273.5 C 401.586,274.496 401.252,275.329 400.5,276C 389.159,282.625 376.826,285.458 363.5,284.5C 370.253,282.723 377.253,281.557 384.5,281C 390.706,279.549 396.372,277.049 401.5,273.5 Z"/></g>
<g><path style="opacity:0.257" fill="#bebebe" d="M 140.5,275.5 C 139.141,280.239 136.808,284.239 133.5,287.5C 135.037,283.921 136.537,280.254 138,276.5C 138.671,275.748 139.504,275.414 140.5,275.5 Z"/></g>
<g><path style="opacity:0.314" fill="#bfbfbf" d="M 361.5,284.5 C 357.933,286.461 353.933,287.795 349.5,288.5C 352.793,285.402 356.793,284.069 361.5,284.5 Z"/></g>
<g><path style="opacity:0.315" fill="#bdbdbd" d="M 762.5,282.5 C 765.965,286.031 768.299,290.364 769.5,295.5C 766.44,291.724 764.107,287.391 762.5,282.5 Z"/></g>
<g><path style="opacity:0.663" fill="#bdbdbd" d="M 734.5,295.5 C 736.588,297.336 737.921,299.669 738.5,302.5C 735.917,301.015 734.584,298.682 734.5,295.5 Z"/></g>
<g><path style="opacity:0.278" fill="#bfbfbf" d="M 132.5,288.5 C 133.043,288.56 133.376,288.893 133.5,289.5C 131.378,294.086 129.044,298.419 126.5,302.5C 127.965,297.574 129.965,292.907 132.5,288.5 Z"/></g>
<g><path style="opacity:0.271" fill="#bfbfbf" d="M 770.5,296.5 C 771.738,298.214 772.405,300.214 772.5,302.5C 770.387,300.83 769.72,298.83 770.5,296.5 Z"/></g>
<g><path style="opacity:0.265" fill="#bcbcbc" d="M 349.5,288.5 C 349.586,289.496 349.252,290.329 348.5,291C 343.481,293.843 338.814,297.176 334.5,301C 330.705,304.099 326.372,305.932 321.5,306.5C 331.03,301.002 340.363,295.002 349.5,288.5 Z"/></g>
<g><path style="opacity:0.225" fill="#c0c0c0" d="M 126.5,302.5 C 125.917,305.947 124.584,308.947 122.5,311.5C 122.692,307.898 124.026,304.898 126.5,302.5 Z"/></g>
<g><path style="opacity:0.235" fill="#bebebe" d="M 772.5,302.5 C 774.974,304.898 776.308,307.898 776.5,311.5C 774.126,309.066 772.792,306.066 772.5,302.5 Z"/></g>
<g><path style="opacity:0.031" fill="#bebebe" d="M 738.5,302.5 C 741.397,307.167 743.73,312.167 745.5,317.5C 744.624,317.631 743.957,317.298 743.5,316.5C 740.844,312.181 739.178,307.514 738.5,302.5 Z"/></g>
<g><path style="opacity:0.384" fill="#bdbdbd" d="M 320.5,306.5 C 319.666,307.748 318.333,308.415 316.5,308.5C 313.178,308.944 309.845,309.277 306.5,309.5C 294.121,308.047 281.788,308.213 269.5,310C 266.36,311.716 263.027,313.049 259.5,314C 258.426,314.739 257.759,315.739 257.5,317C 259.677,320.173 262.51,322.673 266,324.5C 266.464,325.094 266.631,325.761 266.5,326.5C 261.613,324.284 257.613,320.951 254.5,316.5C 255.313,315.186 256.313,314.019 257.5,313C 265.581,308.646 274.247,306.48 283.5,306.5C 295.851,307.696 308.184,307.696 320.5,306.5 Z"/></g>
<g><path style="opacity:0.392" fill="#bfbfbf" d="M 122.5,312.5 C 121.495,318.826 119.162,324.493 115.5,329.5C 117.141,324.357 118.808,319.19 120.5,314C 120.836,312.97 121.503,312.47 122.5,312.5 Z"/></g>
<g><path style="opacity:0.229" fill="#bdbdbd" d="M 776.5,312.5 C 777.497,312.47 778.164,312.97 778.5,314C 779.249,316.497 779.916,318.997 780.5,321.5C 779.414,321.38 778.747,320.713 778.5,319.5C 777.533,317.238 776.866,314.905 776.5,312.5 Z"/></g>
<g><path style="opacity:0.402" fill="#b8b8b8" d="M 745.5,317.5 C 747.785,320.335 749.118,323.668 749.5,327.5C 748.503,327.53 747.836,327.03 747.5,326C 746.594,323.209 745.927,320.376 745.5,317.5 Z"/></g>
<g><path style="opacity:0.431" fill="#c3c3c3" d="M 780.5,322.5 C 782.536,324.206 783.536,326.539 783.5,329.5C 781.552,327.68 780.552,325.346 780.5,322.5 Z"/></g>
<g><path style="opacity:0.558" fill="#bfbfbf" d="M 657.5,328.5 C 649.076,328.414 640.409,328.581 631.5,329C 628.937,330.079 626.271,330.579 623.5,330.5C 623.611,329.883 623.944,329.383 624.5,329C 635.532,326.238 646.532,326.072 657.5,328.5 Z"/></g>
<g><path style="opacity:0.341" fill="#c0c0c0" d="M 266.5,326.5 C 269.819,328.142 273.153,329.809 276.5,331.5C 277.298,331.957 277.631,332.624 277.5,333.5C 273.024,332.343 269.358,330.01 266.5,326.5 Z"/></g>
<g><path style="opacity:0.525" fill="#bfbfbf" d="M 623.5,330.5 C 621.574,332.293 619.241,333.293 616.5,333.5C 618.09,331.179 620.423,330.179 623.5,330.5 Z"/></g>
<g><path style="opacity:0.19" fill="#bdbdbd" d="M 749.5,328.5 C 750.497,328.47 751.164,328.97 751.5,330C 752.608,331.677 752.608,333.177 751.5,334.5C 750.262,332.786 749.595,330.786 749.5,328.5 Z"/></g>
<g><path style="opacity:0.208" fill="#bfbfbf" d="M 115.5,330.5 C 114.828,334.188 113.995,337.855 113,341.5C 112.617,342.056 112.117,342.389 111.5,342.5C 111.678,339.784 112.178,337.117 113,334.5C 113.2,332.68 114.034,331.347 115.5,330.5 Z"/></g>
<g><path style="opacity:0.204" fill="#bdbdbd" d="M 162.5,353.5 C 160.433,352.737 158.766,351.404 157.5,349.5C 154.114,344.619 150.947,339.619 148,334.5C 146.453,338.815 144.62,342.815 142.5,346.5C 143.141,340.566 145.141,335.232 148.5,330.5C 152.411,338.662 157.078,346.328 162.5,353.5 Z"/></g>
<g><path style="opacity:0.273" fill="#bfbfbf" d="M 616.5,333.5 C 610.7,336.904 605.033,340.571 599.5,344.5C 599.511,342.983 600.177,341.816 601.5,341C 604.341,339.414 607.007,337.58 609.5,335.5C 611.729,334.423 614.063,333.756 616.5,333.5 Z"/></g>
<g><path style="opacity:0.239" fill="#bbbbbb" d="M 658.5,328.5 C 673.935,332.811 689.268,337.644 704.5,343C 705.056,343.383 705.389,343.883 705.5,344.5C 701.797,344.093 698.13,343.426 694.5,342.5C 684.469,338.101 674.135,334.601 663.5,332C 661.416,331.303 659.749,330.136 658.5,328.5 Z"/></g>
<g><path style="opacity:0.191" fill="#c1c1c1" d="M 751.5,335.5 C 752.906,335.973 753.573,336.973 753.5,338.5C 752.094,338.027 751.427,337.027 751.5,335.5 Z"/></g>
<g><path style="opacity:0.567" fill="#bdbdbd" d="M 753.5,338.5 C 754.947,339.134 755.613,340.301 755.5,342C 755.316,343.376 754.649,344.209 753.5,344.5C 753.5,342.5 753.5,340.5 753.5,338.5 Z"/></g>
<g><path style="opacity:0.217" fill="#bcbcbc" d="M 277.5,333.5 C 286.447,337.094 295.447,340.594 304.5,344C 315.975,346.013 327.475,347.846 339,349.5C 340.986,349.569 342.486,350.235 343.5,351.5C 323.515,350.169 304.182,346.003 285.5,339C 282.593,337.391 279.927,335.558 277.5,333.5 Z"/></g>
<g><path style="opacity:0.084" fill="#bebebe" d="M 784.5,331.5 C 788.427,339.972 790.761,348.972 791.5,358.5C 789.072,349.874 786.405,341.208 783.5,332.5C 783.624,331.893 783.957,331.56 784.5,331.5 Z"/></g>
<g><path style="opacity:0.778" fill="#b3b3b3" d="M 705.5,344.5 C 720.819,345.325 736.153,345.325 751.5,344.5C 751.389,345.117 751.056,345.617 750.5,346C 736.5,346.667 722.5,346.667 708.5,346C 707.263,345.768 706.263,345.268 705.5,344.5 Z"/></g>
<g><path style="opacity:0.09" fill="#bcbcbc" d="M 599.5,344.5 C 597.5,347.167 595.167,349.5 592.5,351.5C 593.483,347.85 595.816,345.517 599.5,344.5 Z"/></g>
<g><path style="opacity:0.745" fill="#bebebe" d="M 111.5,342.5 C 110.912,347.808 109.579,352.808 107.5,357.5C 108.01,352.789 108.844,348.122 110,343.5C 110.383,342.944 110.883,342.611 111.5,342.5 Z"/></g>
<g><path style="opacity:0.241" fill="#bebebe" d="M 345.5,351.5 C 349.053,351.844 352.553,352.511 356,353.5C 357.03,353.836 357.53,354.503 357.5,355.5C 353.216,354.739 349.216,353.405 345.5,351.5 Z"/></g>
<g><path style="opacity:0.384" fill="#c0c0c0" d="M 592.5,351.5 C 591.833,353.5 590.5,354.833 588.5,355.5C 588.833,353.167 590.167,351.833 592.5,351.5 Z"/></g>
<g><path style="opacity:0.361" fill="#bebebe" d="M 588.5,355.5 C 588.262,357.404 587.262,358.738 585.5,359.5C 585.088,357.027 586.088,355.694 588.5,355.5 Z"/></g>
<g><path style="opacity:0.031" fill="#bbbbbb" d="M 142.5,346.5 C 139.192,359.868 136.192,373.368 133.5,387C 133.392,388.681 132.725,389.848 131.5,390.5C 131.898,384.778 132.731,379.111 134,373.5C 136.321,364.849 138.654,356.183 141,347.5C 141.383,346.944 141.883,346.611 142.5,346.5 Z"/></g>
<g><path style="opacity:0.71" fill="#bebebe" d="M 358.5,355.5 C 361.311,355.826 363.978,356.659 366.5,358C 370.074,360.412 373.074,363.245 375.5,366.5C 370.059,362.375 364.392,358.708 358.5,355.5 Z"/></g>
<g><path style="opacity:0.255" fill="#bebebe" d="M 162.5,353.5 C 176.891,368.892 191.891,383.558 207.5,397.5C 206.078,397.291 204.745,396.791 203.5,396C 189.338,383.504 175.838,370.337 163,356.5C 162.517,355.552 162.351,354.552 162.5,353.5 Z"/></g>
<g><path style="opacity:0.345" fill="#c2c2c2" d="M 791.5,358.5 C 793.554,361.008 794.554,364.008 794.5,367.5C 792.747,364.854 791.747,361.854 791.5,358.5 Z"/></g>
<g><path style="opacity:0.122" fill="#c6c6c6" d="M 375.5,366.5 C 377.833,366.833 379.167,368.167 379.5,370.5C 377.833,369.5 376.5,368.167 375.5,366.5 Z"/></g>
<g><path style="opacity:0.243" fill="#bdbdbd" d="M 585.5,359.5 C 582.422,364.653 579.589,369.986 577,375.5C 576.292,376.381 575.458,377.047 574.5,377.5C 576.716,370.377 580.383,364.377 585.5,359.5 Z"/></g>
<g><path style="opacity:0.298" fill="#c0c0c0" d="M 379.5,370.5 C 381.74,371.568 383.574,373.234 385,375.5C 387.65,379.133 389.483,383.133 390.5,387.5C 386.598,382.04 382.931,376.373 379.5,370.5 Z"/></g>
<g><path style="opacity:0.336" fill="#bbbbbb" d="M 794.5,369.5 C 795.117,369.611 795.617,369.944 796,370.5C 797.069,377.146 797.902,383.812 798.5,390.5C 796.423,383.774 795.089,376.774 794.5,369.5 Z"/></g>
<g><path style="opacity:0.58" fill="#bcbcbc" d="M 107.5,357.5 C 105.958,367.573 104.124,377.573 102,387.5C 101.722,388.416 101.222,389.082 100.5,389.5C 101.125,378.885 102.958,368.551 106,358.5C 106.383,357.944 106.883,357.611 107.5,357.5 Z"/></g>
<g><path style="opacity:0.449" fill="#bcbcbc" d="M 574.5,378.5 C 573.572,381.454 572.739,384.454 572,387.5C 571.617,388.056 571.117,388.389 570.5,388.5C 570.507,384.446 571.84,381.113 574.5,378.5 Z"/></g>
<g><path style="opacity:0.467" fill="#c0c0c0" d="M 390.5,388.5 C 392.614,389.784 393.614,391.784 393.5,394.5C 391.755,392.967 390.755,390.967 390.5,388.5 Z"/></g>
<g><path style="opacity:0.114" fill="#c2c2c2" d="M 393.5,395.5 C 394.75,395.577 395.583,396.244 396,397.5C 396.662,399.813 397.162,402.146 397.5,404.5C 395.408,401.912 394.075,398.912 393.5,395.5 Z"/></g>
<g><path style="opacity:0.608" fill="#c1c1c1" d="M 207.5,397.5 C 212.538,400.687 217.205,404.353 221.5,408.5C 215.626,406.246 210.959,402.579 207.5,397.5 Z"/></g>
<g><path style="opacity:0.706" fill="#bebebe" d="M 462.5,402.5 C 453.826,401.201 445.16,401.201 436.5,402.5C 437.152,401.275 438.319,400.608 440,400.5C 445.996,399.232 451.996,399.232 458,400.5C 459.986,400.569 461.486,401.235 462.5,402.5 Z"/></g>
<g><path style="opacity:0.243" fill="#bebebe" d="M 570.5,388.5 C 568.015,396.195 565.682,403.862 563.5,411.5C 563.552,402.913 565.886,395.246 570.5,388.5 Z"/></g>
<g><path style="opacity:0.279" fill="#c2c2c2" d="M 100.5,391.5 C 99.7705,396.13 99.4372,400.797 99.5,405.5C 98.8333,406.833 98.1667,408.167 97.5,409.5C 97.8672,403.828 98.3672,398.161 99,392.5C 99.3826,391.944 99.8826,391.611 100.5,391.5 Z"/></g>
<g><path style="opacity:0.332" fill="#c0c0c0" d="M 798.5,392.5 C 799.787,393.871 800.453,395.705 800.5,398C 801.132,403.15 801.465,408.317 801.5,413.5C 800.833,411.167 800.167,408.833 799.5,406.5C 799.331,401.819 798.998,397.152 798.5,392.5 Z"/></g>
<g><path style="opacity:0.253" fill="#bebebe" d="M 436.5,402.5 C 429.098,405.368 422.098,409.035 415.5,413.5C 418.366,409.821 422.032,406.988 426.5,405C 429.679,403.539 433.012,402.705 436.5,402.5 Z"/></g>
<g><path style="opacity:0.098" fill="#bebebe" d="M 221.5,408.5 C 226.941,411.216 231.607,414.882 235.5,419.5C 231.067,416.916 226.734,414.082 222.5,411C 221.748,410.329 221.414,409.496 221.5,408.5 Z"/></g>
<g><path style="opacity:0.847" fill="#acacac" d="M 99.5,405.5 C 97.7473,426.452 97.0806,447.452 97.5,468.5C 97.1667,468.5 96.8333,468.5 96.5,468.5C 96.2425,448.813 96.5759,429.147 97.5,409.5C 98.1667,408.167 98.8333,406.833 99.5,405.5 Z"/></g>
<g><path style="opacity:0.275" fill="#bfbfbf" d="M 397.5,404.5 C 399.48,405.848 400.647,407.848 401,410.5C 404.89,415.846 409.723,416.846 415.5,413.5C 409.528,419.385 404.362,418.718 400,411.5C 398.864,409.257 398.03,406.924 397.5,404.5 Z"/></g>
<g><path style="opacity:0.031" fill="#bebebe" d="M 464.5,402.5 C 470.122,403.477 475.456,405.311 480.5,408C 485.137,411.293 489.804,414.626 494.5,418C 496.79,419.777 498.457,421.944 499.5,424.5C 488.944,415.389 477.277,408.056 464.5,402.5 Z"/></g>
<g><path style="opacity:0.983" fill="#a6a6a6" d="M 799.5,406.5 C 800.167,408.833 800.833,411.167 801.5,413.5C 802.474,431.787 802.807,450.12 802.5,468.5C 802.167,468.5 801.833,468.5 801.5,468.5C 801.848,447.793 801.182,427.126 799.5,406.5 Z"/></g>
<g><path style="opacity:0.364" fill="#c0c0c0" d="M 563.5,412.5 C 562.585,419.815 562.418,427.148 563,434.5C 564.636,440.922 567.136,446.922 570.5,452.5C 569.504,452.586 568.671,452.252 568,451.5C 567.56,449.924 566.727,448.59 565.5,447.5C 561.912,436.451 560.745,425.118 562,413.5C 562.383,412.944 562.883,412.611 563.5,412.5 Z"/></g>
<g><path style="opacity:0.541" fill="#bebebe" d="M 499.5,424.5 C 501.833,424.833 503.167,426.167 503.5,428.5C 501.29,428.106 499.957,426.773 499.5,424.5 Z"/></g>
<g><path style="opacity:0.303" fill="#bfbfbf" d="M 503.5,428.5 C 504.496,428.414 505.329,428.748 506,429.5C 508.157,431.817 509.657,434.484 510.5,437.5C 507.87,434.853 505.537,431.853 503.5,428.5 Z"/></g>
<g><path style="opacity:0.693" fill="#b7b7b7" d="M 235.5,419.5 C 236.117,419.611 236.617,419.944 237,420.5C 237.5,432.495 237.667,444.495 237.5,456.5C 236.833,451.5 236.167,446.5 235.5,441.5C 236.674,434.222 236.674,426.889 235.5,419.5 Z"/></g>
<g><path style="opacity:0.714" fill="#bebebe" d="M 510.5,437.5 C 512.614,438.784 513.614,440.784 513.5,443.5C 511.755,441.967 510.755,439.967 510.5,437.5 Z"/></g>
<g><path style="opacity:0.335" fill="#bbbbbb" d="M 513.5,443.5 C 516.178,446.21 517.511,449.543 517.5,453.5C 516.249,451.618 515.082,449.618 514,447.5C 513.51,446.207 513.343,444.873 513.5,443.5 Z"/></g>
<g><path style="opacity:0.735" fill="#b8b8b8" d="M 131.5,391.5 C 130.918,402.329 129.751,412.996 128,423.5C 127.5,438.83 127.333,454.163 127.5,469.5C 125.688,444.564 126.521,419.564 130,394.5C 130.232,393.263 130.732,392.263 131.5,391.5 Z"/></g>
<g><path style="opacity:0.277" fill="#bebebe" d="M 570.5,452.5 C 574.527,455.86 578.194,459.527 581.5,463.5C 578.252,461.597 575.252,459.263 572.5,456.5C 571.37,455.378 570.703,454.044 570.5,452.5 Z"/></g>
<g><path style="opacity:0.273" fill="#bebebe" d="M 581.5,463.5 C 585.683,465.087 589.35,467.421 592.5,470.5C 588.012,469.324 584.345,466.991 581.5,463.5 Z"/></g>
<g><path style="opacity:0.724" fill="#bebebe" d="M 127.5,469.5 C 128.117,469.611 128.617,469.944 129,470.5C 129.702,480.85 130.535,491.184 131.5,501.5C 128.992,491.117 127.658,480.451 127.5,469.5 Z"/></g>
<g><path style="opacity:0.592" fill="#bebebe" d="M 235.5,441.5 C 236.167,446.5 236.833,451.5 237.5,456.5C 237.485,460.56 237.985,464.56 239,468.5C 243.614,479.724 249.781,490.057 257.5,499.5C 254.937,498.408 252.77,496.742 251,494.5C 247.635,489.146 244.302,483.813 241,478.5C 236.471,466.614 234.638,454.28 235.5,441.5 Z"/></g>
<g><path style="opacity:0.333" fill="#b9b9b9" d="M 96.5,468.5 C 96.8333,468.5 97.1667,468.5 97.5,468.5C 98.6671,479.338 99.6671,490.338 100.5,501.5C 99.2227,500.306 98.5561,498.64 98.5,496.5C 97.6435,487.176 96.9769,477.843 96.5,468.5 Z"/></g>
<g><path style="opacity:0.333" fill="#b8b8b8" d="M 801.5,468.5 C 801.833,468.5 802.167,468.5 802.5,468.5C 802.023,477.843 801.356,487.176 800.5,496.5C 800.444,498.64 799.777,500.306 798.5,501.5C 799.333,490.338 800.333,479.338 801.5,468.5 Z"/></g>
<g><path style="opacity:0.382" fill="#bdbdbd" d="M 592.5,470.5 C 603.651,476.911 614.984,483.077 626.5,489C 635.171,492.046 643.505,495.546 651.5,499.5C 642.382,496.849 633.382,493.682 624.5,490C 614.199,484.181 603.865,478.347 593.5,472.5C 592.702,472.043 592.369,471.376 592.5,470.5 Z"/></g>
<g><path style="opacity:0.106" fill="#bfbfbf" d="M 518.5,455.5 C 522.068,473.385 517.735,489.218 505.5,503C 498.54,508.292 491.873,513.958 485.5,520C 484.255,520.791 482.922,521.291 481.5,521.5C 487.652,515.188 494.319,509.355 501.5,504C 510.575,495.78 516.075,485.614 518,473.5C 518.379,467.259 518.546,461.259 518.5,455.5 Z"/></g>
<g><path style="opacity:0.514" fill="#bbbbbb" d="M 651.5,499.5 C 654.721,499.896 657.388,501.229 659.5,503.5C 656.173,503.171 653.507,501.837 651.5,499.5 Z"/></g>
<g><path style="opacity:0.213" fill="#c2c2c2" d="M 659.5,503.5 C 665.52,506.195 668.853,510.862 669.5,517.5C 667.689,515.615 666.522,513.281 666,510.5C 663.363,508.524 661.197,506.191 659.5,503.5 Z"/></g>
<g><path style="opacity:0.197" fill="#bababa" d="M 131.5,502.5 C 135.28,516.615 138.946,530.948 142.5,545.5C 141.034,544.653 140.2,543.32 140,541.5C 136.042,528.781 133.209,515.781 131.5,502.5 Z"/></g>
<g><path style="opacity:0.031" fill="#bdbdbd" d="M 798.5,505.5 C 797.655,514.887 795.988,524.053 793.5,533C 793.316,534.376 792.649,535.209 791.5,535.5C 792.686,527.441 794.186,519.441 796,511.5C 796.24,509.148 797.073,507.148 798.5,505.5 Z"/></g>
<g><path style="opacity:0.774" fill="#b7b7b7" d="M 669.5,518.5 C 670.816,521.087 671.483,524.087 671.5,527.5C 671.333,530.5 671.167,533.5 671,536.5C 670.617,537.056 670.117,537.389 669.5,537.5C 669.5,531.167 669.5,524.833 669.5,518.5 Z"/></g>
<g><path style="opacity:0.296" fill="#bcbcbc" d="M 100.5,505.5 C 104.016,515.087 106.349,525.087 107.5,535.5C 106.351,535.209 105.684,534.376 105.5,533C 103.012,524.053 101.345,514.887 100.5,505.5 Z"/></g>
<g><path style="opacity:0.222" fill="#bebebe" d="M 142.5,546.5 C 143.586,546.62 144.253,547.287 144.5,548.5C 145.005,552.059 146.005,555.392 147.5,558.5C 146.542,558.047 145.708,557.381 145,556.5C 144.057,553.176 143.224,549.843 142.5,546.5 Z"/></g>
<g><path style="opacity:0.106" fill="#bebebe" d="M 669.5,539.5 C 668.671,544.154 667.837,548.82 667,553.5C 665.162,557.565 663.329,561.565 661.5,565.5C 664.116,557.372 666.283,549.039 668,540.5C 668.383,539.944 668.883,539.611 669.5,539.5 Z"/></g>
<g><path style="opacity:0.243" fill="#bebebe" d="M 481.5,521.5 C 480.408,524.063 478.742,526.23 476.5,528C 468.4,534.14 460.567,540.64 453,547.5C 448.398,552.406 444.565,557.739 441.5,563.5C 441.971,558.89 443.804,554.89 447,551.5C 457.781,540.544 469.281,530.544 481.5,521.5 Z"/></g>
<g><path style="opacity:0.024" fill="#bdbdbd" d="M 107.5,537.5 C 108.558,538.6 109.392,539.934 110,541.5C 114.621,558.197 120.121,574.531 126.5,590.5C 123.882,587.44 121.882,583.94 120.5,580C 115.018,566.253 110.685,552.086 107.5,537.5 Z"/></g>
<g><path style="opacity:0.335" fill="#bdbdbd" d="M 147.5,559.5 C 149.074,561.102 149.741,563.102 149.5,565.5C 147.559,563.684 146.892,561.684 147.5,559.5 Z"/></g>
<g><path style="opacity:0.534" fill="#bebebe" d="M 257.5,499.5 C 266.952,507.792 274.785,517.459 281,528.5C 281.22,546.524 281.72,564.524 282.5,582.5C 280.78,580.342 279.947,577.675 280,574.5C 279.47,563.827 279.637,553.161 280.5,542.5C 280.531,537.765 280.031,533.099 279,528.5C 276.805,523.875 274.139,519.541 271,515.5C 265.544,510.885 261.044,505.552 257.5,499.5 Z"/></g>
<g><path style="opacity:0.024" fill="#bcbcbc" d="M 791.5,537.5 C 788.315,552.086 783.982,566.253 778.5,580C 777.118,583.94 775.118,587.44 772.5,590.5C 779.147,573.894 784.813,556.894 789.5,539.5C 789.747,538.287 790.414,537.62 791.5,537.5 Z"/></g>
<g><path style="opacity:0.351" fill="#bdbdbd" d="M 149.5,566.5 C 150.75,566.577 151.583,567.244 152,568.5C 152.662,570.813 153.162,573.146 153.5,575.5C 151.416,572.947 150.083,569.947 149.5,566.5 Z"/></g>
<g><path style="opacity:0.384" fill="#c0c0c0" d="M 661.5,566.5 C 659.36,573.731 657.026,580.731 654.5,587.5C 654.952,579.657 657.286,572.657 661.5,566.5 Z"/></g>
<g><path style="opacity:0.539" fill="#bebebe" d="M 441.5,569.5 C 442.117,569.611 442.617,569.944 443,570.5C 443.642,574.491 444.142,578.491 444.5,582.5C 442.882,578.425 441.882,574.092 441.5,569.5 Z"/></g>
<g><path style="opacity:0.274" fill="#bdbdbd" d="M 153.5,575.5 C 155.614,576.784 156.614,578.784 156.5,581.5C 154.755,579.967 153.755,577.967 153.5,575.5 Z"/></g>
<g><path style="opacity:0.1" fill="#bcbcbc" d="M 156.5,581.5 C 160.915,588.381 164.582,595.714 167.5,603.5C 162.708,596.83 159.041,589.496 156.5,581.5 Z"/></g>
<g><path style="opacity:0.845" fill="#bdbdbd" d="M 444.5,583.5 C 445.117,583.611 445.617,583.944 446,584.5C 446.167,587.333 446.333,590.167 446.5,593C 446.481,596.252 445.814,599.085 444.5,601.5C 444.5,595.5 444.5,589.5 444.5,583.5 Z"/></g>
<g><path style="opacity:0.429" fill="#c1c1c1" d="M 654.5,589.5 C 653.167,598.5 653.167,607.5 654.5,616.5C 652.725,612.259 651.725,607.592 651.5,602.5C 651.718,597.731 652.718,593.398 654.5,589.5 Z"/></g>
<g><path style="opacity:0.643" fill="#bcbcbc" d="M 126.5,590.5 C 130.615,597.067 133.949,604.067 136.5,611.5C 134.59,609.072 132.757,606.405 131,603.5C 128.844,599.362 127.344,595.029 126.5,590.5 Z"/></g>
<g><path style="opacity:0.286" fill="#c0c0c0" d="M 167.5,603.5 C 170.083,604.985 171.416,607.318 171.5,610.5C 169.412,608.664 168.079,606.331 167.5,603.5 Z"/></g>
<g><path style="opacity:0.643" fill="#bcbcbc" d="M 772.5,590.5 C 771.656,595.029 770.156,599.362 768,603.5C 766.243,606.405 764.41,609.072 762.5,611.5C 765.051,604.067 768.385,597.067 772.5,590.5 Z"/></g>
<g><path style="opacity:0.333" fill="#bfbfbf" d="M 171.5,610.5 C 172.376,610.369 173.043,610.702 173.5,611.5C 176.524,616.888 179.524,622.221 182.5,627.5C 177.615,622.759 173.949,617.092 171.5,610.5 Z"/></g>
<g><path style="opacity:0.347" fill="#bebebe" d="M 444.5,603.5 C 444.657,604.873 444.49,606.207 444,607.5C 440.154,615.513 433.987,620.846 425.5,623.5C 433.967,618.704 440.3,612.037 444.5,603.5 Z"/></g>
<g><path style="opacity:0.769" fill="#bebebe" d="M 282.5,582.5 C 288.026,596.545 295.86,609.211 306,620.5C 308.091,623.74 309.924,627.074 311.5,630.5C 303.896,620.708 296.396,610.708 289,600.5C 285.146,595.104 282.979,589.104 282.5,582.5 Z"/></g>
<g><path style="opacity:0.167" fill="#c0c0c0" d="M 762.5,612.5 C 759.808,619.24 756.142,625.24 751.5,630.5C 754.166,623.824 757.833,617.824 762.5,612.5 Z"/></g>
<g><path style="opacity:0.343" fill="#bbbbbb" d="M 425.5,623.5 C 425.389,624.117 425.056,624.617 424.5,625C 420.184,625.996 415.851,626.83 411.5,627.5C 415.734,625.045 420.4,623.711 425.5,623.5 Z"/></g>
<g><path style="opacity:0.149" fill="#c2c2c2" d="M 182.5,628.5 C 184.912,628.694 185.912,630.027 185.5,632.5C 184.026,631.564 183.026,630.23 182.5,628.5 Z"/></g>
<g><path style="opacity:0.29" fill="#bebebe" d="M 136.5,611.5 C 140.89,617.262 144.557,623.595 147.5,630.5C 145.917,629.064 144.417,627.398 143,625.5C 140.531,620.899 138.364,616.232 136.5,611.5 Z"/></g>
<g><path style="opacity:0.384" fill="#bebebe" d="M 411.5,627.5 C 408.668,629.424 406.501,632.091 405,635.5C 404.432,639.274 403.265,642.607 401.5,645.5C 401.679,640.103 403.179,635.103 406,630.5C 407.264,628.393 409.097,627.393 411.5,627.5 Z"/></g>
<g><path style="opacity:0.455" fill="#bebebe" d="M 147.5,630.5 C 151.911,635.648 155.578,641.314 158.5,647.5C 156.636,646.18 154.969,644.513 153.5,642.5C 150.791,638.784 148.791,634.784 147.5,630.5 Z"/></g>
<g><path style="opacity:0.369" fill="#bebebe" d="M 185.5,632.5 C 188.206,634.86 190.706,637.527 193,640.5C 193.483,641.448 193.649,642.448 193.5,643.5C 190.102,640.373 187.435,636.707 185.5,632.5 Z"/></g>
<g><path style="opacity:0.383" fill="#bdbdbd" d="M 311.5,630.5 C 314.404,634.221 315.738,638.554 315.5,643.5C 314.883,643.389 314.383,643.056 314,642.5C 313.163,638.486 312.329,634.486 311.5,630.5 Z"/></g>
<g><path style="opacity:0.241" fill="#bebebe" d="M 751.5,630.5 C 750.209,634.784 748.209,638.784 745.5,642.5C 744.031,644.513 742.364,646.18 740.5,647.5C 743.422,641.314 747.089,635.648 751.5,630.5 Z"/></g>
<g><path style="opacity:0.586" fill="#b2b2b2" d="M 315.5,644.5 C 317.416,648.718 318.416,653.385 318.5,658.5C 317.833,657.5 317.167,656.5 316.5,655.5C 315.886,651.865 315.552,648.198 315.5,644.5 Z"/></g>
<g><path style="opacity:0.222" fill="#bcbcbc" d="M 158.5,647.5 C 162.897,651.959 166.564,656.959 169.5,662.5C 168.504,662.586 167.671,662.252 167,661.5C 165.487,658.476 163.487,655.809 161,653.5C 159.878,651.593 159.045,649.593 158.5,647.5 Z"/></g>
<g><path style="opacity:0.361" fill="#bdbdbd" d="M 654.5,617.5 C 659.966,633.969 669.966,646.969 684.5,656.5C 681.99,656.009 679.656,655.009 677.5,653.5C 668.638,645.827 661.471,636.827 656,626.5C 655.047,623.568 654.547,620.568 654.5,617.5 Z"/></g>
<g><path style="opacity:0.349" fill="#bdbdbd" d="M 193.5,643.5 C 195.017,643.511 196.184,644.177 197,645.5C 204.556,655.731 212.89,665.398 222,674.5C 228.063,679.062 233.23,684.395 237.5,690.5C 220.633,676.642 205.966,660.975 193.5,643.5 Z"/></g>
<g><path style="opacity:0.159" fill="#bdbdbd" d="M 740.5,647.5 C 739.955,649.593 739.122,651.593 738,653.5C 734.413,657.692 731.08,662.025 728,666.5C 727.329,667.252 726.496,667.586 725.5,667.5C 730.122,660.545 735.122,653.878 740.5,647.5 Z"/></g>
<g><path style="opacity:0.333" fill="#bebebe" d="M 169.5,662.5 C 171.587,663.585 172.92,665.251 173.5,667.5C 171.003,666.871 169.67,665.204 169.5,662.5 Z"/></g>
<g><path style="opacity:0.331" fill="#bbbbbb" d="M 401.5,647.5 C 402.663,664.479 398.829,680.145 390,694.5C 389.184,695.823 388.017,696.489 386.5,696.5C 390.32,690.569 393.487,684.235 396,677.5C 398.259,667.424 400.093,657.424 401.5,647.5 Z"/></g>
<g><path style="opacity:0.159" fill="#bdbdbd" d="M 684.5,656.5 C 686.593,657.045 688.593,657.878 690.5,659C 691.451,659.718 691.617,660.551 691,661.5C 681.962,672.038 672.129,681.705 661.5,690.5C 661.703,688.956 662.37,687.622 663.5,686.5C 673.053,678.736 681.719,670.07 689.5,660.5C 687.153,659.849 685.486,658.516 684.5,656.5 Z"/></g>
<g><path style="opacity:0.031" fill="#bcbcbc" d="M 173.5,667.5 C 180.798,675.802 188.131,684.136 195.5,692.5C 191.783,689.871 188.283,686.871 185,683.5C 182.39,678.891 179.057,674.891 175,671.5C 174.209,670.255 173.709,668.922 173.5,667.5 Z"/></g>
<g><path style="opacity:0.312" fill="#bebebe" d="M 316.5,655.5 C 317.167,656.5 317.833,657.5 318.5,658.5C 319.51,665.878 320.844,673.211 322.5,680.5C 321.414,680.38 320.747,679.713 320.5,678.5C 318.059,671.097 316.726,663.43 316.5,655.5 Z"/></g>
<g><path style="opacity:0.227" fill="#bdbdbd" d="M 725.5,667.5 C 725.291,668.922 724.791,670.255 724,671.5C 719.943,674.891 716.61,678.891 714,683.5C 709.286,687.388 704.786,691.388 700.5,695.5C 708.862,686.141 717.195,676.808 725.5,667.5 Z"/></g>
<g><path style="opacity:0.09" fill="#c3c3c3" d="M 195.5,692.5 C 196.833,693.167 197.833,694.167 198.5,695.5C 196.5,695.5 195.5,694.5 195.5,692.5 Z"/></g>
<g><path style="opacity:0.076" fill="#bebebe" d="M 322.5,680.5 C 324.713,684.571 327.213,688.571 330,692.5C 333.197,696.502 336.697,700.169 340.5,703.5C 331.166,698.493 325.166,690.827 322.5,680.5 Z"/></g>
<g><path style="opacity:0.565" fill="#bbbbbb" d="M 198.5,695.5 C 200.71,695.894 202.043,697.227 202.5,699.5C 200.29,699.106 198.957,697.773 198.5,695.5 Z"/></g>
<g><path style="opacity:0.273" fill="#bcbcbc" d="M 661.5,690.5 C 657.413,694.922 652.746,698.589 647.5,701.5C 647.414,700.504 647.748,699.671 648.5,699C 651.39,697.062 654.056,694.895 656.5,692.5C 657.85,691.05 659.516,690.383 661.5,690.5 Z"/></g>
<g><path style="opacity:0.19" fill="#bdbdbd" d="M 237.5,690.5 C 239.484,690.383 241.15,691.05 242.5,692.5C 245.163,694.992 247.996,697.326 251,699.5C 251.464,700.094 251.631,700.761 251.5,701.5C 246.254,698.589 241.587,694.922 237.5,690.5 Z"/></g>
<g><path style="opacity:0.149" fill="#c4c4c4" d="M 699.5,696.5 C 699.5,698.5 698.5,699.5 696.5,699.5C 697.167,698.167 698.167,697.167 699.5,696.5 Z"/></g>
<g><path style="opacity:0.09" fill="#bebebe" d="M 251.5,701.5 C 253.258,701.877 254.925,702.544 256.5,703.5C 260.198,706.203 263.531,709.203 266.5,712.5C 260.652,709.985 255.652,706.318 251.5,701.5 Z"/></g>
<g><path style="opacity:0.063" fill="#bbbbbb" d="M 647.5,701.5 C 643.348,706.318 638.348,709.985 632.5,712.5C 635.469,709.203 638.802,706.203 642.5,703.5C 644.075,702.544 645.742,701.877 647.5,701.5 Z"/></g>
<g><path style="opacity:0.392" fill="#bebebe" d="M 202.5,699.5 C 207.167,702.167 210.833,705.833 213.5,710.5C 212.761,710.631 212.094,710.464 211.5,710C 208.139,706.757 205.139,703.257 202.5,699.5 Z"/></g>
<g><path style="opacity:0.106" fill="#bebebe" d="M 386.5,696.5 C 386.631,697.239 386.464,697.906 386,698.5C 381.884,703.478 376.717,706.478 370.5,707.5C 372.385,705.689 374.719,704.522 377.5,704C 380.602,701.474 383.602,698.974 386.5,696.5 Z"/></g>
<g><path style="opacity:0.565" fill="#bdbdbd" d="M 340.5,703.5 C 344.515,704.895 348.515,706.395 352.5,708C 358.522,708.575 364.522,708.409 370.5,707.5C 370.389,708.117 370.056,708.617 369.5,709C 360.225,710.173 351.225,709.173 342.5,706C 341.619,705.292 340.953,704.458 340.5,703.5 Z"/></g>
<g><path style="opacity:0.314" fill="#c4c4c4" d="M 213.5,710.5 C 215.404,710.738 216.738,711.738 217.5,713.5C 215.381,713.532 214.048,712.532 213.5,710.5 Z"/></g>
<g><path style="opacity:0.404" fill="#c2c2c2" d="M 632.5,712.5 C 630.853,714.326 628.853,715.66 626.5,716.5C 627.733,714.204 629.733,712.87 632.5,712.5 Z"/></g>
<g><path style="opacity:0.016" fill="#bdbdbd" d="M 266.5,712.5 C 280.323,721.236 294.656,729.236 309.5,736.5C 310.298,736.957 310.631,737.624 310.5,738.5C 301.243,734.538 292.243,730.038 283.5,725C 277.41,721.301 271.743,717.134 266.5,712.5 Z"/></g>
<g><path style="opacity:0.343" fill="#c0c0c0" d="M 626.5,716.5 C 626.047,717.458 625.381,718.292 624.5,719C 621.609,720.727 618.609,722.227 615.5,723.5C 618.339,720.018 622.005,717.685 626.5,716.5 Z"/></g>
<g><path style="opacity:0.25" fill="#bebebe" d="M 217.5,713.5 C 229.356,722.26 241.022,731.26 252.5,740.5C 248.695,738.857 245.028,736.857 241.5,734.5C 235.841,729.521 229.841,724.854 223.5,720.5C 221.419,718.153 219.419,715.82 217.5,713.5 Z"/></g>
<g><path style="opacity:0.19" fill="#c1c1c1" d="M 615.5,723.5 C 613.664,725.588 611.331,726.921 608.5,727.5C 609.348,725.907 610.681,724.74 612.5,724C 613.448,723.517 614.448,723.351 615.5,723.5 Z"/></g>
<g><path style="opacity:0.725" fill="#bebebe" d="M 608.5,727.5 C 604.61,730.613 600.276,732.946 595.5,734.5C 597.927,732.442 600.593,730.609 603.5,729C 605.025,727.991 606.692,727.491 608.5,727.5 Z"/></g>
<g><path style="opacity:0.882" fill="#bbbbbb" d="M 595.5,734.5 C 593.65,736.572 591.317,737.905 588.5,738.5C 590.046,736.069 592.379,734.736 595.5,734.5 Z"/></g>
<g><path style="opacity:0.237" fill="#bebebe" d="M 696.5,699.5 C 693.861,703.257 690.861,706.757 687.5,710C 660.927,732.893 631.927,752.227 600.5,768C 598.26,768.977 595.927,769.477 593.5,769.5C 631.35,751.403 665.684,728.07 696.5,699.5 Z"/></g>
<g><path style="opacity:0.28" fill="#bdbdbd" d="M 311.5,738.5 C 322.137,742.481 332.804,746.481 343.5,750.5C 344.713,750.747 345.38,751.414 345.5,752.5C 339.431,750.969 333.431,749.136 327.5,747C 321.711,744.81 316.378,741.977 311.5,738.5 Z"/></g>
<g><path style="opacity:0.28" fill="#bebebe" d="M 587.5,738.5 C 582.93,742.365 577.596,744.698 571.5,745.5C 571.62,744.414 572.287,743.747 573.5,743.5C 578.204,741.76 582.87,740.093 587.5,738.5 Z"/></g>
<g><path style="opacity:0.416" fill="#bdbdbd" d="M 252.5,740.5 C 254.674,740.75 256.341,741.75 257.5,743.5C 255.067,743.727 253.401,742.727 252.5,740.5 Z"/></g>
<g><path style="opacity:0.275" fill="#c2c2c2" d="M 570.5,745.5 C 568.066,747.874 565.066,749.208 561.5,749.5C 561.47,748.503 561.97,747.836 563,747.5C 565.497,746.751 567.997,746.084 570.5,745.5 Z"/></g>
<g><path style="opacity:0.514" fill="#bebebe" d="M 257.5,743.5 C 263.842,746.668 269.842,750.335 275.5,754.5C 273.94,754.481 272.44,754.148 271,753.5C 266.945,750.886 262.778,748.386 258.5,746C 257.748,745.329 257.414,744.496 257.5,743.5 Z"/></g>
<g><path style="opacity:0.475" fill="#c0c0c0" d="M 561.5,749.5 C 559.208,751.267 556.542,752.267 553.5,752.5C 555.522,750.307 558.189,749.307 561.5,749.5 Z"/></g>
<g><path style="opacity:0.433" fill="#bbbbbb" d="M 553.5,752.5 C 549.805,754.432 545.805,755.765 541.5,756.5C 541.62,755.414 542.287,754.747 543.5,754.5C 546.782,753.512 550.115,752.846 553.5,752.5 Z"/></g>
<g><path style="opacity:0.016" fill="#c1c1c1" d="M 275.5,754.5 C 278.331,755.079 280.664,756.412 282.5,758.5C 279.318,758.416 276.985,757.083 275.5,754.5 Z"/></g>
<g><path style="opacity:0.757" fill="#bbbbbb" d="M 345.5,752.5 C 357.836,755.632 370.169,758.632 382.5,761.5C 384.03,761.64 385.03,762.307 385.5,763.5C 372.331,761.125 359.331,757.958 346.5,754C 345.944,753.617 345.611,753.117 345.5,752.5 Z"/></g>
<g><path style="opacity:0.314" fill="#c1c1c1" d="M 539.5,756.5 C 535.198,758.703 530.531,760.036 525.5,760.5C 525.611,759.883 525.944,759.383 526.5,759C 530.782,757.843 535.116,757.01 539.5,756.5 Z"/></g>
<g><path style="opacity:0.49" fill="#bdbdbd" d="M 524.5,760.5 C 521.146,762.258 517.479,763.258 513.5,763.5C 513.97,762.307 514.97,761.64 516.5,761.5C 519.14,760.905 521.807,760.572 524.5,760.5 Z"/></g>
<g><path style="opacity:0.417" fill="#c0c0c0" d="M 282.5,758.5 C 290.151,761.659 297.484,765.325 304.5,769.5C 302.436,769.313 300.436,768.813 298.5,768C 293.544,765.404 288.544,762.904 283.5,760.5C 282.702,760.043 282.369,759.376 282.5,758.5 Z"/></g>
<g><path style="opacity:0.213" fill="#bdbdbd" d="M 389.5,763.5 C 396.805,764.496 404.138,765.33 411.5,766C 412.056,766.383 412.389,766.883 412.5,767.5C 407.508,767.001 402.508,766.501 397.5,766C 394.543,765.721 391.877,764.887 389.5,763.5 Z"/></g>
<g><path style="opacity:0.376" fill="#bfbfbf" d="M 511.5,763.5 C 503.435,765.699 495.102,767.032 486.5,767.5C 486.611,766.883 486.944,766.383 487.5,766C 495.507,765.166 503.507,764.332 511.5,763.5 Z"/></g>
<g><path style="opacity:0.672" fill="#b2b2b2" d="M 413.5,767.5 C 418.263,767.226 422.93,767.559 427.5,768.5C 427.5,768.833 427.5,769.167 427.5,769.5C 423.818,769.665 420.152,769.499 416.5,769C 415.263,768.768 414.263,768.268 413.5,767.5 Z"/></g>
<g><path style="opacity:0.415" fill="#b8b8b8" d="M 485.5,767.5 C 466.392,770.553 447.058,771.22 427.5,769.5C 427.5,769.167 427.5,768.833 427.5,768.5C 446.845,768.64 466.178,768.307 485.5,767.5 Z"/></g>
<g><path style="opacity:0.265" fill="#bdbdbd" d="M 305.5,769.5 C 307.967,769.755 309.967,770.755 311.5,772.5C 308.784,772.614 306.784,771.614 305.5,769.5 Z"/></g>
<g><path style="opacity:0.12" fill="#c5c5c5" d="M 311.5,772.5 C 315.149,773.267 318.482,774.6 321.5,776.5C 317.642,776.23 314.309,774.897 311.5,772.5 Z"/></g>
<g><path style="opacity:0.316" fill="#bfbfbf" d="M 593.5,769.5 C 589.025,773.342 583.692,775.675 577.5,776.5C 582.362,773.361 587.695,771.027 593.5,769.5 Z"/></g>
<g><path style="opacity:0.557" fill="#bfbfbf" d="M 322.5,776.5 C 325.912,777.075 328.912,778.408 331.5,780.5C 327.818,780.289 324.818,778.956 322.5,776.5 Z"/></g>
<g><path style="opacity:0.2" fill="#bdbdbd" d="M 576.5,776.5 C 573.587,779.365 569.921,780.699 565.5,780.5C 568.801,778.416 572.468,777.082 576.5,776.5 Z"/></g>
<g><path style="opacity:0.373" fill="#bfbfbf" d="M 333.5,780.5 C 336.486,780.903 339.152,781.903 341.5,783.5C 338.189,783.693 335.522,782.693 333.5,780.5 Z"/></g>
<g><path style="opacity:0.329" fill="#bdbdbd" d="M 565.5,780.5 C 559.064,784.956 551.731,787.289 543.5,787.5C 543.611,786.883 543.944,786.383 544.5,786C 551.507,784.161 558.507,782.328 565.5,780.5 Z"/></g>
<g><path style="opacity:0.324" fill="#bfbfbf" d="M 341.5,783.5 C 349.944,784.652 357.944,786.985 365.5,790.5C 358.191,788.853 350.857,787.186 343.5,785.5C 342.287,785.253 341.62,784.586 341.5,783.5 Z"/></g>
<g><path style="opacity:0.382" fill="#bababa" d="M 543.5,787.5 C 543.389,788.117 543.056,788.617 542.5,789C 537.565,790.267 532.565,791.1 527.5,791.5C 532.486,789.297 537.82,787.963 543.5,787.5 Z"/></g>
<g><path style="opacity:0.314" fill="#c2c2c2" d="M 372.5,791.5 C 374.806,791.993 377.139,792.326 379.5,792.5C 380.5,793.167 381.5,793.833 382.5,794.5C 379.478,794.196 376.478,793.696 373.5,793C 372.944,792.617 372.611,792.117 372.5,791.5 Z"/></g>
<g><path style="opacity:0.311" fill="#c1c1c1" d="M 526.5,791.5 C 526.389,792.117 526.056,792.617 525.5,793C 522.522,793.696 519.522,794.196 516.5,794.5C 517.5,793.833 518.5,793.167 519.5,792.5C 521.806,792.007 524.139,791.674 526.5,791.5 Z"/></g>
<g><path style="opacity:0.749" fill="#b8b8b8" d="M 379.5,792.5 C 391.574,794.681 403.574,796.681 415.5,798.5C 404.262,798.326 393.262,796.993 382.5,794.5C 381.5,793.833 380.5,793.167 379.5,792.5 Z"/></g>
<g><path style="opacity:0.349" fill="#bababa" d="M 519.5,792.5 C 518.5,793.167 517.5,793.833 516.5,794.5C 505.738,796.993 494.738,798.326 483.5,798.5C 495.374,796.511 507.374,794.511 519.5,792.5 Z"/></g>
<g><path style="opacity:0.515" fill="#c1c1c1" d="M 418.5,798.5 C 439.157,799.747 459.824,799.747 480.5,798.5C 470.522,799.832 460.189,800.499 449.5,800.5C 438.811,800.499 428.478,799.832 418.5,798.5 Z"/></g>
</svg>
