<?xml version="1.0" encoding="UTF-8"?>
<!DOCTYPE svg PUBLIC "-//W3C//DTD SVG 1.1//EN" "http://www.w3.org/Graphics/SVG/1.1/DTD/svg11.dtd">
<svg xmlns="http://www.w3.org/2000/svg" version="1.1" width="900px" height="900px" style="shape-rendering:geometricPrecision; text-rendering:geometricPrecision; image-rendering:optimizeQuality; fill-rule:evenodd; clip-rule:evenodd" xmlns:xlink="http://www.w3.org/1999/xlink">
<g><path style="opacity:0.949" fill="#000000" d="M 672.5,118.5 C 681.115,118.022 689.615,118.688 698,120.5C 701.081,121.969 703.914,123.802 706.5,126C 731.333,151.5 756.5,176.667 782,201.5C 789.167,211.646 791.501,222.98 789,235.5C 787.219,238.333 785.719,241.333 784.5,244.5C 700.68,328.82 616.68,412.986 532.5,497C 525.568,501.653 517.902,504.32 509.5,505C 483.655,505.589 457.989,507.089 432.5,509.5C 411.933,507.1 400.6,495.6 398.5,475C 400.849,449.006 402.349,422.839 403,396.5C 403.72,388.234 406.553,380.901 411.5,374.5C 494.167,292.5 576.5,210.167 658.5,127.5C 662.925,123.964 667.592,120.964 672.5,118.5 Z M 681.5,200.5 C 683.308,200.491 684.975,200.991 686.5,202C 693.456,209.492 700.456,216.992 707.5,224.5C 707,225.5 706.5,226.5 706,227.5C 635.914,297.586 565.748,367.752 495.5,438C 486.518,438.88 477.518,439.38 468.5,439.5C 468.46,430.472 468.96,421.472 470,412.5C 540.867,342.16 611.367,271.493 681.5,200.5 Z"/></g>
<g><path style="opacity:0.02" fill="#262626" d="M 425.5,148.5 C 425.289,150.424 424.623,150.757 423.5,149.5C 423.842,148.662 424.508,148.328 425.5,148.5 Z"/></g>
<g><path style="opacity:0.02" fill="#636363" d="M 425.5,148.5 C 430.697,148.091 435.697,148.758 440.5,150.5C 441.288,153.621 443.288,155.288 446.5,155.5C 447.551,156.222 448.218,157.222 448.5,158.5C 447.916,161.285 448.916,162.952 451.5,163.5C 451.5,164.167 451.5,164.833 451.5,165.5C 450.285,166.779 450.618,167.779 452.5,168.5C 452.795,170.735 452.461,172.735 451.5,174.5C 449.737,176.994 448.403,180.328 447.5,184.5C 440.615,192.735 431.949,195.235 421.5,192C 418.213,190.533 415.546,188.366 413.5,185.5C 412.62,182.738 411.454,180.071 410,177.5C 409.617,178.056 409.117,178.389 408.5,178.5C 407.656,174.901 407.323,171.234 407.5,167.5C 409.796,167.196 410.129,166.196 408.5,164.5C 408.5,164.167 408.5,163.833 408.5,163.5C 410.677,164.504 411.011,163.838 409.5,161.5C 409.733,159.938 410.4,158.605 411.5,157.5C 412.117,157.611 412.617,157.944 413,158.5C 415.491,155.168 418.658,152.668 422.5,151C 421.944,150.617 421.611,150.117 421.5,149.5C 422.167,149.5 422.833,149.5 423.5,149.5C 424.623,150.757 425.289,150.424 425.5,148.5 Z"/></g>
<g><path style="opacity:0.012" fill="#343434" d="M 440.5,150.5 C 443.109,151.443 445.109,153.11 446.5,155.5C 443.288,155.288 441.288,153.621 440.5,150.5 Z"/></g>
<g><path style="opacity:0.016" fill="#333333" d="M 421.5,149.5 C 421.611,150.117 421.944,150.617 422.5,151C 418.658,152.668 415.491,155.168 413,158.5C 412.617,157.944 412.117,157.611 411.5,157.5C 413.943,153.724 417.276,151.057 421.5,149.5 Z"/></g>
<g><path style="opacity:0.02" fill="#2d2d2d" d="M 448.5,158.5 C 449.737,159.965 450.737,161.632 451.5,163.5C 448.916,162.952 447.916,161.285 448.5,158.5 Z"/></g>
<g><path style="opacity:0.02" fill="#232323" d="M 409.5,161.5 C 411.011,163.838 410.677,164.504 408.5,163.5C 408.328,162.508 408.662,161.842 409.5,161.5 Z"/></g>
<g><path style="opacity:0.02" fill="#242424" d="M 408.5,164.5 C 410.129,166.196 409.796,167.196 407.5,167.5C 407.263,166.209 407.596,165.209 408.5,164.5 Z"/></g>
<g><path style="opacity:0.02" fill="#242424" d="M 451.5,165.5 C 452.404,166.209 452.737,167.209 452.5,168.5C 450.618,167.779 450.285,166.779 451.5,165.5 Z"/></g>
<g><path style="opacity:0.02" fill="#383838" d="M 413.5,185.5 C 411.478,183.469 409.811,181.135 408.5,178.5C 409.117,178.389 409.617,178.056 410,177.5C 411.454,180.071 412.62,182.738 413.5,185.5 Z"/></g>
<g><path style="opacity:0.012" fill="#373737" d="M 451.5,174.5 C 451.928,178.342 450.595,181.676 447.5,184.5C 448.403,180.328 449.737,176.994 451.5,174.5 Z"/></g>
<g><path style="opacity:0.967" fill="#000000" d="M 222.5,208.5 C 300.501,208.333 378.501,208.5 456.5,209C 479.966,215.416 488.966,230.583 483.5,254.5C 478.784,264.719 471.118,271.553 460.5,275C 382.833,275.333 305.167,275.667 227.5,276C 212.622,278.353 201.122,285.853 193,298.5C 189.615,305.041 187.949,312.041 188,319.5C 187.333,438.5 187.333,557.5 188,676.5C 188.617,690.896 194.451,702.562 205.5,711.5C 209.683,714.092 214.016,716.425 218.5,718.5C 222.804,719.21 227.137,719.71 231.5,720C 350.5,720.667 469.5,720.667 588.5,720C 606.811,718.724 620.145,709.891 628.5,693.5C 629.565,689.138 630.732,684.805 632,680.5C 632.333,602.833 632.667,525.167 633,447.5C 637.774,431.585 648.607,423.252 665.5,422.5C 684.041,423.682 695.208,433.349 699,451.5C 699.667,529.5 699.667,607.5 699,685.5C 694.299,727.509 673.466,758.009 636.5,777C 626.875,781.128 616.875,784.128 606.5,786C 475.167,786.667 343.833,786.667 212.5,786C 163,775.167 132.833,745 122,695.5C 121.173,562.988 121.339,430.488 122.5,298C 135.458,245.548 168.791,215.715 222.5,208.5 Z"/></g>
</svg>
