<?xml version="1.0" encoding="UTF-8"?>
<!DOCTYPE svg PUBLIC "-//W3C//DTD SVG 1.1//EN" "http://www.w3.org/Graphics/SVG/1.1/DTD/svg11.dtd">
<svg xmlns="http://www.w3.org/2000/svg" version="1.1" width="900px" height="900px" style="shape-rendering:geometricPrecision; text-rendering:geometricPrecision; image-rendering:optimizeQuality; fill-rule:evenodd; clip-rule:evenodd" xmlns:xlink="http://www.w3.org/1999/xlink">
<g><path style="opacity:0.986" fill="#6d76d1" d="M 682.5,123.5 C 703.393,121.299 722.06,126.466 738.5,139C 755.694,156.194 772.86,173.36 790,190.5C 809.192,222.183 807.859,252.849 786,282.5C 767.963,299.538 750.296,316.871 733,334.5C 685.477,287.829 638.31,240.829 591.5,193.5C 610.402,173.097 630.069,153.597 650.5,135C 660.533,129.139 671.199,125.305 682.5,123.5 Z"/></g>
<g><path style="opacity:0.02" fill="#606060" d="M 423.5,148.5 C 443.569,147.075 453.236,156.241 452.5,176C 446.254,191.417 435.254,196.417 419.5,191C 407.666,183.161 404.499,172.661 410,159.5C 413.213,154.107 417.713,150.441 423.5,148.5 Z"/></g>
<g><path style="opacity:0.993" fill="#6e76d1" d="M 551.5,232.5 C 552.873,232.343 554.207,232.51 555.5,233C 601.333,278.833 647.167,324.667 693,370.5C 693.667,372.167 693.667,373.833 693,375.5C 572.543,494.991 452.376,614.825 332.5,735C 282.824,747.81 233.158,760.476 183.5,773C 174.207,775.618 164.873,775.951 155.5,774C 154.378,771.876 152.878,770.043 151,768.5C 150.226,761.776 150.559,755.11 152,748.5C 164.584,698.307 177.084,648.14 189.5,598C 190.253,596.123 191.086,594.289 192,592.5C 312.062,472.605 431.895,352.605 551.5,232.5 Z"/></g>
</svg>
