<?xml version="1.0" encoding="UTF-8"?>
<!DOCTYPE svg PUBLIC "-//W3C//DTD SVG 1.1//EN" "http://www.w3.org/Graphics/SVG/1.1/DTD/svg11.dtd">
<svg xmlns="http://www.w3.org/2000/svg" version="1.1" width="900px" height="900px" style="shape-rendering:geometricPrecision; text-rendering:geometricPrecision; image-rendering:optimizeQuality; fill-rule:evenodd; clip-rule:evenodd" xmlns:xlink="http://www.w3.org/1999/xlink">
<g><path style="opacity:0.977" fill="#979797" d="M 257.5,212.5 C 385.5,212.333 513.5,212.5 641.5,213C 676.455,219.289 697.622,239.789 705,274.5C 705.667,364.5 705.667,454.5 705,544.5C 697.622,579.211 676.455,599.711 641.5,606C 567.833,606.333 494.167,606.667 420.5,607C 386.5,633 352.5,659 318.5,685C 308.169,688.447 300.669,685.281 296,675.5C 295.29,652.503 294.79,629.503 294.5,606.5C 280.122,606.891 265.789,606.391 251.5,605C 219.675,596.843 200.509,576.676 194,544.5C 193.333,454.5 193.333,364.5 194,274.5C 201.556,239.777 222.722,219.11 257.5,212.5 Z M 264.5,244.5 C 387.834,244.333 511.167,244.5 634.5,245C 655.507,247.338 668.34,258.838 673,279.5C 673.667,366.167 673.667,452.833 673,539.5C 668.34,560.162 655.507,571.662 634.5,574C 559.833,574.333 485.167,574.667 410.5,575C 407.371,576.399 404.371,578.065 401.5,580C 377.31,599.025 352.976,617.858 328.5,636.5C 327.57,619.506 326.737,602.506 326,585.5C 324.5,580 321,576.5 315.5,575C 298.5,574.667 281.5,574.333 264.5,574C 243.493,571.662 230.66,560.162 226,539.5C 225.333,452.833 225.333,366.167 226,279.5C 230.831,258.829 243.664,247.162 264.5,244.5 Z"/></g>
</svg>
