<?xml version="1.0" encoding="UTF-8"?>
<!DOCTYPE svg PUBLIC "-//W3C//DTD SVG 1.1//EN" "http://www.w3.org/Graphics/SVG/1.1/DTD/svg11.dtd">
<svg xmlns="http://www.w3.org/2000/svg" version="1.1" width="900px" height="900px" style="shape-rendering:geometricPrecision; text-rendering:geometricPrecision; image-rendering:optimizeQuality; fill-rule:evenodd; clip-rule:evenodd" xmlns:xlink="http://www.w3.org/1999/xlink">
<g><path style="opacity:0.997" fill="#fefefe" d="M 257.5,212.5 C 385.5,212.333 513.5,212.5 641.5,213C 676.455,219.289 697.622,239.789 705,274.5C 705.667,364.5 705.667,454.5 705,544.5C 697.622,579.211 676.455,599.711 641.5,606C 567.833,606.333 494.167,606.667 420.5,607C 386.5,633 352.5,659 318.5,685C 308.169,688.447 300.669,685.281 296,675.5C 295.29,652.503 294.79,629.503 294.5,606.5C 280.122,606.891 265.789,606.391 251.5,605C 219.675,596.843 200.509,576.676 194,544.5C 193.333,454.5 193.333,364.5 194,274.5C 201.556,239.777 222.722,219.11 257.5,212.5 Z"/></g>
</svg>
