<?xml version="1.0" encoding="UTF-8"?>
<!DOCTYPE svg PUBLIC "-//W3C//DTD SVG 1.1//EN" "http://www.w3.org/Graphics/SVG/1.1/DTD/svg11.dtd">
<svg xmlns="http://www.w3.org/2000/svg" version="1.1" width="900px" height="900px" style="shape-rendering:geometricPrecision; text-rendering:geometricPrecision; image-rendering:optimizeQuality; fill-rule:evenodd; clip-rule:evenodd" xmlns:xlink="http://www.w3.org/1999/xlink">
<g><path style="opacity:0.98" fill="#4a4a4a" d="M 452.5,141.5 C 522.442,141.091 586.109,160.924 643.5,201C 713.369,254.233 754.202,324.4 766,411.5C 773.447,483.742 757.78,551.075 719,613.5C 662.079,697.068 582.912,743.235 481.5,752C 407.038,755.227 339.705,735.227 279.5,692C 207.475,635.851 166.975,562.017 158,470.5C 154.14,397.099 172.806,330.099 214,269.5C 273.568,190.291 353.068,147.624 452.5,141.5 Z M 442.5,190.5 C 540.983,186.329 618.816,223.996 676,303.5C 719.948,372.801 730.615,447.135 708,526.5C 678.681,608.153 623.181,663.319 541.5,692C 479.617,710.893 418.617,707.893 358.5,683C 271.031,640.157 220.531,570.323 207,473.5C 199.257,383.346 229.424,308.846 297.5,250C 339.649,215.264 387.983,195.43 442.5,190.5 Z"/></g>
<g><path style="opacity:0.98" fill="#4a4a4a" d="M 315.5,407.5 C 316.239,407.631 316.906,407.464 317.5,407C 310.412,401.584 305.246,394.751 302,386.5C 301.617,387.056 301.117,387.389 300.5,387.5C 292.855,362.851 299.189,342.684 319.5,327C 336.613,317.771 353.947,317.438 371.5,326C 393.09,340.486 400.257,360.319 393,385.5C 386.908,401.926 375.408,412.426 358.5,417C 347.279,418.165 336.279,417.165 325.5,414C 321.931,412.058 318.598,409.892 315.5,407.5 Z"/></g>
<g><path style="opacity:0.979" fill="#4a4a4a" d="M 571.5,319.5 C 600.114,318.301 618.614,331.301 627,358.5C 630.263,387.856 618.097,407.356 590.5,417C 559.679,421.353 539.513,408.853 530,379.5C 526.84,347.426 540.673,327.426 571.5,319.5 Z"/></g>
<g><path style="opacity:0.21" fill="#7e7e7e" d="M 315.5,407.5 C 309.024,402.013 304.024,395.346 300.5,387.5C 301.117,387.389 301.617,387.056 302,386.5C 305.246,394.751 310.412,401.584 317.5,407C 316.906,407.464 316.239,407.631 315.5,407.5 Z"/></g>
<g><path style="opacity:0.972" fill="#4a4a4a" d="M 463.5,477.5 C 513.894,477.032 557.06,494.698 593,530.5C 604.573,543.297 613.907,557.631 621,573.5C 624.651,583.667 624.318,593.667 620,603.5C 606.974,616.677 594.308,616.677 582,603.5C 562.9,559.154 529.066,534.654 480.5,530C 435.706,526.154 396.873,539.654 364,570.5C 355.739,580.687 348.739,591.687 343,603.5C 331.019,615.18 318.685,615.18 306,603.5C 300.447,591.926 300.447,580.593 306,569.5C 333.417,521.121 374.583,491.621 429.5,481C 440.923,479.702 452.256,478.536 463.5,477.5 Z"/></g>
</svg>
