<?xml version="1.0" encoding="UTF-8"?>
<!DOCTYPE svg PUBLIC "-//W3C//DTD SVG 1.1//EN" "http://www.w3.org/Graphics/SVG/1.1/DTD/svg11.dtd">
<svg xmlns="http://www.w3.org/2000/svg" version="1.1" width="900px" height="900px" style="shape-rendering:geometricPrecision; text-rendering:geometricPrecision; image-rendering:optimizeQuality; fill-rule:evenodd; clip-rule:evenodd" xmlns:xlink="http://www.w3.org/1999/xlink">
<g><path style="opacity:0.475" fill="#c56065" d="M 500.5,150.5 C 474.824,148.08 449.157,148.08 423.5,150.5C 426.701,148.74 430.367,147.906 434.5,148C 456.19,147.136 477.857,147.47 499.5,149C 500.056,149.383 500.389,149.883 500.5,150.5 Z"/></g>
<g><path style="opacity:1" fill="#e5343e" d="M 500.5,150.5 C 500.918,151.222 501.584,151.722 502.5,152C 514.224,153.621 525.891,155.454 537.5,157.5C 551.333,161.613 565,166.446 578.5,172C 591.271,177.885 603.938,184.052 616.5,190.5C 622.951,195.944 629.951,200.61 637.5,204.5C 650.677,215.26 663.677,226.26 676.5,237.5C 685.869,248.531 695.203,259.531 704.5,270.5C 705.551,273.961 707.551,276.627 710.5,278.5C 710.833,278.5 711.167,278.5 711.5,278.5C 714.36,285.886 718.027,292.886 722.5,299.5C 722.957,300.298 723.624,300.631 724.5,300.5C 728.377,309.468 732.71,318.134 737.5,326.5C 739.222,332.168 741.056,337.835 743,343.5C 743.383,344.056 743.883,344.389 744.5,344.5C 745.214,349.324 746.88,353.658 749.5,357.5C 751.662,367.482 753.828,377.482 756,387.5C 756.383,388.056 756.883,388.389 757.5,388.5C 757.5,388.833 757.5,389.167 757.5,389.5C 766.887,445.671 762.553,500.671 744.5,554.5C 744.5,554.833 744.5,555.167 744.5,555.5C 738.458,569.76 731.625,583.76 724,597.5C 717.478,607.89 710.978,618.223 704.5,628.5C 670.638,671.733 628.971,704.733 579.5,727.5C 578.791,728.404 577.791,728.737 576.5,728.5C 562.598,733.309 548.598,737.809 534.5,742C 525.855,743.026 517.522,744.86 509.5,747.5C 506.609,748.403 503.609,748.736 500.5,748.5C 474.819,750.892 449.152,750.892 423.5,748.5C 423.167,748.5 422.833,748.5 422.5,748.5C 422.389,747.883 422.056,747.383 421.5,747C 409.77,745.491 398.103,743.658 386.5,741.5C 370.928,736.785 355.594,731.285 340.5,725C 329.361,719.578 318.361,714.078 307.5,708.5C 307.167,708.5 306.833,708.5 306.5,708.5C 303.197,704.844 299.197,702.178 294.5,700.5C 292.807,697.318 290.141,695.652 286.5,695.5C 286.5,695.167 286.5,694.833 286.5,694.5C 283.725,691.395 280.392,689.062 276.5,687.5C 241.831,658.669 213.997,624.335 193,584.5C 186.434,571.312 180.934,557.646 176.5,543.5C 176.253,542.287 175.586,541.62 174.5,541.5C 172.917,533.665 171.25,525.832 169.5,518C 169.316,516.624 168.649,515.791 167.5,515.5C 166.539,513.735 166.205,511.735 166.5,509.5C 160.37,470.838 160.203,432.172 166,393.5C 168.497,385.024 170.497,376.358 172,367.5C 176.384,353.606 181.217,339.939 186.5,326.5C 186.557,325.391 186.89,324.391 187.5,323.5C 190.874,319.419 193.207,314.753 194.5,309.5C 201.083,299.337 207.416,289.004 213.5,278.5C 232.835,252.661 255.168,229.494 280.5,209C 282.5,208 284.5,207 286.5,206C 293.042,200.618 299.709,195.452 306.5,190.5C 306.833,190.5 307.167,190.5 307.5,190.5C 311.505,189.502 314.839,187.502 317.5,184.5C 326.227,180.14 335.227,176.306 344.5,173C 345.381,172.292 346.047,171.458 346.5,170.5C 346.833,170.5 347.167,170.5 347.5,170.5C 358.717,165.893 370.05,161.893 381.5,158.5C 382.919,157.549 384.585,157.216 386.5,157.5C 398.662,155.365 410.662,153.032 422.5,150.5C 422.833,150.5 423.167,150.5 423.5,150.5C 449.157,148.08 474.824,148.08 500.5,150.5 Z"/></g>
<g><path style="opacity:0.533" fill="#ca5e61" d="M 500.5,150.5 C 512.141,151.134 523.641,152.801 535,155.5C 536.376,155.684 537.209,156.351 537.5,157.5C 525.891,155.454 514.224,153.621 502.5,152C 501.584,151.722 500.918,151.222 500.5,150.5 Z"/></g>
<g><path style="opacity:0.145" fill="#c56367" d="M 422.5,150.5 C 410.662,153.032 398.662,155.365 386.5,157.5C 386.791,156.351 387.624,155.684 389,155.5C 400.056,153.04 411.223,151.373 422.5,150.5 Z"/></g>
<g><path style="opacity:0.776" fill="#c76468" d="M 381.5,158.5 C 370.05,161.893 358.717,165.893 347.5,170.5C 347.577,169.25 348.244,168.417 349.5,168C 354.417,166.917 359.084,165.251 363.5,163C 369.356,160.869 375.356,159.369 381.5,158.5 Z"/></g>
<g><path style="opacity:0.271" fill="#c56466" d="M 346.5,170.5 C 346.047,171.458 345.381,172.292 344.5,173C 335.227,176.306 326.227,180.14 317.5,184.5C 326.253,178.116 335.919,173.449 346.5,170.5 Z"/></g>
<g><path style="opacity:0.431" fill="#c66163" d="M 537.5,157.5 C 543.249,158.187 548.916,159.353 554.5,161C 575.61,168.32 595.943,177.487 615.5,188.5C 616.298,188.957 616.631,189.624 616.5,190.5C 603.938,184.052 591.271,177.885 578.5,172C 565,166.446 551.333,161.613 537.5,157.5 Z"/></g>
<g><path style="opacity:0.122" fill="#bf6167" d="M 317.5,184.5 C 314.839,187.502 311.505,189.502 307.5,190.5C 309.903,187.224 313.237,185.224 317.5,184.5 Z"/></g>
<g><path style="opacity:0.694" fill="#c96568" d="M 616.5,190.5 C 619.889,191.691 623.222,193.191 626.5,195C 629.484,197.826 632.817,200.159 636.5,202C 637.252,202.671 637.586,203.504 637.5,204.5C 629.951,200.61 622.951,195.944 616.5,190.5 Z"/></g>
<g><path style="opacity:0.322" fill="#c56466" d="M 637.5,204.5 C 638.552,204.351 639.552,204.517 640.5,205C 649.432,211.591 658.098,218.591 666.5,226C 670.148,229.634 673.481,233.467 676.5,237.5C 663.677,226.26 650.677,215.26 637.5,204.5 Z"/></g>
<g><path style="opacity:0.396" fill="#c56467" d="M 306.5,190.5 C 299.709,195.452 293.042,200.618 286.5,206C 284.5,207 282.5,208 280.5,209C 255.168,229.494 232.835,252.661 213.5,278.5C 214.128,275.91 215.295,273.577 217,271.5C 221.587,265.975 225.921,260.308 230,254.5C 249.929,231.914 272.429,212.081 297.5,195C 300.553,193.473 303.553,191.973 306.5,190.5 Z"/></g>
<g><path style="opacity:0.322" fill="#c66669" d="M 676.5,237.5 C 677.473,237.987 678.473,238.487 679.5,239C 684.726,243.889 689.559,249.056 694,254.5C 697.302,258.809 700.636,263.143 704,267.5C 704.483,268.448 704.649,269.448 704.5,270.5C 695.203,259.531 685.869,248.531 676.5,237.5 Z"/></g>
<g><path style="opacity:0.188" fill="#c46161" d="M 704.5,270.5 C 707.558,272.243 709.558,274.91 710.5,278.5C 707.551,276.627 705.551,273.961 704.5,270.5 Z"/></g>
<g><path style="opacity:0.322" fill="#cb6669" d="M 711.5,278.5 C 716.622,285.307 720.956,292.64 724.5,300.5C 723.624,300.631 722.957,300.298 722.5,299.5C 718.027,292.886 714.36,285.886 711.5,278.5 Z"/></g>
<g><path style="opacity:0.341" fill="#c56566" d="M 213.5,278.5 C 207.416,289.004 201.083,299.337 194.5,309.5C 195.654,306.521 196.82,303.521 198,300.5C 202.584,293.668 206.917,286.668 211,279.5C 211.671,278.748 212.504,278.414 213.5,278.5 Z"/></g>
<g><path style="opacity:0.275" fill="#c56765" d="M 194.5,309.5 C 193.207,314.753 190.874,319.419 187.5,323.5C 188.799,318.236 191.132,313.569 194.5,309.5 Z"/></g>
<g><path style="opacity:0.314" fill="#c86466" d="M 724.5,300.5 C 730.36,308.22 734.694,316.887 737.5,326.5C 732.71,318.134 728.377,309.468 724.5,300.5 Z"/></g>
<g><path style="opacity:1" fill="#fefefe" d="M 336.5,321.5 C 367.422,318.864 386.589,332.531 394,362.5C 395.308,391.061 382.141,408.894 354.5,416C 324.026,418.193 305.526,404.36 299,374.5C 298.102,347.247 310.602,329.58 336.5,321.5 Z"/></g>
<g><path style="opacity:1" fill="#fefefe" d="M 568.5,321.5 C 599.422,318.864 618.589,332.531 626,362.5C 627.308,391.061 614.141,408.894 586.5,416C 556.026,418.193 537.526,404.36 531,374.5C 530.102,347.247 542.602,329.58 568.5,321.5 Z"/></g>
<g><path style="opacity:0.69" fill="#c96164" d="M 737.5,326.5 C 741.358,331.712 743.691,337.712 744.5,344.5C 743.883,344.389 743.383,344.056 743,343.5C 741.056,337.835 739.222,332.168 737.5,326.5 Z"/></g>
<g><path style="opacity:0.596" fill="#c46368" d="M 744.5,344.5 C 745.75,344.577 746.583,345.244 747,346.5C 748.15,350.112 748.983,353.778 749.5,357.5C 746.88,353.658 745.214,349.324 744.5,344.5 Z"/></g>
<g><path style="opacity:0.114" fill="#c96064" d="M 749.5,357.5 C 753.862,367.276 756.528,377.609 757.5,388.5C 756.883,388.389 756.383,388.056 756,387.5C 753.828,377.482 751.662,367.482 749.5,357.5 Z"/></g>
<g><path style="opacity:0.541" fill="#ca5c60" d="M 186.5,326.5 C 181.217,339.939 176.384,353.606 172,367.5C 170.497,376.358 168.497,385.024 166,393.5C 160.203,432.172 160.37,470.838 166.5,509.5C 164.87,507.974 164.037,505.974 164,503.5C 154.446,444.219 160.779,386.886 183,331.5C 183.549,329.24 184.716,327.574 186.5,326.5 Z"/></g>
<g><path style="opacity:1" fill="#fefdfd" d="M 479.5,479.5 C 485.31,480.857 491.31,481.857 497.5,482.5C 548.06,491.003 586.56,517.003 613,560.5C 619.608,571.311 622.274,582.977 621,595.5C 614.657,610.279 604.157,614.446 589.5,608C 583.689,602.218 579.522,595.385 577,587.5C 553.995,551.734 521.162,531.9 478.5,528C 462.181,526.738 446.181,527.905 430.5,531.5C 424.085,532.527 418.085,534.527 412.5,537.5C 407.533,538.988 402.866,540.988 398.5,543.5C 396.326,543.75 394.659,544.75 393.5,546.5C 375.7,556.795 360.866,570.461 349,587.5C 346.628,590.91 344.795,594.577 343.5,598.5C 341.196,601.141 338.862,603.808 336.5,606.5C 328.465,611.766 320.465,611.766 312.5,606.5C 311.167,604.5 309.5,602.833 307.5,601.5C 304.764,594.485 303.764,587.151 304.5,579.5C 306.585,577.316 307.585,574.649 307.5,571.5C 322.108,542.723 343.441,520.223 371.5,504C 379.845,500.16 388.178,496.327 396.5,492.5C 402.915,491.473 408.915,489.473 414.5,486.5C 415.568,485.566 416.901,485.232 418.5,485.5C 421.228,485.829 423.562,485.163 425.5,483.5C 443.325,480.038 461.325,478.705 479.5,479.5 Z"/></g>
<g><path style="opacity:1" fill="#ef767a" d="M 479.5,479.5 C 485.82,479.4 491.82,480.4 497.5,482.5C 491.31,481.857 485.31,480.857 479.5,479.5 Z"/></g>
<g><path style="opacity:0.31" fill="#c95a5f" d="M 757.5,389.5 C 758.117,389.611 758.617,389.944 759,390.5C 768.605,445.92 764.438,500.087 746.5,553C 746.164,554.03 745.497,554.53 744.5,554.5C 762.553,500.671 766.887,445.671 757.5,389.5 Z"/></g>
<g><path style="opacity:1" fill="#f7b2b5" d="M 425.5,483.5 C 423.562,485.163 421.228,485.829 418.5,485.5C 420.515,484.076 422.848,483.41 425.5,483.5 Z"/></g>
<g><path style="opacity:1" fill="#facbcd" d="M 414.5,486.5 C 408.915,489.473 402.915,491.473 396.5,492.5C 402.085,489.527 408.085,487.527 414.5,486.5 Z"/></g>
<g><path style="opacity:0.09" fill="#c86367" d="M 167.5,515.5 C 168.649,515.791 169.316,516.624 169.5,518C 171.25,525.832 172.917,533.665 174.5,541.5C 170.64,533.405 168.307,524.739 167.5,515.5 Z"/></g>
<g><path style="opacity:1" fill="#ed6c70" d="M 430.5,531.5 C 424.767,534.078 418.767,536.078 412.5,537.5C 418.085,534.527 424.085,532.527 430.5,531.5 Z"/></g>
<g><path style="opacity:1" fill="#ef777b" d="M 398.5,543.5 C 397.514,545.408 395.848,546.408 393.5,546.5C 394.659,544.75 396.326,543.75 398.5,543.5 Z"/></g>
<g><path style="opacity:1" fill="#f9bdbf" d="M 307.5,571.5 C 307.585,574.649 306.585,577.316 304.5,579.5C 304.415,576.351 305.415,573.684 307.5,571.5 Z"/></g>
<g><path style="opacity:1" fill="#ed6b70" d="M 304.5,579.5 C 303.764,587.151 304.764,594.485 307.5,601.5C 305.665,600.878 304.498,599.544 304,597.5C 303.181,591.319 303.347,585.319 304.5,579.5 Z"/></g>
<g><path style="opacity:1" fill="#f08185" d="M 307.5,601.5 C 309.5,602.833 311.167,604.5 312.5,606.5C 309.833,605.833 308.167,604.167 307.5,601.5 Z"/></g>
<g><path style="opacity:1" fill="#ef787c" d="M 343.5,598.5 C 343.657,599.873 343.49,601.207 343,602.5C 340.931,604.085 338.764,605.419 336.5,606.5C 338.862,603.808 341.196,601.141 343.5,598.5 Z"/></g>
<g><path style="opacity:0.165" fill="#c86567" d="M 744.5,555.5 C 743.34,560.814 741.673,565.98 739.5,571C 730.056,590.732 719.223,609.565 707,627.5C 706.329,628.252 705.496,628.586 704.5,628.5C 710.978,618.223 717.478,607.89 724,597.5C 731.625,583.76 738.458,569.76 744.5,555.5 Z"/></g>
<g><path style="opacity:0.592" fill="#c76466" d="M 174.5,541.5 C 175.586,541.62 176.253,542.287 176.5,543.5C 180.934,557.646 186.434,571.312 193,584.5C 213.997,624.335 241.831,658.669 276.5,687.5C 274.745,686.928 273.078,686.094 271.5,685C 228.532,649.31 197.032,605.144 177,552.5C 175.85,548.888 175.017,545.222 174.5,541.5 Z"/></g>
<g><path style="opacity:0.353" fill="#c66566" d="M 704.5,628.5 C 703.291,631.721 701.624,634.721 699.5,637.5C 672.147,671.337 639.147,698.504 600.5,719C 593.695,722.406 586.695,725.239 579.5,727.5C 628.971,704.733 670.638,671.733 704.5,628.5 Z"/></g>
<g><path style="opacity:0.635" fill="#c76869" d="M 276.5,687.5 C 280.392,689.062 283.725,691.395 286.5,694.5C 282.117,693.644 278.784,691.31 276.5,687.5 Z"/></g>
<g><path style="opacity:0.149" fill="#c36667" d="M 286.5,695.5 C 290.141,695.652 292.807,697.318 294.5,700.5C 291.296,699.617 288.629,697.95 286.5,695.5 Z"/></g>
<g><path style="opacity:0.314" fill="#c96e70" d="M 294.5,700.5 C 299.197,702.178 303.197,704.844 306.5,708.5C 301.803,706.822 297.803,704.156 294.5,700.5 Z"/></g>
<g><path style="opacity:0.2" fill="#c66467" d="M 307.5,708.5 C 318.361,714.078 329.361,719.578 340.5,725C 355.594,731.285 370.928,736.785 386.5,741.5C 380.751,740.813 375.084,739.647 369.5,738C 349.203,730.683 329.536,722.016 310.5,712C 308.937,711.241 307.937,710.074 307.5,708.5 Z"/></g>
<g><path style="opacity:0.467" fill="#c96467" d="M 576.5,728.5 C 576.53,729.497 576.03,730.164 575,730.5C 567.98,732.616 561.147,735.116 554.5,738C 539.866,742.893 524.866,746.06 509.5,747.5C 517.522,744.86 525.855,743.026 534.5,742C 548.598,737.809 562.598,733.309 576.5,728.5 Z"/></g>
<g><path style="opacity:0.89" fill="#ca595d" d="M 386.5,741.5 C 398.103,743.658 409.77,745.491 421.5,747C 422.056,747.383 422.389,747.883 422.5,748.5C 411.223,747.627 400.056,745.96 389,743.5C 387.624,743.316 386.791,742.649 386.5,741.5 Z"/></g>
<g><path style="opacity:0.475" fill="#c45f63" d="M 423.5,748.5 C 449.152,750.892 474.819,750.892 500.5,748.5C 500.389,749.117 500.056,749.617 499.5,750C 474.5,752 449.5,752 424.5,750C 423.944,749.617 423.611,749.117 423.5,748.5 Z"/></g>
</svg>
