<?xml version="1.0" encoding="UTF-8"?>
<!DOCTYPE svg PUBLIC "-//W3C//DTD SVG 1.1//EN" "http://www.w3.org/Graphics/SVG/1.1/DTD/svg11.dtd">
<svg xmlns="http://www.w3.org/2000/svg" version="1.1" width="900px" height="900px" style="shape-rendering:geometricPrecision; text-rendering:geometricPrecision; image-rendering:optimizeQuality; fill-rule:evenodd; clip-rule:evenodd" xmlns:xlink="http://www.w3.org/1999/xlink">
<g><path style="opacity:0.962" fill="#696969" d="M 437.5,71.5 C 451.516,71.1674 465.516,71.5008 479.5,72.5C 489.609,75.716 498.609,80.716 506.5,87.5C 609.167,190.833 712.167,293.833 815.5,396.5C 817.129,399.626 819.295,402.293 822,404.5C 824.813,411.282 827.813,417.948 831,424.5C 837.635,453.662 830.468,478.329 809.5,498.5C 793.101,511.14 774.434,516.806 753.5,515.5C 753.667,590.834 753.5,666.167 753,741.5C 750.72,775.087 734.387,799.087 704,813.5C 698.407,815.986 692.573,817.652 686.5,818.5C 638.833,819.833 591.167,819.833 543.5,818.5C 537.483,816.145 533.15,811.979 530.5,806C 529.839,742.859 529.172,679.692 528.5,616.5C 525.192,600.696 515.859,590.529 500.5,586C 472.167,585.333 443.833,585.333 415.5,586C 400.292,590.501 391.125,600.668 388,616.5C 387.667,679.167 387.333,741.833 387,804.5C 384.153,811.166 379.32,815.833 372.5,818.5C 324.833,819.833 277.167,819.833 229.5,818.5C 197.28,811.159 176.114,791.826 166,760.5C 165.112,754.844 164.279,749.177 163.5,743.5C 162.5,667.503 162.167,591.503 162.5,515.5C 126.663,517.267 101.496,501.934 87,469.5C 78.5714,441.901 83.5714,417.234 102,395.5C 205.5,293.333 308.333,190.5 410.5,87C 418.93,80.6033 427.93,75.4367 437.5,71.5 Z M 451.5,116.5 C 460.049,115.474 467.716,117.474 474.5,122.5C 576.167,224.833 678.167,326.833 780.5,428.5C 788.309,439.016 788.475,449.683 781,460.5C 776.492,464.337 771.325,466.837 765.5,468C 751.167,468.333 736.833,468.667 722.5,469C 715.775,471.957 710.942,476.79 708,483.5C 707.833,569.169 707.333,654.835 706.5,740.5C 704.176,756.317 695.51,766.817 680.5,772C 645.526,773.437 610.526,773.937 575.5,773.5C 575.667,720.166 575.5,666.832 575,613.5C 571.3,581.519 555.134,558.686 526.5,545C 519.74,542.263 512.74,540.43 505.5,539.5C 474.172,538.333 442.839,538.167 411.5,539C 370.902,547.262 347.402,571.762 341,612.5C 340.5,666.166 340.333,719.832 340.5,773.5C 305.476,773.93 270.476,773.43 235.5,772C 225.881,768.723 218.547,762.723 213.5,754C 212.153,749.884 210.987,745.717 210,741.5C 209.833,655.498 209.333,569.498 208.5,483.5C 206.062,476.641 201.396,471.974 194.5,469.5C 178.133,468.924 161.8,468.091 145.5,467C 132.844,461.186 128.01,451.353 131,437.5C 132.937,434.207 134.937,430.873 137,427.5C 239.167,326 341,224.167 442.5,122C 445.587,120.132 448.587,118.299 451.5,116.5 Z"/></g>
</svg>
