<?xml version="1.0" encoding="UTF-8"?>
<!DOCTYPE svg PUBLIC "-//W3C//DTD SVG 1.1//EN" "http://www.w3.org/Graphics/SVG/1.1/DTD/svg11.dtd">
<svg xmlns="http://www.w3.org/2000/svg" version="1.1" width="900px" height="900px" style="shape-rendering:geometricPrecision; text-rendering:geometricPrecision; image-rendering:optimizeQuality; fill-rule:evenodd; clip-rule:evenodd" xmlns:xlink="http://www.w3.org/1999/xlink">
<g><path style="opacity:0.995" fill="#8087db" d="M 439.5,77.5 C 462.668,73.7943 483.668,78.6277 502.5,92C 604.228,193.973 706.061,295.806 808,397.5C 820.858,411.569 826.692,428.235 825.5,447.5C 826.047,476.766 813.213,497.766 787,510.5C 774.31,515.398 761.143,517.398 747.5,516.5C 747.667,594.167 747.5,671.834 747,749.5C 741.562,781.937 723.396,803.77 692.5,815C 688.886,815.945 685.219,816.612 681.5,817C 634.833,817.667 588.167,817.667 541.5,817C 531.998,814.145 526.831,807.645 526,797.5C 525.667,736.5 525.333,675.5 525,614.5C 520.01,596.21 507.843,586.71 488.5,586C 466.5,585.333 444.5,585.333 422.5,586C 407.313,586.743 396.313,593.743 389.5,607C 389.041,609.355 388.208,611.521 387,613.5C 386.667,673.5 386.333,733.5 386,793.5C 386.746,805.873 381.246,813.707 369.5,817C 323.833,817.667 278.167,817.667 232.5,817C 195.155,810.32 172.655,788.487 165,751.5C 163.559,673.179 163.059,594.845 163.5,516.5C 138.319,518.057 117.153,509.723 100,491.5C 86.599,474.213 81.9323,454.546 86,432.5C 88.6345,419.473 94.4678,408.14 103.5,398.5C 204.806,297.86 305.806,196.86 406.5,95.5C 416.128,86.8527 427.128,80.8527 439.5,77.5 Z"/></g>
</svg>
