<?xml version="1.0" encoding="UTF-8"?>
<!DOCTYPE svg PUBLIC "-//W3C//DTD SVG 1.1//EN" "http://www.w3.org/Graphics/SVG/1.1/DTD/svg11.dtd">
<svg xmlns="http://www.w3.org/2000/svg" version="1.1" width="900px" height="900px" style="shape-rendering:geometricPrecision; text-rendering:geometricPrecision; image-rendering:optimizeQuality; fill-rule:evenodd; clip-rule:evenodd" xmlns:xlink="http://www.w3.org/1999/xlink">
<g><path style="opacity:1" fill="#6d76d0" d="M 435.5,93.5 C 435.47,94.4972 435.97,95.1639 437,95.5C 462.901,91.46 483.235,100.127 498,121.5C 504.483,136.47 511.983,150.803 520.5,164.5C 522.65,174.108 526.817,182.775 533,190.5C 537.952,201.807 542.952,213.14 548,224.5C 549.574,225.984 550.907,227.651 552,229.5C 558.206,242.473 564.206,255.473 570,268.5C 571.739,270.043 573.239,271.71 574.5,273.5C 574.522,279.008 576.855,283.175 581.5,286C 617.336,292.154 653.336,297.321 689.5,301.5C 690.925,301.377 692.258,301.043 693.5,300.5C 693.5,301.167 693.833,301.5 694.5,301.5C 698.109,302.665 701.776,303.832 705.5,305C 724.595,307.054 743.595,309.72 762.5,313C 783.44,319.61 797.107,333.61 803.5,355C 804.686,365.87 804.352,376.703 802.5,387.5C 798.354,393.885 794.02,400.218 789.5,406.5C 776.199,420.966 762.032,434.633 747,447.5C 746.51,448.793 746.343,450.127 746.5,451.5C 743.86,451.954 741.527,453.121 739.5,455C 713.747,480.084 687.913,505.251 662,530.5C 661.5,532.5 661,534.5 660.5,536.5C 661.249,542.318 661.916,548.152 662.5,554C 667.217,580.023 672.217,605.856 677.5,631.5C 677.5,631.833 677.5,632.167 677.5,632.5C 677.867,637.865 678.533,643.198 679.5,648.5C 680.183,648.137 680.85,647.804 681.5,647.5C 681.5,648.167 681.5,648.833 681.5,649.5C 680.752,655.418 681.085,661.418 682.5,667.5C 684.092,676.395 685.258,685.395 686,694.5C 687.062,697.927 688.229,701.261 689.5,704.5C 694.416,735.673 682.749,758.007 654.5,771.5C 636.547,777.443 619.214,776.11 602.5,767.5C 601.817,767.863 601.15,768.196 600.5,768.5C 600.5,768.167 600.5,767.833 600.5,767.5C 596.108,764.121 591.442,760.955 586.5,758C 542.754,736.287 499.421,713.62 456.5,690C 451.5,688 446.5,688 441.5,690C 398.172,713.498 354.505,736.331 310.5,758.5C 308.116,761.918 304.782,763.751 300.5,764C 279.161,777.542 257.161,778.875 234.5,768C 215.359,753.782 206.525,734.615 208,710.5C 211.173,692.429 214.506,674.429 218,656.5C 219.184,651.11 219.351,645.777 218.5,640.5C 219.167,640.5 219.5,640.167 219.5,639.5C 224.943,618.266 228.776,596.6 231,574.5C 234.319,560.924 236.652,547.258 238,533.5C 226.016,521.236 213.849,509.07 201.5,497C 200.552,496.517 199.552,496.351 198.5,496.5C 193.736,490.232 188.402,484.398 182.5,479C 181.552,478.517 180.552,478.351 179.5,478.5C 179.649,477.448 179.483,476.448 179,475.5C 162.045,459.054 145.212,442.554 128.5,426C 127.423,425.53 126.423,425.697 125.5,426.5C 125.5,425.833 125.167,425.5 124.5,425.5C 125.246,423.864 124.912,422.197 123.5,420.5C 116.823,414.99 110.657,408.99 105,402.5C 102.816,398.96 100.816,395.293 99,391.5C 98.1281,387.333 96.9615,383.333 95.5,379.5C 94.0435,369.77 94.3768,360.103 96.5,350.5C 102.119,334.174 112.786,322.341 128.5,315C 149.891,310.414 171.558,307.081 193.5,305C 197.568,303.879 201.568,302.712 205.5,301.5C 205.5,301.167 205.5,300.833 205.5,300.5C 207.41,301.094 209.41,301.427 211.5,301.5C 222.923,300.38 234.256,298.88 245.5,297C 246.056,296.617 246.389,296.117 246.5,295.5C 247.167,295.5 247.833,295.5 248.5,295.5C 264.576,294.053 280.576,291.886 296.5,289C 297.056,288.617 297.389,288.117 297.5,287.5C 298.5,287.5 299.5,287.5 300.5,287.5C 306.625,287.357 312.625,286.524 318.5,285C 320.949,282.725 322.283,279.892 322.5,276.5C 329.319,265.563 335.486,254.229 341,242.5C 343.345,238.135 344.845,233.468 345.5,228.5C 347.017,228.489 348.184,227.823 349,226.5C 359.07,204.793 369.236,183.127 379.5,161.5C 383.261,156.315 386.261,150.648 388.5,144.5C 389.242,143.713 390.075,143.047 391,142.5C 395.513,127.651 403.68,115.151 415.5,105C 422.204,101.952 428.537,98.4522 434.5,94.5C 434.5,93.8333 434.833,93.5 435.5,93.5 Z"/></g>
<g><path style="opacity:0.255" fill="#585c90" d="M 434.5,94.5 C 428.537,98.4522 422.204,101.952 415.5,105C 403.68,115.151 395.513,127.651 391,142.5C 390.075,143.047 389.242,143.713 388.5,144.5C 386.261,150.648 383.261,156.315 379.5,161.5C 385.769,144.257 393.769,127.923 403.5,112.5C 411.834,103.189 422.167,97.1886 434.5,94.5 Z"/></g>
<g><path style="opacity:0.098" fill="#5a5e91" d="M 520.5,164.5 C 511.983,150.803 504.483,136.47 498,121.5C 483.235,100.127 462.901,91.46 437,95.5C 435.97,95.1639 435.47,94.4972 435.5,93.5C 456.031,89.6445 474.365,94.4778 490.5,108C 493.442,111.369 496.276,114.869 499,118.5C 504.368,130.211 510.201,141.711 516.5,153C 518.524,156.572 519.858,160.406 520.5,164.5 Z"/></g>
<g><path style="opacity:0.549" fill="#5a5e90" d="M 379.5,161.5 C 369.236,183.127 359.07,204.793 349,226.5C 348.184,227.823 347.017,228.489 345.5,228.5C 353.393,211.676 361.393,194.842 369.5,178C 372.578,172.15 375.911,166.65 379.5,161.5 Z"/></g>
<g><path style="opacity:0.488" fill="#585c90" d="M 520.5,164.5 C 525.408,171.458 529.741,178.958 533.5,187C 546.831,214.323 560.165,241.656 573.5,269C 574.148,270.44 574.481,271.94 574.5,273.5C 573.239,271.71 571.739,270.043 570,268.5C 564.206,255.473 558.206,242.473 552,229.5C 550.907,227.651 549.574,225.984 548,224.5C 542.952,213.14 537.952,201.807 533,190.5C 526.817,182.775 522.65,174.108 520.5,164.5 Z"/></g>
<g><path style="opacity:0.341" fill="#595c90" d="M 345.5,228.5 C 344.845,233.468 343.345,238.135 341,242.5C 335.486,254.229 329.319,265.563 322.5,276.5C 329.109,259.95 336.775,243.95 345.5,228.5 Z"/></g>
<g><path style="opacity:0.476" fill="#585b8c" d="M 322.5,276.5 C 322.283,279.892 320.949,282.725 318.5,285C 312.625,286.524 306.625,287.357 300.5,287.5C 300.611,286.883 300.944,286.383 301.5,286C 306.627,285.822 311.627,284.988 316.5,283.5C 318.765,281.24 320.765,278.906 322.5,276.5 Z"/></g>
<g><path style="opacity:0.404" fill="#5b5f92" d="M 297.5,287.5 C 297.389,288.117 297.056,288.617 296.5,289C 280.576,291.886 264.576,294.053 248.5,295.5C 252.217,293.934 256.217,292.768 260.5,292C 272.99,290.887 285.323,289.387 297.5,287.5 Z"/></g>
<g><path style="opacity:0.435" fill="#5c6196" d="M 574.5,273.5 C 576.397,276.212 578.397,279.046 580.5,282C 582.226,283.53 584.226,284.53 586.5,285C 622.353,290.176 658.019,295.343 693.5,300.5C 692.258,301.043 690.925,301.377 689.5,301.5C 653.336,297.321 617.336,292.154 581.5,286C 576.855,283.175 574.522,279.008 574.5,273.5 Z"/></g>
<g><path style="opacity:0.561" fill="#5f649c" d="M 246.5,295.5 C 246.389,296.117 246.056,296.617 245.5,297C 234.256,298.88 222.923,300.38 211.5,301.5C 209.41,301.427 207.41,301.094 205.5,300.5C 218.97,298.35 232.636,296.683 246.5,295.5 Z"/></g>
<g><path style="opacity:0.608" fill="#5a5e90" d="M 205.5,301.5 C 201.568,302.712 197.568,303.879 193.5,305C 171.558,307.081 149.891,310.414 128.5,315C 112.786,322.341 102.119,334.174 96.5,350.5C 95.8333,350.5 95.1667,350.5 94.5,350.5C 100.495,332.007 112.495,319.173 130.5,312C 155.4,307.09 180.4,303.59 205.5,301.5 Z"/></g>
<g><path style="opacity:0.448" fill="#585c8f" d="M 694.5,301.5 C 718.01,303.611 741.344,306.778 764.5,311C 796.946,323.693 810.446,347.526 805,382.5C 804.95,384.744 804.117,386.411 802.5,387.5C 804.352,376.703 804.686,365.87 803.5,355C 797.107,333.61 783.44,319.61 762.5,313C 743.595,309.72 724.595,307.054 705.5,305C 701.776,303.832 698.109,302.665 694.5,301.5 Z"/></g>
<g><path style="opacity:0.956" fill="#656cb1" d="M 94.5,350.5 C 95.1667,350.5 95.8333,350.5 96.5,350.5C 94.3768,360.103 94.0435,369.77 95.5,379.5C 93.9926,375.609 93.3259,371.442 93.5,367C 93.697,362.481 94.0304,357.981 94.5,353.5C 94.5,352.5 94.5,351.5 94.5,350.5 Z"/></g>
<g><path style="opacity:0.565" fill="#585b8e" d="M 94.5,353.5 C 94.0304,357.981 93.697,362.481 93.5,367C 93.3259,371.442 93.9926,375.609 95.5,379.5C 96.9615,383.333 98.1281,387.333 99,391.5C 100.816,395.293 102.816,398.96 105,402.5C 110.657,408.99 116.823,414.99 123.5,420.5C 124.912,422.197 125.246,423.864 124.5,425.5C 114.045,416.881 105.211,406.881 98,395.5C 92.9832,382.315 91.3166,368.649 93,354.5C 93.3826,353.944 93.8826,353.611 94.5,353.5 Z"/></g>
<g><path style="opacity:0.769" fill="#575b8f" d="M 802.5,387.5 C 802.231,391.474 801.064,395.14 799,398.5C 786.074,414.582 771.574,429.249 755.5,442.5C 724.78,472.888 694.113,503.221 663.5,533.5C 662.348,536.106 662.182,538.773 663,541.5C 667.205,565.911 671.538,590.244 676,614.5C 676.757,620.149 677.257,625.816 677.5,631.5C 672.217,605.856 667.217,580.023 662.5,554C 661.916,548.152 661.249,542.318 660.5,536.5C 661,534.5 661.5,532.5 662,530.5C 687.913,505.251 713.747,480.084 739.5,455C 741.527,453.121 743.86,451.954 746.5,451.5C 746.343,450.127 746.51,448.793 747,447.5C 762.032,434.633 776.199,420.966 789.5,406.5C 794.02,400.218 798.354,393.885 802.5,387.5 Z"/></g>
<g><path style="opacity:0.235" fill="#5a5e92" d="M 179.5,478.5 C 161.217,461.552 143.217,444.219 125.5,426.5C 126.423,425.697 127.423,425.53 128.5,426C 145.212,442.554 162.045,459.054 179,475.5C 179.483,476.448 179.649,477.448 179.5,478.5 Z"/></g>
<g><path style="opacity:0.573" fill="#4b4d7b" d="M 179.5,478.5 C 180.552,478.351 181.552,478.517 182.5,479C 188.402,484.398 193.736,490.232 198.5,496.5C 191.503,491.169 185.17,485.169 179.5,478.5 Z"/></g>
<g><path style="opacity:0.596" fill="#5c6195" d="M 198.5,496.5 C 199.552,496.351 200.552,496.517 201.5,497C 213.849,509.07 226.016,521.236 238,533.5C 236.652,547.258 234.319,560.924 231,574.5C 228.776,596.6 224.943,618.266 219.5,639.5C 223.423,609.698 228.256,580.031 234,550.5C 234.926,544.846 235.259,539.18 235,533.5C 222.27,521.604 210.103,509.27 198.5,496.5 Z"/></g>
<g><path style="opacity:0.645" fill="#55598e" d="M 677.5,632.5 C 679.272,637.161 680.606,642.161 681.5,647.5C 680.85,647.804 680.183,648.137 679.5,648.5C 678.533,643.198 677.867,637.865 677.5,632.5 Z"/></g>
<g><path style="opacity:0.301" fill="#5b6093" d="M 681.5,649.5 C 683.837,657.846 685.17,666.513 685.5,675.5C 684.082,672.98 683.082,670.313 682.5,667.5C 681.085,661.418 680.752,655.418 681.5,649.5 Z"/></g>
<g><path style="opacity:0.976" fill="#6269a9" d="M 682.5,667.5 C 683.082,670.313 684.082,672.98 685.5,675.5C 687.584,681.538 688.584,687.871 688.5,694.5C 688.616,697.86 688.949,701.193 689.5,704.5C 688.229,701.261 687.062,697.927 686,694.5C 685.258,685.395 684.092,676.395 682.5,667.5 Z"/></g>
<g><path style="opacity:0.455" fill="#595d90" d="M 218.5,640.5 C 219.351,645.777 219.184,651.11 218,656.5C 214.506,674.429 211.173,692.429 208,710.5C 206.525,734.615 215.359,753.782 234.5,768C 257.161,778.875 279.161,777.542 300.5,764C 304.782,763.751 308.116,761.918 310.5,758.5C 354.505,736.331 398.172,713.498 441.5,690C 446.5,688 451.5,688 456.5,690C 499.421,713.62 542.754,736.287 586.5,758C 591.442,760.955 596.108,764.121 600.5,767.5C 596.813,766.714 593.313,765.381 590,763.5C 543.135,738.983 496.302,714.316 449.5,689.5C 396.504,716.541 343.837,744.041 291.5,772C 259.296,784.352 233.129,776.519 213,748.5C 206.87,736.199 204.703,723.199 206.5,709.5C 210.114,686.145 214.114,663.145 218.5,640.5 Z"/></g>
<g><path style="opacity:0.77" fill="#595d92" d="M 688.5,694.5 C 697.858,722.733 691.525,746.733 669.5,766.5C 646.712,781.102 623.712,781.769 600.5,768.5C 601.15,768.196 601.817,767.863 602.5,767.5C 619.214,776.11 636.547,777.443 654.5,771.5C 682.749,758.007 694.416,735.673 689.5,704.5C 688.949,701.193 688.616,697.86 688.5,694.5 Z"/></g>
</svg>
