<?xml version="1.0" encoding="UTF-8"?>
<!DOCTYPE svg PUBLIC "-//W3C//DTD SVG 1.1//EN" "http://www.w3.org/Graphics/SVG/1.1/DTD/svg11.dtd">
<svg xmlns="http://www.w3.org/2000/svg" version="1.1" width="900px" height="900px" style="shape-rendering:geometricPrecision; text-rendering:geometricPrecision; image-rendering:optimizeQuality; fill-rule:evenodd; clip-rule:evenodd" xmlns:xlink="http://www.w3.org/1999/xlink">
<g><path style="opacity:0.993" fill="#4a4a4a" d="M 771.5,313.5 C 771.5,314.833 772.167,315.5 773.5,315.5C 776.462,315.955 779.129,317.121 781.5,319C 793.259,327.77 801.092,339.27 805,353.5C 805.775,364.023 805.608,374.523 804.5,385C 802.042,392.594 798.375,399.427 793.5,405.5C 792.5,405.833 791.833,406.5 791.5,407.5C 786.167,414.167 780.167,420.167 773.5,425.5C 772.5,425.833 771.833,426.5 771.5,427.5C 735.473,462.972 699.473,498.306 663.5,533.5C 662.348,536.106 662.182,538.773 663,541.5C 666.664,559.263 669.497,577.263 671.5,595.5C 671.427,597.027 672.094,598.027 673.5,598.5C 679.228,633.592 685.062,668.592 691,703.5C 696.51,740.637 681.676,765.137 646.5,777C 635.276,778.87 624.276,778.037 613.5,774.5C 602.53,769.735 591.864,764.402 581.5,758.5C 581.027,757.094 580.027,756.427 578.5,756.5C 535.41,734.454 492.41,712.121 449.5,689.5C 448.264,690.246 446.93,690.579 445.5,690.5C 444.167,690.5 443.5,691.167 443.5,692.5C 394.204,717.703 345.204,743.37 296.5,769.5C 275.557,780.163 254.557,780.163 233.5,769.5C 223.368,762.533 215.535,753.533 210,742.5C 207.535,734.86 206.035,727.027 205.5,719C 209.2,696.139 212.7,673.306 216,650.5C 222.477,617.337 228.477,584.003 234,550.5C 234.926,544.846 235.259,539.18 235,533.5C 192.027,491.527 149.027,449.527 106,407.5C 94.3943,392.527 89.8943,375.527 92.5,356.5C 93.9063,356.027 94.573,355.027 94.5,353.5C 97.3489,339.308 104.682,327.975 116.5,319.5C 121.147,316.901 125.814,314.401 130.5,312C 148.59,309.058 166.59,306.058 184.5,303C 228.965,297.587 272.965,291.087 316.5,283.5C 319.103,281.141 321.103,278.307 322.5,275C 346.7,225.878 370.7,176.711 394.5,127.5C 395.5,127.167 396.167,126.5 396.5,125.5C 397.388,122.757 398.555,120.09 400,117.5C 417.129,95.939 439.129,88.2723 466,94.5C 475.263,97.1322 483.429,101.632 490.5,108C 493.442,111.369 496.276,114.869 499,118.5C 525.304,171.609 551.471,224.776 577.5,278C 578.828,280.167 580.494,282 582.5,283.5C 605.823,286.817 628.823,290.65 651.5,295C 684.766,299.562 718.099,304.062 751.5,308.5C 758.379,309.682 765.046,311.349 771.5,313.5 Z"/></g>
<g><path style="opacity:0.007" fill="#000000" d="M 396.5,125.5 C 396.167,126.5 395.5,127.167 394.5,127.5C 394.5,126.167 395.167,125.5 396.5,125.5 Z"/></g>
<g><path style="opacity:0.005" fill="#000000" d="M 771.5,313.5 C 772.5,313.833 773.167,314.5 773.5,315.5C 772.167,315.5 771.5,314.833 771.5,313.5 Z"/></g>
<g><path style="opacity:0.02" fill="#1f1f1f" d="M 94.5,353.5 C 94.573,355.027 93.9063,356.027 92.5,356.5C 92.427,354.973 93.0937,353.973 94.5,353.5 Z"/></g>
<g><path style="opacity:0.007" fill="#000000" d="M 793.5,405.5 C 793.5,406.833 792.833,407.5 791.5,407.5C 791.833,406.5 792.5,405.833 793.5,405.5 Z"/></g>
<g><path style="opacity:0.007" fill="#000000" d="M 773.5,425.5 C 773.5,426.833 772.833,427.5 771.5,427.5C 771.833,426.5 772.5,425.833 773.5,425.5 Z"/></g>
<g><path style="opacity:0.02" fill="#1f1f1f" d="M 671.5,595.5 C 672.906,595.973 673.573,596.973 673.5,598.5C 672.094,598.027 671.427,597.027 671.5,595.5 Z"/></g>
<g><path style="opacity:0.005" fill="#000000" d="M 445.5,690.5 C 445.167,691.5 444.5,692.167 443.5,692.5C 443.5,691.167 444.167,690.5 445.5,690.5 Z"/></g>
<g><path style="opacity:0.024" fill="#1c1c1c" d="M 578.5,756.5 C 580.027,756.427 581.027,757.094 581.5,758.5C 579.973,758.573 578.973,757.906 578.5,756.5 Z"/></g>
</svg>
