<?xml version="1.0" encoding="UTF-8"?>
<!DOCTYPE svg PUBLIC "-//W3C//DTD SVG 1.1//EN" "http://www.w3.org/Graphics/SVG/1.1/DTD/svg11.dtd">
<svg xmlns="http://www.w3.org/2000/svg" version="1.1" width="900px" height="900px" style="shape-rendering:geometricPrecision; text-rendering:geometricPrecision; image-rendering:optimizeQuality; fill-rule:evenodd; clip-rule:evenodd" xmlns:xlink="http://www.w3.org/1999/xlink">
<g><path style="opacity:0.96" fill="#060606" d="M 394.5,127.5 C 395.5,127.167 396.167,126.5 396.5,125.5C 397.388,122.757 398.555,120.09 400,117.5C 417.129,95.939 439.129,88.2723 466,94.5C 475.263,97.1322 483.429,101.632 490.5,108C 493.442,111.369 496.276,114.869 499,118.5C 525.984,173.134 553.15,227.634 580.5,282C 582.226,283.53 584.226,284.53 586.5,285C 645.444,294.043 704.778,302.709 764.5,311C 796.946,323.693 810.446,347.526 805,382.5C 803.296,389.292 800.629,395.625 797,401.5C 784.078,415.932 770.244,429.599 755.5,442.5C 724.78,472.888 694.113,503.221 663.5,533.5C 662.348,536.106 662.182,538.773 663,541.5C 672.185,595.466 681.518,649.466 691,703.5C 696.51,740.637 681.676,765.137 646.5,777C 642.113,777.226 637.779,777.726 633.5,778.5C 629.221,777.726 624.887,777.226 620.5,777C 610.23,772.903 600.063,768.403 590,763.5C 543.135,738.983 496.302,714.316 449.5,689.5C 398.429,716.179 347.429,742.846 296.5,769.5C 273.729,780.885 251.396,780.052 229.5,767C 221.512,760.012 215.012,751.846 210,742.5C 206.281,731.754 205.114,720.754 206.5,709.5C 215.583,656.51 224.75,603.51 234,550.5C 234.926,544.846 235.259,539.18 235,533.5C 192.027,491.527 149.027,449.527 106,407.5C 93.7304,391.94 89.3971,374.273 93,354.5C 98.4515,334.086 110.951,319.92 130.5,312C 148.59,309.058 166.59,306.058 184.5,303C 228.965,297.587 272.965,291.087 316.5,283.5C 319.103,281.141 321.103,278.307 322.5,275C 346.7,225.878 370.7,176.711 394.5,127.5 Z M 445.5,145.5 C 450.395,144.575 453.895,146.242 456,150.5C 481.372,201.648 506.539,252.815 531.5,304C 540.107,320.514 553.44,331.181 571.5,336C 631.146,343.881 690.646,352.714 750,362.5C 750.95,363.022 751.784,363.689 752.5,364.5C 753.833,367.167 753.833,369.833 752.5,372.5C 709.768,413.734 667.268,455.067 625,496.5C 611.586,512.586 607.086,531.086 611.5,552C 620.544,604.519 629.711,657.019 639,709.5C 639.667,713.833 639.667,718.167 639,722.5C 636.421,724.347 633.588,724.847 630.5,724C 579.885,697.687 529.385,671.187 479,644.5C 469.536,639.656 459.536,636.989 449,636.5C 439.091,637.162 429.591,639.662 420.5,644C 370.558,670.874 320.391,697.374 270,723.5C 264.406,725.969 260.573,724.469 258.5,719C 267.564,661.62 277.23,604.454 287.5,547.5C 290.268,528.809 285.934,512.142 274.5,497.5C 231.434,455.933 188.601,414.266 146,372.5C 145.333,369.833 145.333,367.167 146,364.5C 146.388,363.572 147.055,362.905 148,362.5C 207.229,352.903 266.729,344.07 326.5,336C 343.547,331.6 356.547,321.933 365.5,307C 392.011,253.07 418.678,199.237 445.5,145.5 Z"/></g>
<g><path style="opacity:0.008" fill="#5e5e5e" d="M 396.5,125.5 C 396.167,126.5 395.5,127.167 394.5,127.5C 394.5,126.167 395.167,125.5 396.5,125.5 Z"/></g>
</svg>
