<?xml version="1.0" encoding="UTF-8"?>
<!DOCTYPE svg PUBLIC "-//W3C//DTD SVG 1.1//EN" "http://www.w3.org/Graphics/SVG/1.1/DTD/svg11.dtd">
<svg xmlns="http://www.w3.org/2000/svg" version="1.1" width="900px" height="900px" style="shape-rendering:geometricPrecision; text-rendering:geometricPrecision; image-rendering:optimizeQuality; fill-rule:evenodd; clip-rule:evenodd" xmlns:xlink="http://www.w3.org/1999/xlink">
<g><path style="opacity:0.99" fill="#050505" d="M 446.5,91.5 C 463.091,92.1048 477.758,97.6048 490.5,108C 493.442,111.369 496.276,114.869 499,118.5C 525.304,171.609 551.471,224.776 577.5,278C 578.828,280.167 580.494,282 582.5,283.5C 605.823,286.817 628.823,290.65 651.5,295C 689.224,299.553 726.891,304.887 764.5,311C 796.946,323.693 810.446,347.526 805,382.5C 802.439,391.715 798.272,400.048 792.5,407.5C 749.527,449.473 706.527,491.473 663.5,533.5C 662.348,536.106 662.182,538.773 663,541.5C 671.925,592.789 680.925,644.122 690,695.5C 697.678,723.751 690.844,747.417 669.5,766.5C 649.751,779.479 629.085,781.312 607.5,772C 555.097,744.03 502.43,716.53 449.5,689.5C 394.532,718.304 339.532,746.804 284.5,775C 264.877,780.566 246.544,777.899 229.5,767C 218.519,758.198 211.186,747.032 207.5,733.5C 206.624,728.697 205.957,723.863 205.5,719C 209.2,696.139 212.7,673.306 216,650.5C 222.477,617.337 228.477,584.003 234,550.5C 234.926,544.846 235.259,539.18 235,533.5C 192.027,491.527 149.027,449.527 106,407.5C 93.7304,391.94 89.3971,374.273 93,354.5C 98.4515,334.086 110.951,319.92 130.5,312C 148.59,309.058 166.59,306.058 184.5,303C 228.965,297.587 272.965,291.087 316.5,283.5C 319.103,281.141 321.103,278.307 322.5,275C 347.773,222.153 373.607,169.653 400,117.5C 411.11,102.209 426.276,94.0427 445.5,93C 446.056,92.6174 446.389,92.1174 446.5,91.5 Z"/></g>
</svg>
